<svg width="24" height="24" viewBox="0 0 24 24" fill="none" xmlns="http://www.w3.org/2000/svg">
<path opacity="0.4" d="M2.8041 15.477C2.8041 15.477 2.9461 17.215 2.9791 17.763C3.0231 18.498 3.3071 19.319 3.7811 19.889C4.4501 20.697 5.2381 20.982 6.2901 20.984C7.5271 20.986 16.5221 20.986 17.7591 20.984C18.8111 20.982 19.5991 20.697 20.2681 19.889C20.7421 19.319 21.0261 18.498 21.0711 17.763C21.1031 17.215 21.2451 15.477 21.2451 15.477" stroke="#130F26" stroke-width="1.5" stroke-linecap="round" stroke-linejoin="round"/>
<path d="M8.496 5.32949V4.95849C8.496 3.73849 9.484 2.75049 10.704 2.75049H13.286C14.505 2.75049 15.494 3.73849 15.494 4.95849L15.495 5.32949" stroke="#130F26" stroke-width="1.5" stroke-linecap="round" stroke-linejoin="round"/>
<path d="M11.995 16.6782V15.3842" stroke="#130F26" stroke-width="1.5" stroke-linecap="round" stroke-linejoin="round"/>
<path fill-rule="evenodd" clip-rule="evenodd" d="M2.7499 8.38912V11.8561C4.6679 13.1211 6.9659 14.0071 9.4879 14.3581C9.7899 13.2571 10.7829 12.4501 11.9899 12.4501C13.1779 12.4501 14.1909 13.2571 14.4729 14.3681C17.0049 14.0171 19.3119 13.1311 21.2399 11.8561V8.38912C21.2399 6.69512 19.8769 5.33112 18.1829 5.33112H5.8169C4.1229 5.33112 2.7499 6.69512 2.7499 8.38912Z" stroke="#130F26" stroke-width="1.5" stroke-linecap="round" stroke-linejoin="round"/>
</svg>
