<svg width="24" height="25" viewBox="0 0 24 25" fill="none" xmlns="http://www.w3.org/2000/svg">
<path opacity="0.4" d="M11.492 3.11249H7.753C4.678 3.11249 2.75 5.28949 2.75 8.37149V16.6855C2.75 19.7675 4.669 21.9445 7.753 21.9445H16.577C19.662 21.9445 21.581 19.7675 21.581 16.6855V12.6575" stroke="#130F26" stroke-width="1.5" stroke-linecap="round" stroke-linejoin="round"/>
<path fill-rule="evenodd" clip-rule="evenodd" d="M8.82763 11.2444L16.3006 3.77141C17.2316 2.84141 18.7406 2.84141 19.6716 3.77141L20.8886 4.98841C21.8196 5.91941 21.8196 7.42941 20.8886 8.35941L13.3796 15.8684C12.9726 16.2754 12.4206 16.5044 11.8446 16.5044H8.09863L8.19263 12.7244C8.20663 12.1684 8.43363 11.6384 8.82763 11.2444Z" stroke="#130F26" stroke-width="1.5" stroke-linecap="round" stroke-linejoin="round"/>
<path d="M15.165 4.92603L19.731 9.49203" stroke="#130F26" stroke-width="1.5" stroke-linecap="round" stroke-linejoin="round"/>
</svg>
