<svg width="24" height="24" viewBox="0 0 24 24" fill="none" xmlns="http://www.w3.org/2000/svg">
<path d="M3.01001 11.22V15.71C3.01001 19.3363 4.18413 21.208 7.00123 21.7939M20.98 11.22V15.71C20.98 19.3363 19.8059 21.208 16.9888 21.7939" stroke="#292D32" stroke-width="1.5" stroke-linecap="round" stroke-linejoin="round"/>
<path d="M12 12C13.83 12 15.18 10.51 15 8.68L14.34 2H9.66999L8.99999 8.68C8.81999 10.51 10.17 12 12 12Z" stroke="#292D32" stroke-width="1.5" stroke-linecap="round" stroke-linejoin="round"/>
<path d="M18.31 12C20.33 12 21.81 10.36 21.61 8.35L21.33 5.6C20.97 3 19.97 2 17.35 2H14.3L15 9.01C15.17 10.66 16.66 12 18.31 12Z" stroke="#292D32" stroke-width="1.5" stroke-linecap="round" stroke-linejoin="round"/>
<path d="M5.63988 12C7.28988 12 8.77988 10.66 8.93988 9.01L9.15988 6.8L9.63988 2H6.58988C3.96988 2 2.96988 3 2.60988 5.6L2.33988 8.35C2.13988 10.36 3.61988 12 5.63988 12Z" stroke="#292D32" stroke-width="1.5" stroke-linecap="round" stroke-linejoin="round"/>
<path d="M9.5 22.0002V19.5002C9.5 17.8302 10.33 17.0002 12 17.0002C13.67 17.0002 14.5 17.8302 14.5 19.5002V22.0002" stroke="#9D9DA5" stroke-width="1.5" stroke-linecap="round" stroke-linejoin="round"/>
</svg>
