<svg width="24" height="24" viewBox="0 0 24 24" fill="none" xmlns="http://www.w3.org/2000/svg">
<path d="M13 2C14.1046 2 15 2.89543 15 4V12C15 13.1 14.1 14 13 14H4C2.89543 14 2 13.1046 2 12V6C2 3.79 3.79 2 6 2H13Z" stroke="#9D9DA5" stroke-width="1.5" stroke-linecap="round" stroke-linejoin="round"/>
<path d="M2 17C2 18.66 3.34 20 5 20H6C6 18.9 6.9 18 8 18C9.1 18 10 18.9 10 20H14C14 18.9 14.9 18 16 18C17.1 18 18 18.9 18 20H19C20.66 20 22 18.66 22 17V14H19C18.45 14 18 13.55 18 13V10C18 9.45001 18.45 9.00001 19 9.00001H20.29L18.58 6.01002C18.4093 5.71611 18.1713 5.47388 17.8913 5.30038" stroke="#292D32" stroke-width="1.5" stroke-linecap="round" stroke-linejoin="round"/>
<path d="M8 22C9.10457 22 10 21.1046 10 20C10 18.8954 9.10457 18 8 18C6.89543 18 6 18.8954 6 20C6 21.1046 6.89543 22 8 22Z" stroke="#292D32" stroke-width="1.5" stroke-linecap="round" stroke-linejoin="round"/>
<path d="M16 22C17.1046 22 18 21.1046 18 20C18 18.8954 17.1046 18 16 18C14.8954 18 14 18.8954 14 20C14 21.1046 14.8954 22 16 22Z" stroke="#292D32" stroke-width="1.5" stroke-linecap="round" stroke-linejoin="round"/>
<path d="M22 12V14H19C18.45 14 18 13.55 18 13V10C18 9.45 18.45 9 19 9H20.29L22 12Z" stroke="#292D32" stroke-width="1.5" stroke-linecap="round" stroke-linejoin="round"/>
</svg>
