<svg width="215" height="18" viewBox="0 0 215 18" fill="none" xmlns="http://www.w3.org/2000/svg">
<path fill-rule="evenodd" clip-rule="evenodd" d="M120.604 1.35899C116.532 2.54517 114.253 6.71683 115.32 11.0279C116.192 14.5468 119.019 16.7851 122.617 16.8044C123.482 16.809 124.476 16.7415 124.828 16.6543C126.852 16.1523 128.938 14.3718 129.865 12.355C130.33 11.343 130.424 10.8214 130.424 9.25735V7.37663L126.599 7.31622L122.774 7.25582V8.92037V10.5849H124.498C126.357 10.5849 126.52 10.713 125.87 11.666C125.41 12.3408 123.954 13.0077 122.929 13.0139C119.101 13.0367 117.705 7.40628 121.042 5.40497C122.499 4.53165 124.785 4.97439 125.762 6.31944L126.208 6.9341L126.215 4.35597L126.222 1.77783L125.522 1.51807C124.448 1.12002 121.726 1.03196 120.604 1.35899ZM204.743 1.26694C202.631 1.82739 200.612 3.45963 199.739 5.31049C198.287 8.39 198.958 12.5608 201.247 14.6838C205.405 18.5408 212.717 17.0396 214.586 11.945C215.224 10.2041 215.108 7.00999 214.347 5.38527C213.654 3.90636 212.346 2.60513 210.788 1.8462C209.716 1.32358 209.177 1.21185 207.462 1.15565C206.336 1.11869 205.112 1.16892 204.743 1.26694ZM48.2448 4.88743C44.9512 13.4514 43.9048 16.2258 43.9048 16.3937C43.9048 16.4935 44.8493 16.5466 46.0037 16.5116L48.1027 16.4484L48.5089 15.2867L48.9151 14.1251H51.5756H54.2362L54.5808 15.342L54.9254 16.559H57.1691H59.4129L59.0393 15.6073C58.8339 15.084 57.5067 11.6988 56.0901 8.08445L53.5146 1.5132H51.5286H49.5424L48.2448 4.88743ZM60.9285 9.03609V16.559H65.5615H70.1946V14.6851V12.8113L67.5548 12.7491L64.9151 12.6869V7.09983V1.51298H62.9218L60.9285 1.5132V9.03609ZM72.134 9.03609V16.559H74.0734H76.0128V14.457V12.355H77.482C79.6231 12.355 81.0369 11.8545 82.1633 10.6978C84.3458 8.45705 84.1988 4.86243 81.8401 2.78944C80.5816 1.68335 79.7655 1.5132 75.7184 1.5132H72.134V9.03609ZM85.4943 9.03609V16.559H87.5352H89.5761L89.6363 13.6273L89.6964 10.6955H91.8513H94.0062L94.0663 13.6273L94.1264 16.559H96.1673H98.2082V9.03609V1.5132H96.1611H94.1139V4.16834V6.82347H91.8513H89.5886V4.16834V1.5132H87.5415H85.4943V9.03609ZM105.166 1.9004C105.089 2.11326 103.832 5.40806 102.372 9.22172C100.911 13.0356 99.7167 16.2503 99.7167 16.3656C99.7167 16.4873 100.587 16.5486 101.794 16.5116L103.872 16.4484L104.301 15.2867L104.731 14.1251H107.356H109.982L110.355 15.342L110.729 16.559H112.965H115.202L112.254 9.0372L109.306 1.51541L107.306 1.5143C105.597 1.51342 105.286 1.56962 105.166 1.9004ZM132.687 9.03609V16.559H134.734H136.781V14.2357V11.9125H137.536C138.281 11.9125 138.309 11.947 139.417 14.2357L140.543 16.559H142.779C144.48 16.559 144.991 16.4928 144.912 16.2824C144.855 16.1304 144.219 14.9106 143.499 13.5719L142.189 11.1381L142.947 10.3794C143.872 9.45428 144.225 8.77478 144.425 7.53616C144.778 5.35739 143.645 3.08394 141.715 2.09622C140.608 1.53024 140.46 1.5132 136.631 1.5132H132.687V9.03609ZM146.909 9.03609V16.559H151.65H156.391V14.7955V13.0321L153.643 12.9701L150.896 12.9082V11.8019V10.6955L153.32 10.6329L155.744 10.5703V8.91816V7.266H153.266H150.788V6.15969V5.05338H153.481H156.175V3.28329V1.5132H151.542H146.909V9.03609ZM158.761 9.0403V16.5674L163.556 16.5079L168.35 16.4484L168.413 14.7336L168.476 13.0188H165.666H162.855V11.8019V10.5849H165.226H167.596V8.92546V7.266H165.226H162.855V6.15969V5.05338H165.549H168.242V3.28329V1.5132H163.502H158.761V9.0403ZM170.769 8.97303L170.817 16.4484H172.708H174.599V12.5207C174.599 10.3606 174.666 8.61812 174.749 8.64866C174.83 8.67919 176.142 10.4466 177.664 12.5763L180.43 16.4484L182.094 16.513L183.758 16.5776V9.04538V1.5132H181.823H179.889L179.83 5.38306L179.771 9.25314L177.072 5.43837L174.373 1.62383L172.547 1.56077L170.721 1.49749L170.769 8.97303ZM192.808 9.04449V16.5756L194.802 16.5121L196.795 16.4484L196.852 8.98078L196.908 1.5132H194.858H192.808V9.04449ZM208.484 5.17242C209.553 5.63087 210.033 6.10261 210.504 7.15537C211.456 9.28258 210.472 12.0043 208.471 12.7827C207.565 13.1354 206.155 13.0675 205.322 12.6311C202.414 11.1089 202.46 6.62147 205.397 5.25164C206.475 4.74937 207.44 4.72458 208.484 5.17242ZM78.96 5.55122C79.613 6.29599 79.7048 6.7675 79.3611 7.61161C78.9984 8.50329 78.2586 8.8655 76.995 8.77013L76.1205 8.7042L76.058 6.87879L75.9953 5.05338H77.2594C78.2974 5.05338 78.6017 5.14255 78.96 5.55122ZM139.441 5.29898C139.953 5.53883 140.444 6.32961 140.444 6.91463C140.444 7.07504 140.243 7.46867 139.998 7.78928C139.598 8.31102 139.406 8.3723 138.166 8.3723H136.781V6.71284V5.05338H137.848C138.435 5.05338 139.152 5.16401 139.441 5.29898ZM52.4959 8.87014L53.1588 10.8062H51.5486C50.663 10.8062 49.9385 10.7754 49.9385 10.7378C49.9385 10.7004 50.2329 9.82909 50.5925 8.80177C50.9522 7.77468 51.2982 6.78475 51.3612 6.60221C51.518 6.14818 51.6631 6.43803 52.4959 8.87014ZM108.205 8.65264L108.964 10.8062H107.357C106.474 10.8062 105.75 10.7633 105.75 10.7106C105.75 10.6582 106.044 9.78683 106.403 8.77456C106.762 7.76229 107.103 6.79537 107.162 6.62589C107.317 6.1796 107.368 6.27984 108.205 8.65264ZM186.344 14.6783V16.559H188.283H190.222V14.6783V12.7975H188.283H186.344V14.6783Z" fill="#465D43"/>
<path d="M5.84908 0.526801C6.49441 0.285726 7.48242 0.075586 8.18951 0.028962C8.53288 0.00631284 8.87458 -0.00556415 8.9488 0.00255639C9.02303 0.0107322 9.32667 0.0312269 9.62356 0.0481861C11.9284 0.179772 14.3901 1.5517 15.8525 3.51964C16.0865 3.83462 17.0642 5.50757 18.4253 7.92224C19.6327 10.0642 20.7416 11.9844 20.8894 12.1893C21.5765 13.1418 22.6463 13.8644 23.8205 14.1691C24.4878 14.3423 25.5045 14.3451 26.1787 14.1757C27.3748 13.875 28.2549 13.3068 29.0514 12.3208C29.3423 11.9606 29.8393 11.0926 29.8393 10.9447C29.8393 10.923 28.7583 10.9053 27.4372 10.9053H25.035V9.02708V7.14886H29.3524H33.6699L33.6974 7.27315C33.845 7.93738 33.8869 9.46945 33.779 10.2495C33.5936 11.5885 33.1365 12.8386 32.4293 13.9407C31.1271 15.97 29.1466 17.3415 26.7443 17.8775C26.2706 17.9833 26.0332 18 25.008 18C23.9802 18 23.7461 17.9834 23.2672 17.8766C21.0222 17.3759 19.0877 16.1013 17.8148 14.2842C17.6799 14.0916 17.3218 13.495 17.019 12.9584C16.716 12.4216 15.7325 10.6774 14.8334 9.08232C13.9342 7.48721 13.1247 6.07026 13.0345 5.93354C12.6049 5.28218 11.6844 4.53178 10.9021 4.19486C10.2426 3.91091 9.85195 3.82639 9.05191 3.79463C7.9419 3.75055 7.13068 3.95632 6.19045 4.52034C5.70328 4.81257 4.98706 5.48541 4.65265 5.96502C4.36726 6.37431 3.97719 7.21133 3.85638 7.67365C3.49131 9.07077 3.72947 10.6504 4.48823 11.8643C4.59656 12.0376 4.8845 12.3918 5.12811 12.6515C6.48076 14.0934 8.35291 14.6256 10.2443 14.106C11.5657 13.743 12.8526 12.6548 13.4416 11.4024C13.5684 11.1328 13.6882 10.9108 13.708 10.9088C13.7277 10.9069 13.8021 11.0109 13.8733 11.1401C13.9444 11.2692 14.4081 12.089 14.9035 12.9619C15.3989 13.8348 15.8043 14.5697 15.8043 14.595C15.8043 14.6854 15.0135 15.5175 14.5628 15.9015C13.3941 16.8969 12.1226 17.5286 10.5895 17.8753C10.1321 17.9787 9.88488 17.9964 8.86783 17.9983C7.83275 18.0003 7.60906 17.9846 7.12572 17.8766C5.48141 17.5091 4.13357 16.8134 2.90298 15.6969C2.04776 14.9209 1.36432 13.9826 0.851877 12.8807C-1.37817 8.08543 0.937221 2.36138 5.84908 0.526801Z" fill="#465D43"/>
<path d="M19.556 1.92801C20.969 0.801132 22.6746 0.133645 24.4032 0.0309507C26.2338 -0.0777652 27.9187 0.306497 29.3897 1.16816L29.8389 1.43133L29.8376 4.24866L29.8362 7.06599L29.6044 6.61445C29.0462 5.52679 28.2783 4.7771 27.1863 4.25352C25.5653 3.47644 23.706 3.61333 22.1915 4.62132C21.4279 5.12955 20.8844 5.75339 20.428 6.64538L20.1483 7.19216L19.1099 5.35333C18.5388 4.34196 18.0715 3.48765 18.0715 3.45484C18.0715 3.35098 19.1065 2.28647 19.556 1.92801Z" fill="#465D43"/>
</svg>
