<svg width="92" height="28" viewBox="0 0 92 28" fill="none" xmlns="http://www.w3.org/2000/svg">
<g clip-path="url(#clip0)">
<path fill-rule="evenodd" clip-rule="evenodd" d="M57.075 21.8969C51.7288 25.8767 43.9797 28 37.3078 28C27.9528 28 19.5309 24.5056 13.1595 18.6936C12.6589 18.2366 13.1074 17.6138 13.7081 17.9697C20.5842 22.0101 29.0862 24.4409 37.8685 24.4409C43.7914 24.4409 50.3071 23.2032 56.2981 20.635C57.2032 20.2467 57.9601 21.2336 57.075 21.8969" fill="#FF9900"/>
<path fill-rule="evenodd" clip-rule="evenodd" d="M59.2976 19.3286C58.6168 18.4469 54.7803 18.9121 53.0583 19.1183C52.5337 19.183 52.4536 18.722 52.9261 18.3903C55.9817 16.2184 60.9956 16.8453 61.5803 17.5733C62.1649 18.3054 61.4281 23.3812 58.5567 25.8039C58.1162 26.176 57.6957 25.9778 57.8919 25.4843C58.5367 23.8585 59.9824 20.2144 59.2976 19.3286" fill="#FF9900"/>
<path fill-rule="evenodd" clip-rule="evenodd" d="M53.1784 3.05766V0.946439C53.1784 0.626925 53.4187 0.412567 53.7071 0.412567H63.066C63.3664 0.412567 63.6067 0.63097 63.6067 0.946439V2.75432C63.6027 3.05766 63.3504 3.45402 62.9018 4.08091L58.0522 11.0738C59.8543 11.0293 61.7565 11.3003 63.3904 12.2306C63.7589 12.4409 63.859 12.7482 63.887 13.0516V15.3044C63.887 15.6117 63.5506 15.9717 63.1982 15.7857C60.3188 14.2609 56.4943 14.0951 53.3106 15.8018C52.9862 15.9798 52.6458 15.6239 52.6458 15.3165V13.177C52.6458 12.8332 52.6498 12.2467 52.9902 11.725L58.6088 3.58749H53.7191C53.4187 3.58749 53.1784 3.37313 53.1784 3.05766" fill="black"/>
<path fill-rule="evenodd" clip-rule="evenodd" d="M19.0383 16.2305H16.191C15.9187 16.2103 15.7024 16.004 15.6824 15.7412V0.982827C15.6824 0.687579 15.9267 0.452997 16.231 0.452997H18.8862C19.1625 0.465123 19.3827 0.679488 19.4028 0.946424V2.87565H19.4548C20.1476 1.01114 21.4492 0.141571 23.2032 0.141571C24.9853 0.141571 26.0986 1.01114 26.8996 2.87565C27.5884 1.01114 29.1542 0.141571 30.8322 0.141571C32.0256 0.141571 33.3311 0.639043 34.1281 1.75532C35.0291 2.99698 34.8449 4.80082 34.8449 6.38221L34.8409 15.6967C34.8409 15.9919 34.5966 16.2305 34.2923 16.2305H31.4489C31.1646 16.2103 30.9363 15.9798 30.9363 15.6967V7.87463C30.9363 7.25178 30.9924 5.6987 30.8562 5.1082C30.644 4.1173 30.0072 3.83823 29.1823 3.83823C28.4934 3.83823 27.7726 4.30335 27.4803 5.04753C27.1879 5.79172 27.216 7.03742 27.216 7.87463V15.6967C27.216 15.9919 26.9717 16.2305 26.6673 16.2305H23.824C23.5356 16.2103 23.3114 15.9798 23.3114 15.6967L23.3074 7.87463C23.3074 6.22852 23.5757 3.80588 21.5533 3.80588C19.5069 3.80588 19.587 6.16785 19.587 7.87463V15.6967C19.587 15.9919 19.3427 16.2305 19.0383 16.2305" fill="black"/>
<path fill-rule="evenodd" clip-rule="evenodd" d="M71.6641 0.141571C75.8891 0.141571 78.1758 3.80588 78.1758 8.46513C78.1758 12.9666 75.6488 16.5379 71.6641 16.5379C67.5152 16.5379 65.2566 12.8736 65.2566 8.30739C65.2566 3.71285 67.5433 0.141571 71.6641 0.141571V0.141571ZM71.6881 3.15472C69.5897 3.15472 69.4575 6.04248 69.4575 7.84228C69.4575 9.64612 69.4295 13.4965 71.6641 13.4965C73.8707 13.4965 73.9748 10.3903 73.9748 8.49748C73.9748 7.25178 73.9228 5.76341 73.5503 4.58242C73.2299 3.55512 72.5932 3.15472 71.6881 3.15472" fill="black"/>
<path fill-rule="evenodd" clip-rule="evenodd" d="M83.6542 16.2305H80.8189C80.5345 16.2103 80.3063 15.9798 80.3063 15.6967L80.3023 0.93429C80.3263 0.66331 80.5626 0.452997 80.8509 0.452997H83.49C83.7383 0.465123 83.9425 0.634999 83.9986 0.865535V3.12236H84.0507C84.8476 1.10416 85.9649 0.141571 87.9312 0.141571C89.2087 0.141571 90.4542 0.606688 91.2551 1.8807C92 3.06169 92 5.04753 92 6.47524V15.7654C91.968 16.0243 91.7317 16.2305 91.4514 16.2305H88.596C88.3357 16.2103 88.1195 16.0162 88.0914 15.7654V7.74925C88.0914 6.1355 88.2756 3.77352 86.3093 3.77352C85.6165 3.77352 84.9798 4.24268 84.6634 4.95451C84.2629 5.85643 84.2109 6.75431 84.2109 7.74925V15.6967C84.2069 15.9919 83.9586 16.2305 83.6542 16.2305" fill="black"/>
<path fill-rule="evenodd" clip-rule="evenodd" d="M45.7177 9.18101C45.7177 10.3013 45.7457 11.2356 45.185 12.2306C44.7325 13.0395 44.0117 13.5369 43.2147 13.5369C42.1214 13.5369 41.4807 12.6957 41.4807 11.454C41.4807 9.00306 43.6552 8.55816 45.7177 8.55816V9.18101V9.18101ZM48.589 16.1901C48.4008 16.36 48.1285 16.3721 47.9162 16.2589C46.9711 15.4661 46.7989 15.0981 46.2823 14.3418C44.7205 15.9515 43.6112 16.4328 41.5888 16.4328C39.19 16.4328 37.3278 14.9404 37.3278 11.9515C37.3278 9.61782 38.5773 8.02834 40.3634 7.25179C41.9092 6.56423 44.0677 6.4429 45.7177 6.25281V5.88071C45.7177 5.19719 45.7697 4.3883 45.3693 3.7978C45.0249 3.26798 44.3601 3.04957 43.7714 3.04957C42.6861 3.04957 41.721 3.61176 41.4847 4.77657C41.4366 5.03542 41.2484 5.29022 40.9881 5.30235L38.2289 5.00306C37.9966 4.95048 37.7363 4.76039 37.8044 4.40043C38.4371 1.01924 41.4647 3.05176e-05 44.1719 3.05176e-05C45.5575 3.05176e-05 47.3676 0.372124 48.4609 1.43178C49.8465 2.73815 49.7144 4.48132 49.7144 6.37819V10.8595C49.7144 12.2063 50.267 12.7968 50.7876 13.5248C50.9678 13.7836 51.0079 14.0951 50.7756 14.2892C50.1949 14.7786 49.1617 15.6886 48.593 16.1982L48.589 16.1901" fill="black"/>
<path fill-rule="evenodd" clip-rule="evenodd" d="M8.38985 9.1812C8.38985 10.3015 8.41788 11.2358 7.85722 12.2307C7.40469 13.0396 6.68785 13.5371 5.88691 13.5371C4.79363 13.5371 4.15688 12.6959 4.15688 11.4542C4.15688 9.00324 6.33143 8.55835 8.38985 8.55835V9.1812V9.1812ZM11.2612 16.1903C11.073 16.3602 10.8007 16.3723 10.5884 16.259C9.64332 15.4663 9.47512 15.0983 8.95451 14.342C7.39268 15.9517 6.28738 16.433 4.261 16.433C1.86619 16.433 0 14.9405 0 11.9517C0 9.618 1.25347 8.02852 3.03556 7.25198C4.58138 6.56441 6.73991 6.44308 8.38985 6.25299V5.8809C8.38985 5.19738 8.44191 4.38848 8.04544 3.79799C7.69703 3.26816 7.03226 3.04976 6.44757 3.04976C5.3623 3.04976 4.39316 3.61194 4.15688 4.77675C4.10882 5.0356 3.9206 5.2904 3.6643 5.30254L0.901058 5.00324C0.668785 4.95067 0.412483 4.76057 0.476559 4.40062C1.11331 1.01943 4.13685 0.000213623 6.84403 0.000213623C8.22966 0.000213623 10.0398 0.372307 11.1331 1.43196C12.5187 2.73833 12.3865 4.4815 12.3865 6.37837V10.8597C12.3865 12.2065 12.9392 12.797 13.4598 13.525C13.644 13.7838 13.6841 14.0952 13.4518 14.2894C12.8711 14.7788 11.8379 15.6888 11.2692 16.1984L11.2612 16.1903" fill="black"/>
</g>
<defs>
<clipPath id="clip0">
<rect width="92" height="28" fill="white"/>
</clipPath>
</defs>
</svg>
