<?xml version="1.0" encoding="UTF-8"?>
<svg width="456px" height="105px" viewBox="0 0 456 105" version="1.1" xmlns="http://www.w3.org/2000/svg" xmlns:xlink="http://www.w3.org/1999/xlink">
    <title>Group</title>
    <g id="Page-1" stroke="none" stroke-width="1" fill="none" fill-rule="evenodd">
        <g id="Group" transform="translate(2.692392, 2.308062)" stroke="#000000" stroke-width="4">
            <path d="M0,100.057869 C6.82857695,94.9574984 16.8987722,91.2867819 30.2105858,89.0457194 C43.5223994,86.804657 56.2369772,86.804657 68.3543191,89.0457194" id="Path-5" stroke-linecap="round"></path>
            <path d="M21,56.057869 C27.1057037,51.6464029 33.7619885,48.8406208 40.9688546,47.6405228 C48.1757206,46.4404248 56.0240987,46.4404248 64.5139891,47.6405228" id="Path-5" stroke-linecap="round"></path>
            <path d="M30,13.057869 C38.2120457,7.64011861 48.9739754,3.81071219 62.285789,1.56964975 C75.5976026,-0.671412688 90.2519626,-0.5127228 106.248869,2.04571941" id="Path-5" stroke-linecap="round"></path>
            <path d="M64.5139891,1.56964975 C51.0294011,19.0954445 40.9171246,34.4524022 34.1771596,47.6405228 C27.4371945,60.8286434 21.8527147,76.185601 17.42372,93.7113958" id="Path-6" stroke-linecap="round"></path>
            <path d="M104.329884,51.2310008 C111.875681,39.2388133 111.875681,34.3169383 104.329884,36.4653758 C93.0111883,39.688032 72.5889107,66.172407 78.3888161,72.266157 C82.2554198,76.328657 97.2268536,70.9258943 123.303118,56.057869" id="Path-7"></path>
            <path d="M138.268529,62.6430419 C146.344054,59.8333898 150.887057,56.4089886 151.89754,52.3698383 C153.413264,46.3111127 149.518546,39.773853 141.608389,39.773853 C133.698233,39.773853 118.72753,66.1040144 126.608389,72.266157 C131.862296,76.3742521 139.16603,70.5438038 148.519594,54.7748122" id="Path-8" stroke-linecap="round"></path>
            <path d="M167.50299,41.2018359 C156.526183,58.8718523 151.930093,68.2868462 153.71472,69.4468176 C156.39166,71.1867747 174.441631,49.8582306 178.657824,48.4522531 C182.874016,47.0462755 174.979324,64.6304822 186.612296,60.1846478 C198.245267,55.7388133 214.189644,32.3772762 219.307608,34.390076 C222.719584,35.7319425 215.698804,51.4808771 198.245267,81.6368797" id="Path-9" stroke-linecap="round"></path>
            <path d="M234.50299,41.2018359 C223.526183,58.8718523 218.930093,68.2868462 220.71472,69.4468176 C223.39166,71.1867747 241.441631,49.8582306 245.657824,48.4522531 C249.874016,47.0462755 241.979324,64.6304822 253.612296,60.1846478 C265.245267,55.7388133 281.189644,32.3772762 286.307608,34.390076 C289.719584,35.7319425 282.698804,51.4808771 265.245267,81.6368797" id="Path-9" stroke-linecap="round"></path>
            <path d="M283.612296,57.9521451 C300.11011,56.6157144 310.682639,54.887992 315.329884,52.768978 C322.300751,49.590457 326.648579,33.2427195 315.329884,36.4653758 C304.011188,39.688032 283.588911,66.172407 289.388816,72.266157 C293.25542,76.328657 308.226854,70.9258943 334.303118,56.057869" id="Path-7" stroke-linecap="round"></path>
            <path d="M347.288582,37.4028758 C332.415496,59.2313432 326.610337,70.5553483 329.873105,71.3748911 C332.34888,71.9967569 336.42103,62.1316558 344.158292,54.0215865 C351.716175,46.0995403 362.943321,39.9472311 365.255613,38.9533388 C369.935077,36.9419651 361.063794,51.8018315 361.261407,55.16333 C361.39315,57.404329 363.099704,59.0112272 366.38107,59.9840247" id="Path-10" stroke-linecap="round"></path>
            <path d="M393.329884,51.2310008 C400.875681,39.2388133 400.875681,34.3169383 393.329884,36.4653758 C382.011188,39.688032 361.588911,66.172407 367.388816,72.266157 C371.25542,76.328657 381.996448,72.5900885 399.611901,61.0504514" id="Path-7" stroke-linecap="round"></path>
            <path d="M400.612296,55.9521451 C417.11011,54.6157144 427.682639,52.887992 432.329884,50.768978 C439.300751,47.590457 443.648579,31.2427195 432.329884,34.4653758 C421.011188,37.688032 400.588911,64.172407 406.388816,70.266157 C410.25542,74.328657 425.226854,68.9258943 451.303118,54.057869" id="Path-7" stroke-linecap="round"></path>
        </g>
    </g>
</svg>