<svg width="280" height="25" viewBox="0 0 280 25" fill="none" xmlns="http://www.w3.org/2000/svg">
<path fill-rule="evenodd" clip-rule="evenodd" d="M10.9949 1.37881C5.11354 3.01405 1.51966 8.06102 2.05202 13.9356C2.9414 23.7443 15.0185 28.4905 22.0323 21.7874C22.7196 21.1306 23.2814 20.4356 23.2814 20.2431C23.2814 19.7657 20.8477 15.7661 20.5592 15.7698C20.4325 15.7716 20.0028 16.3467 19.604 17.0475C18.7046 18.6292 16.2113 19.8551 13.8938 19.8551C11.3624 19.8551 9.17619 18.5061 7.92659 16.1736C5.40334 11.4614 8.65109 6.08602 14.0251 6.0792C17.1757 6.07511 18.661 7.32607 21.767 12.6006C26.2162 20.1563 27.4313 21.7606 29.8237 23.2383C31.657 24.3707 32.6418 24.6437 35.3949 24.7826C38.297 24.9294 39.0651 24.7922 41.2095 23.7429C45.8899 21.4531 48.1779 17.2737 47.8758 11.5654L47.8099 10.3163H41.9049H35.9999V12.8145V15.3128H39.1795C40.9283 15.3128 42.3592 15.4895 42.3592 15.7057C42.3592 16.447 40.4618 18.5106 39.1618 19.1829C37.3331 20.1286 34.243 20.0268 32.4978 18.9626C30.9162 17.9982 30.1894 16.9753 26.1976 10.0892C24.7491 7.59089 22.9385 4.95316 22.1736 4.22775C19.3442 1.54325 14.6792 0.354067 10.9949 1.37881ZM32.7926 1.37563C30.6713 1.96977 28.6527 3.19256 27.2746 4.71832C26.5374 5.53367 26.5664 5.69629 27.8419 7.92974L29.1855 10.2822L30.8894 8.45847C33.8419 5.29883 38.0976 5.2089 40.8888 8.24816C41.7042 9.13573 42.4196 9.8625 42.4786 9.86295C42.5381 9.86386 42.5195 8.22454 42.4377 6.22092L42.2897 2.57753L40.708 1.91662C38.3687 0.939118 35.1373 0.718361 32.7926 1.37563ZM68.2681 6.64926C67.6471 7.80983 63.2561 19.0784 63.2547 19.5145C63.2543 19.7021 64.1514 19.8551 65.2488 19.8551C66.9976 19.8551 67.2788 19.7152 67.5286 18.7196C67.7893 17.6803 68.0255 17.584 70.3144 17.584C72.5638 17.584 72.8585 17.698 73.2469 18.7196C73.6217 19.7052 73.9564 19.8551 75.7824 19.8551C77.2805 19.8551 77.8228 19.6916 77.6661 19.2873C77.5449 18.9753 76.2648 15.807 74.8213 12.2468L72.1967 5.77396H70.4666C69.2233 5.77396 68.6047 6.02015 68.2681 6.64926ZM79.4549 6.07693C79.2882 6.24318 79.1519 9.41145 79.1519 13.1175V19.8551H83.7215H88.2915L88.1503 18.1518L88.0094 16.4484L85.6247 16.3112L83.24 16.1736V10.974V5.77396H81.4989C80.541 5.77396 79.6211 5.91023 79.4549 6.07693ZM90.0535 12.8145V19.8551H91.8704H93.6873V18.0382C93.6873 16.2599 93.7214 16.2213 95.2999 16.2213C98.643 16.2213 100.955 14.0855 100.955 10.9976C100.955 7.39329 98.5658 5.77396 93.2476 5.77396H90.0535V12.8145ZM103.096 6.05513C102.918 6.23364 102.772 9.41145 102.772 13.1175V19.8551H104.816H106.86V17.1297V14.4044H108.904H110.948V17.1297V19.8551H113.004H115.06L114.934 12.9281L114.809 6.00108L112.902 5.86253L110.995 5.72399L110.858 8.36081L110.721 10.9976L108.814 11.1362L106.907 11.2747L106.77 8.63789L106.633 6.00108L105.027 5.86571C104.144 5.79167 103.275 5.87662 103.096 6.05513ZM121.438 6.76963C121.212 7.34651 119.986 10.458 118.714 13.6849C117.44 16.9117 116.399 19.6203 116.399 19.7034C116.399 19.787 117.286 19.8551 118.37 19.8551C120.032 19.8551 120.423 19.6771 120.859 18.7196C121.311 17.7266 121.664 17.584 123.667 17.584C125.669 17.584 126.022 17.7266 126.475 18.7196C126.911 19.6771 127.301 19.8551 128.963 19.8551C130.047 19.8551 130.934 19.6843 130.934 19.4754C130.934 19.2665 129.723 16.1491 128.243 12.5484L125.551 6.00108L123.699 5.86117C122.12 5.74216 121.787 5.87571 121.438 6.76963ZM134.564 6.79598C131.997 8.54296 131.176 10.0446 131.176 12.9967C131.176 15.1956 131.391 15.912 132.478 17.3369C134.148 19.5254 136.382 20.4688 139.245 20.194C142.957 19.837 145.456 17.2969 145.82 13.5104L146.043 11.1861L142.279 11.3188L138.514 11.4519L138.471 12.9281C138.431 14.339 138.505 14.4044 140.133 14.4044C142.065 14.4044 142.301 14.9358 140.826 15.9683C139.335 17.013 137.423 16.8468 136.138 15.5604C133.871 13.2947 135.389 9.40781 138.54 9.40781C139.439 9.40781 140.548 9.74621 141.005 10.1596C141.8 10.8786 141.836 10.8109 141.836 8.61836C141.836 5.99381 141.557 5.77396 138.232 5.77396C136.733 5.77396 135.602 6.08874 134.564 6.79598ZM148.044 6.07693C147.877 6.24318 147.741 9.41145 147.741 13.1175V19.8551H149.785H151.829V17.8111C151.829 16.289 152.004 15.7671 152.516 15.7671C152.894 15.7671 153.65 16.6869 154.196 17.8111C155.172 19.8193 155.229 19.8551 157.408 19.8551C158.628 19.8551 159.554 19.7016 159.465 19.5145C159.376 19.3269 158.817 18.2231 158.223 17.0616L157.143 14.949L158.12 13.7071C160.075 11.2211 159.089 7.6563 156.099 6.40716C154.563 5.76533 148.6 5.52095 148.044 6.07693ZM161.671 6.07693C161.504 6.24318 161.368 9.41145 161.368 13.1175V19.8551H165.91H170.452V18.2653V16.6755H167.954C165.592 16.6755 165.456 16.6137 165.456 15.5399C165.456 14.4802 165.607 14.4044 167.727 14.4044H169.998V12.8145V11.2247H167.727C165.759 11.2247 165.456 11.1035 165.456 10.3163C165.456 9.51774 165.759 9.40781 167.954 9.40781H170.452V7.59089V5.77396H166.213C163.881 5.77396 161.837 5.91023 161.671 6.07693ZM173.027 6.07693C172.86 6.24318 172.724 9.41145 172.724 13.1175V19.8551L177.38 19.8547L182.035 19.8538L182.089 18.2649L182.144 16.6755H179.478C176.937 16.6755 176.812 16.6224 176.812 15.5399C176.812 14.4802 176.963 14.4044 179.083 14.4044H181.354V12.8145V11.2247H179.083C177.115 11.2247 176.812 11.1035 176.812 10.3163C176.812 9.51774 177.115 9.40781 179.31 9.40781H181.808V7.59089V5.77396H177.569C175.237 5.77396 173.193 5.91023 173.027 6.07693ZM184.382 6.07693C184.216 6.24318 184.079 9.41145 184.079 13.1175V19.8551H186.104H188.129L188.262 16.4112L188.395 12.9672L190.893 16.3984C193.229 19.6067 193.502 19.8306 195.095 19.8424L196.798 19.8551V12.8145V5.77396H194.999H193.201L193.069 9.50638L192.937 13.2388L190.252 9.50638C187.86 6.18095 187.41 5.77396 186.126 5.77396C185.334 5.77396 184.549 5.91023 184.382 6.07693ZM209.094 6.55887C206.75 7.77031 205.74 9.45051 205.544 12.468C205.324 15.8288 206.37 17.8497 209.068 19.276C211.48 20.5519 213.663 20.5887 216.073 19.3941C218.573 18.1554 219.634 16.5497 219.876 13.6413L220.076 11.2247H216.386H212.696V12.8145C212.696 14.3285 212.772 14.4044 214.286 14.4044C216.112 14.4044 216.316 14.9531 214.866 15.9683C212.858 17.375 210.369 16.6551 209.599 14.4448C209.064 12.9131 209.334 11.3569 210.332 10.2027C211.222 9.17479 213.945 9.16434 215.072 10.1841C215.904 10.9368 215.926 10.8859 215.789 8.48072L215.649 6.00108L213.15 5.87752C211.446 5.79349 210.157 6.00971 209.094 6.55887ZM222.235 12.7591V19.8551H224.052H225.869V17.8111C225.869 16.1454 226.02 15.7671 226.687 15.7671C227.206 15.7671 227.867 16.5129 228.498 17.8111C229.475 19.8224 229.526 19.8551 231.728 19.8551H233.965L232.683 17.5104L231.401 15.1657L232.372 13.8525C233.875 11.8193 233.686 9.29289 231.895 7.50276C230.523 6.13053 230.235 6.04514 226.342 5.85935L222.235 5.66267V12.7591ZM238.595 6.61474C235.975 8.01968 235.18 9.49684 235.18 12.9613C235.18 16.5438 236.002 17.986 238.844 19.3941C242.916 21.4122 247.5 19.9864 249.426 16.1023C250.289 14.3617 250.439 13.5418 250.193 11.9029C249.857 9.65991 248.297 7.48323 246.278 6.43895C244.463 5.50051 240.504 5.59136 238.595 6.61474ZM252.214 11.2052V16.6887L253.719 18.3303C254.975 19.7007 255.594 20.0041 257.466 20.1658C260.324 20.4129 262.593 19.306 263.691 17.1297C264.334 15.8538 264.469 14.5988 264.372 10.7705L264.251 6.00108L262.321 5.86163L260.39 5.72172V10.3199C260.39 15.3837 259.983 16.6755 258.386 16.6755C256.677 16.6755 256.344 15.768 256.205 10.7442L256.075 6.00108L254.145 5.86163L252.214 5.72172V11.2052ZM267.053 6.07693C266.886 6.24318 266.75 9.41145 266.75 13.1175V19.8551H268.794H270.838V18.0382C270.838 16.318 270.911 16.2213 272.215 16.2213C275.503 16.2213 278.105 13.9138 278.105 10.9976C278.105 9.11256 276.814 7.11985 275.137 6.41942C273.579 5.76851 267.613 5.5155 267.053 6.07693ZM96.8125 10.2145C97.4665 11.4364 96.6003 12.5874 95.0273 12.5874C93.7986 12.5874 93.6873 12.4553 93.6873 10.9976C93.6873 9.53818 93.7977 9.40781 95.0341 9.40781C95.859 9.40781 96.5481 9.72032 96.8125 10.2145ZM154.935 10.7192C155.106 11.9279 154.387 12.5702 152.851 12.5806C151.981 12.5865 151.829 12.3467 151.829 10.969C151.829 9.41644 151.889 9.35603 153.305 9.49275C154.465 9.60449 154.814 9.86749 154.935 10.7192ZM229.23 10.4566C229.63 11.1144 229.549 11.4119 228.824 11.9497C227.337 13.0544 226.118 12.5888 225.951 10.8532C225.812 9.40372 225.863 9.35103 227.268 9.49048C228.072 9.56997 228.955 10.0047 229.23 10.4566ZM245.409 10.6569C247.277 13.0321 245.629 16.6755 242.686 16.6755C240.615 16.6755 239.041 15.0925 239.041 13.0085C239.041 10.6342 240.268 9.40781 242.642 9.40781C244.048 9.40781 244.635 9.67308 245.409 10.6569ZM273.79 10.9976C273.79 12.2032 273.62 12.3767 272.314 12.5025C270.894 12.6397 270.838 12.5824 270.838 10.9976C270.838 9.41281 270.894 9.35558 272.314 9.49275C273.62 9.61858 273.79 9.79209 273.79 10.9976ZM71.6312 13.8366C71.9097 14.7428 71.7875 14.8586 70.552 14.8586C69.0058 14.8586 68.874 14.448 69.6798 12.1364L70.2013 10.6411L70.7591 11.728C71.0657 12.3253 71.4581 13.2742 71.6312 13.8366ZM124.503 12.5266C125.21 14.8854 125.219 14.8586 123.667 14.8586C122.917 14.8586 122.304 14.7291 122.304 14.5706C122.304 13.8093 123.394 10.7705 123.667 10.7705C123.837 10.7705 124.214 11.5609 124.503 12.5266Z" fill="black"/>
</svg>
