<svg width="277" height="24" viewBox="0 0 277 24" fill="none" xmlns="http://www.w3.org/2000/svg">
<path fill-rule="evenodd" clip-rule="evenodd" d="M8.99493 0.378814C3.11354 2.01405 -0.480342 7.06102 0.0520176 12.9356C0.941403 22.7443 13.0185 27.4905 20.0323 20.7874C20.7196 20.1306 21.2814 19.4356 21.2814 19.2431C21.2814 18.7657 18.8477 14.7661 18.5592 14.7698C18.4325 14.7716 18.0028 15.3467 17.604 16.0475C16.7046 17.6292 14.2113 18.8551 11.8938 18.8551C9.3624 18.8551 7.17619 17.5061 5.92659 15.1736C3.40334 10.4614 6.65109 5.08602 12.0251 5.0792C15.1757 5.07511 16.661 6.32607 19.767 11.6006C24.2162 19.1563 25.4313 20.7606 27.8237 22.2383C29.657 23.3707 30.6418 23.6437 33.3949 23.7826C36.297 23.9294 37.0651 23.7922 39.2095 22.7429C43.8899 20.4531 46.1779 16.2737 45.8758 10.5654L45.8099 9.31627H39.9049H33.9999V11.8145V14.3128H37.1795C38.9283 14.3128 40.3592 14.4895 40.3592 14.7057C40.3592 15.447 38.4618 17.5106 37.1618 18.1829C35.3331 19.1286 32.243 19.0268 30.4978 17.9626C28.9162 16.9982 28.1894 15.9753 24.1976 9.08916C22.7491 6.59089 20.9385 3.95316 20.1736 3.22775C17.3442 0.543246 12.6792 -0.645933 8.99493 0.378814ZM30.7926 0.375634C28.6713 0.969769 26.6527 2.19256 25.2746 3.71832C24.5374 4.53367 24.5664 4.69629 25.8419 6.92974L27.1855 9.28221L28.8894 7.45847C31.8419 4.29883 36.0976 4.2089 38.8888 7.24816C39.7042 8.13573 40.4196 8.8625 40.4786 8.86295C40.5381 8.86386 40.5195 7.22454 40.4377 5.22092L40.2897 1.57753L38.708 0.916624C36.3687 -0.0608823 33.1373 -0.281639 30.7926 0.375634ZM66.2681 5.64926C65.6471 6.80983 61.2561 18.0784 61.2547 18.5145C61.2543 18.7021 62.1514 18.8551 63.2488 18.8551C64.9976 18.8551 65.2788 18.7152 65.5286 17.7196C65.7893 16.6803 66.0255 16.584 68.3144 16.584C70.5638 16.584 70.8585 16.698 71.2469 17.7196C71.6217 18.7052 71.9564 18.8551 73.7824 18.8551C75.2805 18.8551 75.8228 18.6916 75.6661 18.2873C75.5449 17.9753 74.2648 14.807 72.8213 11.2468L70.1967 4.77396H68.4666C67.2233 4.77396 66.6047 5.02015 66.2681 5.64926ZM77.4549 5.07693C77.2882 5.24318 77.1519 8.41145 77.1519 12.1175V18.8551H81.7215H86.2915L86.1503 17.1518L86.0094 15.4484L83.6247 15.3112L81.24 15.1736V9.974V4.77396H79.4989C78.541 4.77396 77.6211 4.91023 77.4549 5.07693ZM88.0535 11.8145V18.8551H89.8704H91.6873V17.0382C91.6873 15.2599 91.7214 15.2213 93.2999 15.2213C96.643 15.2213 98.955 13.0855 98.955 9.99762C98.955 6.39329 96.5658 4.77396 91.2476 4.77396H88.0535V11.8145ZM101.096 5.05513C100.918 5.23364 100.772 8.41145 100.772 12.1175V18.8551H102.816H104.86V16.1297V13.4044H106.904H108.948V16.1297V18.8551H111.004H113.06L112.934 11.9281L112.809 5.00108L110.902 4.86253L108.995 4.72399L108.858 7.36081L108.721 9.99762L106.814 10.1362L104.907 10.2747L104.77 7.63789L104.633 5.00108L103.027 4.86571C102.144 4.79167 101.275 4.87662 101.096 5.05513ZM119.438 5.76963C119.212 6.34651 117.986 9.458 116.714 12.6849C115.44 15.9117 114.399 18.6203 114.399 18.7034C114.399 18.787 115.286 18.8551 116.37 18.8551C118.032 18.8551 118.423 18.6771 118.859 17.7196C119.311 16.7266 119.664 16.584 121.667 16.584C123.669 16.584 124.022 16.7266 124.475 17.7196C124.911 18.6771 125.301 18.8551 126.963 18.8551C128.047 18.8551 128.934 18.6843 128.934 18.4754C128.934 18.2665 127.723 15.1491 126.243 11.5484L123.551 5.00108L121.699 4.86117C120.12 4.74216 119.787 4.87571 119.438 5.76963ZM132.564 5.79598C129.997 7.54296 129.176 9.04464 129.176 11.9967C129.176 14.1956 129.391 14.912 130.478 16.3369C132.148 18.5254 134.382 19.4688 137.245 19.194C140.957 18.837 143.456 16.2969 143.82 12.5104L144.043 10.1861L140.279 10.3188L136.514 10.4519L136.471 11.9281C136.431 13.339 136.505 13.4044 138.133 13.4044C140.065 13.4044 140.301 13.9358 138.826 14.9683C137.335 16.013 135.423 15.8468 134.138 14.5604C131.871 12.2947 133.389 8.40781 136.54 8.40781C137.439 8.40781 138.548 8.74621 139.005 9.15956C139.8 9.87861 139.836 9.81093 139.836 7.61836C139.836 4.99381 139.557 4.77396 136.232 4.77396C134.733 4.77396 133.602 5.08874 132.564 5.79598ZM146.044 5.07693C145.877 5.24318 145.741 8.41145 145.741 12.1175V18.8551H147.785H149.829V16.8111C149.829 15.289 150.004 14.7671 150.516 14.7671C150.894 14.7671 151.65 15.6869 152.196 16.8111C153.172 18.8193 153.229 18.8551 155.408 18.8551C156.628 18.8551 157.554 18.7016 157.465 18.5145C157.376 18.3269 156.817 17.2231 156.223 16.0616L155.143 13.949L156.12 12.7071C158.075 10.2211 157.089 6.6563 154.099 5.40716C152.563 4.76533 146.6 4.52095 146.044 5.07693ZM159.671 5.07693C159.504 5.24318 159.368 8.41145 159.368 12.1175V18.8551H163.91H168.452V17.2653V15.6755H165.954C163.592 15.6755 163.456 15.6137 163.456 14.5399C163.456 13.4802 163.607 13.4044 165.727 13.4044H167.998V11.8145V10.2247H165.727C163.759 10.2247 163.456 10.1035 163.456 9.31627C163.456 8.51774 163.759 8.40781 165.954 8.40781H168.452V6.59089V4.77396H164.213C161.881 4.77396 159.837 4.91023 159.671 5.07693ZM171.027 5.07693C170.86 5.24318 170.724 8.41145 170.724 12.1175V18.8551L175.38 18.8547L180.035 18.8538L180.089 17.2649L180.144 15.6755H177.478C174.937 15.6755 174.812 15.6224 174.812 14.5399C174.812 13.4802 174.963 13.4044 177.083 13.4044H179.354V11.8145V10.2247H177.083C175.115 10.2247 174.812 10.1035 174.812 9.31627C174.812 8.51774 175.115 8.40781 177.31 8.40781H179.808V6.59089V4.77396H175.569C173.237 4.77396 171.193 4.91023 171.027 5.07693ZM182.382 5.07693C182.216 5.24318 182.079 8.41145 182.079 12.1175V18.8551H184.104H186.129L186.262 15.4112L186.395 11.9672L188.893 15.3984C191.229 18.6067 191.502 18.8306 193.095 18.8424L194.798 18.8551V11.8145V4.77396H192.999H191.201L191.069 8.50638L190.937 12.2388L188.252 8.50638C185.86 5.18095 185.41 4.77396 184.126 4.77396C183.334 4.77396 182.549 4.91023 182.382 5.07693ZM207.094 5.55887C204.75 6.77031 203.74 8.45051 203.544 11.468C203.324 14.8288 204.37 16.8497 207.068 18.276C209.48 19.5519 211.663 19.5887 214.073 18.3941C216.573 17.1554 217.634 15.5497 217.876 12.6413L218.076 10.2247H214.386H210.696V11.8145C210.696 13.3285 210.772 13.4044 212.286 13.4044C214.112 13.4044 214.316 13.9531 212.866 14.9683C210.858 16.375 208.369 15.6551 207.599 13.4448C207.064 11.9131 207.334 10.3569 208.332 9.20272C209.222 8.17479 211.945 8.16434 213.072 9.18409C213.904 9.93676 213.926 9.88588 213.789 7.48072L213.649 5.00108L211.15 4.87752C209.446 4.79349 208.157 5.00971 207.094 5.55887ZM220.235 11.7591V18.8551H222.052H223.869V16.8111C223.869 15.1454 224.02 14.7671 224.687 14.7671C225.206 14.7671 225.867 15.5129 226.498 16.8111C227.475 18.8224 227.526 18.8551 229.728 18.8551H231.965L230.683 16.5104L229.401 14.1657L230.372 12.8525C231.875 10.8193 231.686 8.29289 229.895 6.50276C228.523 5.13053 228.235 5.04514 224.342 4.85935L220.235 4.66267V11.7591ZM236.595 5.61474C233.975 7.01968 233.18 8.49684 233.18 11.9613C233.18 15.5438 234.002 16.986 236.844 18.3941C240.916 20.4122 245.5 18.9864 247.426 15.1023C248.289 13.3617 248.439 12.5418 248.193 10.9029C247.857 8.65991 246.297 6.48323 244.278 5.43895C242.463 4.50051 238.504 4.59136 236.595 5.61474ZM250.214 10.2052V15.6887L251.719 17.3303C252.975 18.7007 253.594 19.0041 255.466 19.1658C258.324 19.4129 260.593 18.306 261.691 16.1297C262.334 14.8538 262.469 13.5988 262.372 9.77051L262.251 5.00108L260.321 4.86163L258.39 4.72172V9.31991C258.39 14.3837 257.983 15.6755 256.386 15.6755C254.677 15.6755 254.344 14.768 254.205 9.74416L254.075 5.00108L252.145 4.86163L250.214 4.72172V10.2052ZM265.053 5.07693C264.886 5.24318 264.75 8.41145 264.75 12.1175V18.8551H266.794H268.838V17.0382C268.838 15.318 268.911 15.2213 270.215 15.2213C273.503 15.2213 276.105 12.9138 276.105 9.99762C276.105 8.11256 274.814 6.11985 273.137 5.41942C271.579 4.76851 265.613 4.5155 265.053 5.07693ZM94.8125 9.21453C95.4665 10.4364 94.6003 11.5874 93.0273 11.5874C91.7986 11.5874 91.6873 11.4553 91.6873 9.99762C91.6873 8.53818 91.7977 8.40781 93.0341 8.40781C93.859 8.40781 94.5481 8.72032 94.8125 9.21453ZM152.935 9.71918C153.106 10.9279 152.387 11.5702 150.851 11.5806C149.981 11.5865 149.829 11.3467 149.829 9.96901C149.829 8.41644 149.889 8.35603 151.305 8.49275C152.465 8.60449 152.814 8.86749 152.935 9.71918ZM227.23 9.45663C227.63 10.1144 227.549 10.4119 226.824 10.9497C225.337 12.0544 224.118 11.5888 223.951 9.85318C223.812 8.40372 223.863 8.35103 225.268 8.49048C226.072 8.56997 226.955 9.00467 227.23 9.45663ZM243.409 9.65695C245.277 12.0321 243.629 15.6755 240.686 15.6755C238.615 15.6755 237.041 14.0925 237.041 12.0085C237.041 9.63424 238.268 8.40781 240.642 8.40781C242.048 8.40781 242.635 8.67308 243.409 9.65695ZM271.79 9.99762C271.79 11.2032 271.62 11.3767 270.314 11.5025C268.894 11.6397 268.838 11.5824 268.838 9.99762C268.838 8.41281 268.894 8.35558 270.314 8.49275C271.62 8.61858 271.79 8.79209 271.79 9.99762ZM69.6312 12.8366C69.9097 13.7428 69.7875 13.8586 68.552 13.8586C67.0058 13.8586 66.874 13.448 67.6798 11.1364L68.2013 9.64105L68.7591 10.728C69.0657 11.3253 69.4581 12.2742 69.6312 12.8366ZM122.503 11.5266C123.21 13.8854 123.219 13.8586 121.667 13.8586C120.917 13.8586 120.304 13.7291 120.304 13.5706C120.304 12.8093 121.394 9.77051 121.667 9.77051C121.837 9.77051 122.214 10.5609 122.503 11.5266Z" fill="white"/>
</svg>
