<!--?xml version="1.0" encoding="UTF-8"?-->
<svg width="1180px" height="348px" viewBox="0 0 1180 348" version="1.1" xmlns="http://www.w3.org/2000/svg" xmlns:xlink="http://www.w3.org/1999/xlink" style="">
    <title>main-img</title>
    <g id="Page-1" stroke="none" stroke-width="1" fill="none" fill-rule="evenodd">
        <g id="main-img" transform="translate(59.241895, 8.000000)">
            <path d="M92.151616,286.9 C138.900393,282.966667 177.367556,281 207.553105,281 C237.738655,281 309.140321,282.666667 421.758105,286 L92.151616,286.9 Z" id="Path-3" stroke="#BFD6C9" stroke-width="100" class="VqrCsrlo_0"></path>
            <g id="Group" transform="translate(353.864694, 0.000000)" stroke="#000000" stroke-linecap="round">
                <path d="M21.8934117,71.5147984 C46.4950447,64.1344689 61.7756447,59.0612771 67.7352117,56.2952232 C76.6745622,52.1461424 80.0679557,33.1643336 65.0355378,35.1442812 C50.0031199,37.1242289 26.7006356,77.2164771 34.1383598,85.1709506 C39.0968425,90.473933 58.6818598,84.2456702 92.8934117,66.4861623" id="Path-7" stroke-width="8" class="VqrCsrlo_1"></path>
                <path id="Path-5" stroke-width="7" d="M104.893412,61L134.893412,56" class="VqrCsrlo_2"></path>
                <path d="M193.563173,34.770479 C209.732679,9.00953785 209.732679,-1.56335656 193.563173,3.05179576 C169.308915,9.97452425 136.165557,66.8667656 148.59388,79.9570158 C156.879429,88.6838493 178.979273,78.6402213 214.893412,49.8261318" id="Path-7" stroke-width="8" class="VqrCsrlo_3"></path>
                <path d="M225.648598,77.5513636 C234.271078,68.6530174 239.21756,61.6917759 240.488042,56.6676393 C242.393767,49.1314344 237.496926,41 227.551463,41 C217.606001,41 198.783293,73.7510284 208.69192,81.4158696 C215.297672,86.5257638 224.480678,79.2735038 236.240941,59.6590896" id="Path-8" stroke-width="7" class="VqrCsrlo_4"></path>
                <path d="M259.701599,41.637021 C245.899285,63.645521 240.120129,75.3721595 242.364131,76.8169364 C245.730135,78.9841017 268.426295,52.4188029 273.727764,50.6676185 C279.029234,48.9164341 269.102393,70.8180558 283.729773,65.2806445 C298.357152,59.7432332 318.405722,30.6457848 324.841086,33.1527833 C329.131329,34.8241156 320.303351,54.4398545 298.357152,92" id="Path-9" stroke-width="7" class="VqrCsrlo_5"></path>
                <path d="M345.093156,41.6065983 C330.355865,70.4863872 324.102583,85.6491065 326.333311,87.0947561 C329.679403,89.2632306 353.76624,52.3948931 359.036349,50.6426509 C364.306459,48.8904087 354.601011,80.2104596 369.141862,74.6697033 C383.682713,69.128947 403.450016,30.6087227 409.847311,33.1172355 C414.112175,34.7895774 405.336419,54.4171656 383.520042,92" id="Path-9" stroke-width="7" class="VqrCsrlo_6"></path>
                <path d="M405.893412,62.9489416 C426.678176,61.2437874 439.997974,59.0393836 445.852803,56.3357302 C454.635048,52.28025 460.112658,31.422145 445.852803,35.5339374 C431.592949,39.6457298 405.86395,73.4371872 413.170959,81.2122129 C418.042298,86.3955633 437.283116,80.3078062 470.893412,62.9489416" id="Path-7" stroke-width="7" class="VqrCsrlo_7"></path>
                <path d="M487.232714,37 C468.259822,63.9645774 460.854455,77.9530543 465.016614,78.9654307 C468.174844,79.7336178 473.369492,67.5473165 483.239552,57.5289956 C492.880785,47.7429386 507.202724,40.1430272 510.152405,38.9152779 C516.121776,36.4306398 504.8051,54.7869453 505.057186,58.9393846 C505.225244,61.7076775 507.402215,63.6926695 511.588098,64.8943605" id="Path-10" stroke-width="7" class="VqrCsrlo_8"></path>
                <path d="M545.124432,54.4299565 C554.706269,39.1560276 554.706269,32.887249 545.124432,35.6236206 C530.751676,39.728178 504.818969,73.4601774 512.183831,81.2215224 C517.093738,86.3957524 534.663599,80.2797127 564.893412,62.8734035" id="Path-7" stroke-width="7" class="VqrCsrlo_9"></path>
                <path d="M562.958814,64.1949287 C577.740805,60.3679466 588.066017,57.0992617 593.93445,54.3888739 C602.7371,50.3232922 608.227438,29.4132331 593.93445,33.5352673 C579.641463,37.6573015 553.852682,71.5329278 561.176669,79.3273197 C566.059327,84.5235809 584.964908,77.6130169 617.893412,58.5956276" id="Path-7" stroke-width="7" class="VqrCsrlo_10"></path>
            </g>
            <path d="M398.183323,118 C458.724296,106.31299 545.090764,97.0040807 657.282727,90.0732725 C769.47469,83.1424642 876.633149,83.1424642 978.758105,90.0732725" id="Path-5" stroke="#BFD6C9" stroke-width="7" style="mix-blend-mode: multiply;" stroke-linecap="round" class="VqrCsrlo_11"></path>
            <path id="Path" stroke="#A19FA8" stroke-width="3" stroke-linecap="round" d="M72.1411053,278L38.6411053,287" class="VqrCsrlo_12"></path>
            <path id="Path" stroke="#130F26" stroke-width="3" opacity="0.4" stroke-linecap="round" d="M971.141105,277.5L985.436973,265.101482" class="VqrCsrlo_13"></path>
            <path id="Path" stroke="#A19FA8" stroke-width="3" stroke-linecap="round" d="M58.1411053,250L72.1411053,257.5" class="VqrCsrlo_14"></path>
            <path id="Path" stroke="#A19FA8" stroke-width="3" stroke-linecap="round" d="M30.0291438,66.3410763L-7.10542736e-15,83.7048468" class="VqrCsrlo_15"></path>
            <path id="Path" stroke="#A19FA8" stroke-width="3" stroke-linecap="round" d="M9.25924894,42.9186198L24.7233534,46.5395969" class="VqrCsrlo_16"></path>
            <path d="M965.407031,293.398254 C1006.72173,278.343526 1038.04953,258.045125 1059.39043,232.503052 C1080.73133,206.960978 1095.35447,174.301897 1103.25985,134.525808" id="Path-2" stroke="#000000" stroke-width="3" stroke-linecap="round" class="VqrCsrlo_17"></path>
            <path id="Path-4" stroke="#000000" stroke-width="3" stroke-linecap="round" transform="translate(1100.744408, 140.468588) rotate(-3.000000) translate(-1100.744408, -140.468588) " d="M1111.44167,146.271576L1103.56742,134.6656L1090.04715,140.920239" class="VqrCsrlo_18"></path>
        </g>
        <path d="M148.6,101.8 C153.333333,101.8 157.775,101.175 161.925,99.925 C166.075,98.675 169.983333,96.7 173.65,94 L173.65,94 L173.65,64.75 L149.65,64.75 L149.65,72.35 C149.65,73.05 149.891667,73.6416667 150.375,74.125 C150.858333,74.6083333 151.533333,74.85 152.4,74.85 L152.4,74.85 L161.5,74.85 L161.5,87.95 C159.5,88.9166667 157.45,89.6833333 155.35,90.25 C153.25,90.8166667 150.866667,91.1 148.2,91.1 C144.466667,91.1 141.083333,90.5083333 138.05,89.325 C135.016667,88.1416667 132.425,86.425 130.275,84.175 C128.125,81.925 126.458333,79.175 125.275,75.925 C124.091667,72.675 123.5,68.9833333 123.5,64.85 C123.5,60.9833333 124.05,57.4833333 125.15,54.35 C126.25,51.2166667 127.816667,48.5333333 129.85,46.3 C131.883333,44.0666667 134.341667,42.35 137.225,41.15 C140.108333,39.95 143.333333,39.35 146.9,39.35 C149.1,39.35 151.041667,39.5 152.725,39.8 C154.408333,40.1 155.925,40.4833333 157.275,40.95 C158.625,41.4166667 159.85,41.9666667 160.95,42.6 L160.95,42.6 L164.25,44.5 C165.383333,45.2 166.433333,45.4416667 167.4,45.225 C168.366667,45.0083333 169.15,44.4166667 169.75,43.45 L169.75,43.45 L173.6,37.35 C172.1,35.95 170.45,34.6666667 168.65,33.5 C166.85,32.3333333 164.858333,31.3416667 162.675,30.525 C160.491667,29.7083333 158.125,29.0666667 155.575,28.6 C153.025,28.1333333 150.283333,27.9 147.35,27.9 C141.583333,27.9 136.383333,28.8 131.75,30.6 C127.116667,32.4 123.175,34.9333333 119.925,38.2 C116.675,41.4666667 114.166667,45.3666667 112.4,49.9 C110.633333,54.4333333 109.75,59.4166667 109.75,64.85 C109.75,70.2166667 110.666667,75.1666667 112.5,79.7 C114.333333,84.2333333 116.941667,88.1333333 120.325,91.4 C123.708333,94.6666667 127.791667,97.2166667 132.575,99.05 C137.358333,100.883333 142.7,101.8 148.6,101.8 Z M197.2,101 L197.2,26.7 L184.85,26.7 L184.85,101 L197.2,101 Z M232.25,101.75 C236.05,101.75 239.508333,101.133333 242.625,99.9 C245.741667,98.6666667 248.408333,96.9 250.625,94.6 C252.841667,92.3 254.55,89.5166667 255.75,86.25 C256.95,82.9833333 257.55,79.3166667 257.55,75.25 C257.55,71.2166667 256.95,67.5666667 255.75,64.3 C254.55,61.0333333 252.841667,58.2666667 250.625,56 C248.408333,53.7333333 245.741667,51.9833333 242.625,50.75 C239.508333,49.5166667 236.05,48.9 232.25,48.9 C228.416667,48.9 224.933333,49.5166667 221.8,50.75 C218.666667,51.9833333 215.991667,53.7333333 213.775,56 C211.558333,58.2666667 209.841667,61.0333333 208.625,64.3 C207.408333,67.5666667 206.8,71.2166667 206.8,75.25 C206.8,79.3166667 207.408333,82.9833333 208.625,86.25 C209.841667,89.5166667 211.558333,92.3 213.775,94.6 C215.991667,96.9 218.666667,98.6666667 221.8,99.9 C224.933333,101.133333 228.416667,101.75 232.25,101.75 Z M232.25,92.25 C227.916667,92.25 224.708333,90.8083333 222.625,87.925 C220.541667,85.0416667 219.5,80.85 219.5,75.35 C219.5,69.85 220.541667,65.6416667 222.625,62.725 C224.708333,59.8083333 227.916667,58.35 232.25,58.35 C236.516667,58.35 239.675,59.8 241.725,62.7 C243.775,65.6 244.8,69.8166667 244.8,75.35 C244.8,80.8833333 243.775,85.0833333 241.725,87.95 C239.675,90.8166667 236.516667,92.25 232.25,92.25 Z M292.3,101.75 C295.6,101.75 298.6,101.083333 301.3,99.75 C304,98.4166667 306.308333,96.5416667 308.225,94.125 C310.141667,91.7083333 311.616667,88.8 312.65,85.4 C313.683333,82 314.2,78.2166667 314.2,74.05 C314.2,70.1833333 313.75,66.7 312.85,63.6 C311.95,60.5 310.658333,57.8583333 308.975,55.675 C307.291667,53.4916667 305.258333,51.8166667 302.875,50.65 C300.491667,49.4833333 297.816667,48.9 294.85,48.9 C291.616667,48.9 288.741667,49.5416667 286.225,50.825 C283.708333,52.1083333 281.416667,53.8333333 279.35,56 L279.35,56 L279.35,26.7 L267,26.7 L267,101 L275.15,101 C275.983333,101 276.641667,100.816667 277.125,100.45 C277.608333,100.083333 277.95,99.4666667 278.15,98.6 L278.15,98.6 L278.7,95.15 C279.533333,96.15 280.408333,97.0583333 281.325,97.875 C282.241667,98.6916667 283.25,99.3833333 284.35,99.95 C285.45,100.516667 286.65,100.958333 287.95,101.275 C289.25,101.591667 290.7,101.75 292.3,101.75 Z M289.15,92.35 C287.316667,92.35 285.575,92 283.925,91.3 C282.275,90.6 280.75,89.4 279.35,87.7 L279.35,87.7 L279.35,64.7 C280.95,62.7333333 282.633333,61.2083333 284.4,60.125 C286.166667,59.0416667 288.233333,58.5 290.6,58.5 C294.1,58.5 296.783333,59.7583333 298.65,62.275 C300.516667,64.7916667 301.45,68.8666667 301.45,74.5 C301.45,77.6333333 301.166667,80.325 300.6,82.575 C300.033333,84.825 299.216667,86.675 298.15,88.125 C297.083333,89.575 295.791667,90.6416667 294.275,91.325 C292.758333,92.0083333 291.05,92.35 289.15,92.35 Z M335.05,101.8 C336.883333,101.8 338.558333,101.641667 340.075,101.325 C341.591667,101.008333 343.016667,100.55 344.35,99.95 C345.683333,99.35 346.966667,98.6083333 348.2,97.725 C349.433333,96.8416667 350.7,95.8166667 352,94.65 L352,94.65 L353.1,98.35 C353.466667,99.4166667 353.966667,100.125 354.6,100.475 C355.233333,100.825 356.133333,101 357.3,101 L357.3,101 L362.9,101 L362.9,68.6 C362.9,65.7 362.475,63.0333333 361.625,60.6 C360.775,58.1666667 359.533333,56.075 357.9,54.325 C356.266667,52.575 354.266667,51.2083333 351.9,50.225 C349.533333,49.2416667 346.85,48.75 343.85,48.75 C335.55,48.75 328.45,51.45 322.55,56.85 L322.55,56.85 L324.75,60.8 C325.116667,61.4 325.6,61.925 326.2,62.375 C326.8,62.825 327.533333,63.05 328.4,63.05 C329.4,63.05 330.308333,62.8166667 331.125,62.35 C331.941667,61.8833333 332.85,61.3583333 333.85,60.775 C334.85,60.1916667 336.008333,59.6666667 337.325,59.2 C338.641667,58.7333333 340.3,58.5 342.3,58.5 C345.066667,58.5 347.183333,59.325 348.65,60.975 C350.116667,62.625 350.85,65.1666667 350.85,68.6 L350.85,68.6 L350.85,71.6 C346.95,71.7 343.483333,71.9916667 340.45,72.475 C337.416667,72.9583333 334.758333,73.5833333 332.475,74.35 C330.191667,75.1166667 328.266667,76.0166667 326.7,77.05 C325.133333,78.0833333 323.858333,79.1833333 322.875,80.35 C321.891667,81.5166667 321.183333,82.7416667 320.75,84.025 C320.316667,85.3083333 320.1,86.6 320.1,87.9 C320.1,90.2 320.466667,92.2166667 321.2,93.95 C321.933333,95.6833333 322.966667,97.1333333 324.3,98.3 C325.633333,99.4666667 327.216667,100.341667 329.05,100.925 C330.883333,101.508333 332.883333,101.8 335.05,101.8 Z M338.85,93.3 C336.783333,93.3 335.108333,92.8333333 333.825,91.9 C332.541667,90.9666667 331.9,89.4166667 331.9,87.25 C331.9,86.15 332.216667,85.1333333 332.85,84.2 C333.483333,83.2666667 334.533333,82.45 336,81.75 C337.466667,81.05 339.416667,80.475 341.85,80.025 C344.283333,79.575 347.283333,79.2666667 350.85,79.1 L350.85,79.1 L350.85,87.75 C349.083333,89.6166667 347.275,91.0083333 345.425,91.925 C343.575,92.8416667 341.383333,93.3 338.85,93.3 Z M387,101 L387,26.7 L374.65,26.7 L374.65,101 L387,101 Z" id="Global" fill="#000000" fill-rule="nonzero" class="VqrCsrlo_19"></path>
        <path d="M393.830078,206 L394.513672,203.753906 L392.951172,203.753906 C390.965495,203.753906 389.337891,203.371419 388.068359,202.606445 C386.798828,201.841471 386.164062,200.677734 386.164062,199.115234 C386.164062,198.399089 386.636068,196.46224 387.580078,193.304688 L387.580078,193.304688 L393.390625,173.871094 L398.175781,173.871094 C410.903646,173.871094 419.310221,171.974935 423.395508,168.182617 C427.480794,164.390299 429.523438,160.150391 429.523438,155.462891 C429.523438,152.923828 428.847982,150.514974 427.49707,148.236328 C426.146159,145.957682 424.217448,144.11849 421.710938,142.71875 C419.204427,141.31901 416.738607,140.480794 414.313477,140.204102 C411.888346,139.927409 408.201823,139.789062 403.253906,139.789062 L384.845703,139.789062 L384.162109,142.035156 L386.408203,142.035156 C390.639974,142.035156 392.755859,143.190755 392.755859,145.501953 C392.755859,146.348307 392.251302,148.399089 391.242188,151.654297 L391.242188,151.654297 L378.449219,193.792969 C377.472656,197.048177 376.732096,199.164062 376.227539,200.140625 C375.722982,201.117188 374.770833,201.963542 373.371094,202.679688 C371.971354,203.395833 370.246094,203.753906 368.195312,203.753906 L368.195312,203.753906 L367.511719,206 L393.830078,206 Z M396.90625,171.625 L394.025391,171.625 L403.009766,142.035156 L405.353516,142.035156 C408.999349,142.035156 411.741862,142.263021 413.581055,142.71875 C415.420247,143.174479 417.015299,144.36263 418.366211,146.283203 C419.717122,148.203776 420.392578,150.645182 420.392578,153.607422 C420.392578,157.448568 419.261393,160.972331 416.999023,164.178711 C414.736654,167.385091 412.051107,169.427734 408.942383,170.306641 C405.833659,171.185547 401.821615,171.625 396.90625,171.625 L396.90625,171.625 Z M433.453125,207.367188 C438.661458,207.367188 442.925781,203.005208 446.246094,194.28125 L446.246094,194.28125 L444.097656,194.28125 C442.567708,197.992188 440.972656,200.61263 439.3125,202.142578 C437.652344,203.672526 436.26888,204.4375 435.162109,204.4375 C434.413411,204.4375 433.851888,204.193359 433.477539,203.705078 C433.10319,203.216797 432.916016,202.484375 432.916016,201.507812 C432.916016,200.042969 433.388021,197.894531 434.332031,195.0625 C435.048177,192.914062 435.520182,191.432943 435.748047,190.619141 L435.748047,190.619141 L451.470703,138.861328 L450.25,138.861328 C447.710938,139.935547 443.755859,140.521484 438.384766,140.619141 L438.384766,140.619141 L437.75,142.669922 L439.654297,142.669922 C441.412109,142.669922 442.510742,142.832682 442.950195,143.158203 C443.389648,143.483724 443.609375,144.037109 443.609375,144.818359 C443.609375,145.339193 443.121094,147.194661 442.144531,150.384766 L442.144531,150.384766 L430.71875,188.080078 C428.602865,195.013672 427.544922,199.359375 427.544922,201.117188 C427.544922,202.907552 428.082031,204.39681 429.15625,205.584961 C430.230469,206.773112 431.66276,207.367188 433.453125,207.367188 Z M476.933594,207.367188 C478.919271,207.367188 481.092122,206.170898 483.452148,203.77832 C485.812174,201.385742 487.626953,198.724609 488.896484,195.794922 L488.896484,195.794922 L486.845703,195.794922 C483.916016,200.938151 481.328125,203.509766 479.082031,203.509766 C478.496094,203.509766 478.056641,203.338867 477.763672,202.99707 C477.470703,202.655273 477.324219,202.158854 477.324219,201.507812 C477.324219,200.628906 477.958984,198.122396 479.228516,193.988281 L479.228516,193.988281 L487.919922,165.375 L482.060547,165.375 L480.839844,169.525391 C480.514323,167.897786 479.855143,166.677083 478.862305,165.863281 C477.869466,165.049479 476.526693,164.642578 474.833984,164.642578 C471.936849,164.642578 468.445638,166.335286 464.360352,169.720703 C460.275065,173.10612 456.962891,177.329753 454.423828,182.391602 C451.884766,187.453451 450.615234,192.197917 450.615234,196.625 C450.615234,199.91276 451.437174,202.525065 453.081055,204.461914 C454.724935,206.398763 456.686198,207.367188 458.964844,207.367188 C461.40625,207.367188 464.018555,206.138346 466.801758,203.680664 C469.584961,201.222982 471.708984,198.740885 473.173828,196.234375 C472.522786,198.382812 472.197266,200.124349 472.197266,201.458984 C472.197266,203.119141 472.604167,204.51888 473.417969,205.658203 C474.231771,206.797526 475.403646,207.367188 476.933594,207.367188 Z M460.429688,204.583984 C459.127604,204.583984 458.151042,204.038737 457.5,202.948242 C456.848958,201.857747 456.523438,200.238281 456.523438,198.089844 C456.523438,193.141927 458.655599,186.745443 462.919922,178.900391 C467.184245,171.055339 471.302083,167.132812 475.273438,167.132812 C476.575521,167.132812 477.576497,167.612956 478.276367,168.573242 C478.976237,169.533529 479.326172,170.697266 479.326172,172.064453 C479.326172,174.408203 478.219401,178.835286 476.005859,185.345703 C473.792318,191.85612 471.180013,196.690104 468.168945,199.847656 C465.157878,203.005208 462.578125,204.583984 460.429688,204.583984 Z M500.345703,207.367188 C502.461589,207.367188 504.797201,206.089518 507.352539,203.53418 C509.907878,200.978841 512.178385,197.276042 514.164062,192.425781 L514.164062,192.425781 L512.015625,192.425781 C510.518229,195.778646 508.825521,198.561849 506.9375,200.775391 C505.049479,202.988932 503.519531,204.095703 502.347656,204.095703 C501.696615,204.095703 501.200195,203.892253 500.858398,203.485352 C500.516602,203.078451 500.345703,202.484375 500.345703,201.703125 C500.345703,200.563802 501.419922,196.494792 503.568359,189.496094 L503.568359,189.496094 L510.013672,168.158203 L517.337891,168.158203 L518.021484,166.009766 L510.697266,166.009766 L515.189453,151.214844 L509.330078,151.214844 L504.837891,166.009766 L498.148438,166.009766 L497.464844,168.158203 L504.203125,168.158203 L497.904297,188.958984 C495.886068,195.567057 494.876953,199.636068 494.876953,201.166016 C494.876953,202.95638 495.373372,204.4375 496.366211,205.609375 C497.359049,206.78125 498.685547,207.367188 500.345703,207.367188 Z M503.982422,229.388672 C508.897786,229.388672 513.40625,227.17513 517.507812,222.748047 C521.609375,218.320964 525.385417,209.645833 528.835938,196.722656 L528.835938,196.722656 L536.404297,168.158203 L544.949219,168.158203 L545.583984,166.009766 L537.087891,166.009766 L538.503906,160.785156 C540.945312,151.768229 543.17513,146.242513 545.193359,144.208008 C547.211589,142.173503 549.327474,141.15625 551.541016,141.15625 C553.005859,141.15625 554.259115,141.970052 555.300781,143.597656 C556.765625,145.84375 558.149089,146.966797 559.451172,146.966797 C561.078776,146.966797 561.892578,146.104167 561.892578,144.378906 C561.892578,143.174479 561.152018,141.953776 559.670898,140.716797 C558.189779,139.479818 556.049479,138.861328 553.25,138.861328 C543.419271,138.861328 536.306641,146.966797 531.912109,163.177734 C531.488932,164.67513 531.228516,165.619141 531.130859,166.009766 L531.130859,166.009766 L521.462891,166.009766 L520.828125,168.158203 L530.447266,168.158203 L522.976562,195.941406 C519.591146,208.473958 516.563802,216.823568 513.894531,220.990234 C511.22526,225.156901 507.9375,227.240234 504.03125,227.240234 C502.924479,227.240234 501.980469,226.979818 501.199219,226.458984 C500.417969,225.938151 500.027344,225.36849 500.027344,224.75 L500.027344,224.75 L500.125,223.919922 C500.222656,223.333984 500.271484,222.927083 500.271484,222.699219 C500.271484,221.820312 499.945964,220.998372 499.294922,220.233398 C498.64388,219.468424 497.78125,219.085938 496.707031,219.085938 C495.795573,219.085938 494.998047,219.427734 494.314453,220.111328 C493.630859,220.794922 493.289062,221.673828 493.289062,222.748047 C493.289062,224.636068 494.387695,226.214844 496.584961,227.484375 C498.782227,228.753906 501.248047,229.388672 503.982422,229.388672 Z M554.005859,207.123047 C557.033203,207.123047 560.117513,205.910482 563.258789,203.485352 C566.400065,201.060221 569.01237,197.56901 571.095703,193.011719 C573.179036,188.454427 574.220703,183.636719 574.220703,178.558594 C574.220703,174.359375 573.284831,171.030924 571.413086,168.573242 C569.541341,166.11556 567.156901,164.886719 564.259766,164.886719 C561.069661,164.886719 557.781901,166.31901 554.396484,169.183594 C551.011068,172.048177 548.406901,175.783529 546.583984,180.389648 C544.761068,184.995768 543.849609,189.251953 543.849609,193.158203 C543.849609,198.301432 544.866862,201.914714 546.901367,203.998047 C548.935872,206.08138 551.304036,207.123047 554.005859,207.123047 Z M554.201172,205.121094 C552.60612,205.121094 551.352865,204.502604 550.441406,203.265625 C549.529948,202.028646 549.074219,200.53125 549.074219,198.773438 C549.074219,192.946615 550.547201,186.200195 553.493164,178.53418 C556.439128,170.868164 559.946615,167.035156 564.015625,167.035156 C565.740885,167.035156 567.034831,167.59668 567.897461,168.719727 C568.760091,169.842773 569.191406,171.527344 569.191406,173.773438 C569.191406,178.135417 567.783529,184.450521 564.967773,192.71875 C562.152018,200.986979 558.563151,205.121094 554.201172,205.121094 Z M587.427734,206.732422 L588.501953,203.216797 C590.585286,196.315755 593.319661,188.950846 596.705078,181.12207 C600.090495,173.293294 602.597005,169.378906 604.224609,169.378906 C604.582682,169.378906 604.940755,169.590495 605.298828,170.013672 C606.210286,171.087891 607.105469,171.625 607.984375,171.625 C608.765625,171.625 609.441081,171.315755 610.010742,170.697266 C610.580404,170.078776 610.865234,169.28125 610.865234,168.304688 C610.865234,167.295573 610.523438,166.432943 609.839844,165.716797 C609.15625,165.000651 608.244792,164.642578 607.105469,164.642578 C605.282552,164.642578 603.459635,165.847005 601.636719,168.255859 C599.813802,170.664714 597.697917,174.58724 595.289062,180.023438 C594.410156,182.041667 593.873047,183.213542 593.677734,183.539062 C595.142578,178.298177 595.875,174.261719 595.875,171.429688 C595.875,169.151042 595.533203,167.450195 594.849609,166.327148 C594.166016,165.204102 593.124349,164.642578 591.724609,164.642578 C589.70638,164.642578 587.663737,165.928385 585.59668,168.5 C583.529622,171.071615 581.8125,174.180339 580.445312,177.826172 L580.445312,177.826172 L582.59375,177.826172 C583.277344,175.905599 584.424805,173.789714 586.036133,171.478516 C587.647461,169.167318 588.990234,168.011719 590.064453,168.011719 C590.552734,168.011719 590.918945,168.239583 591.163086,168.695312 C591.407227,169.151042 591.529297,169.850911 591.529297,170.794922 C591.529297,172.552734 590.796875,175.905599 589.332031,180.853516 L589.332031,180.853516 L581.568359,206.732422 L587.427734,206.732422 Z M663.818359,207.367188 C665.934245,207.367188 668.107096,206.358073 670.336914,204.339844 C672.566732,202.321615 674.38151,199.798828 675.78125,196.771484 L675.78125,196.771484 L673.681641,196.771484 C672.184245,199.310547 670.768229,201.214844 669.433594,202.484375 C668.098958,203.753906 666.861979,204.388672 665.722656,204.388672 C665.136719,204.388672 664.689128,204.201497 664.379883,203.827148 C664.070638,203.452799 663.916016,202.907552 663.916016,202.191406 C663.916016,201.14974 664.697266,198.399089 666.259766,193.939453 L666.259766,193.939453 L670.068359,182.953125 C671.435547,178.851562 672.224935,176.369466 672.436523,175.506836 C672.648112,174.644206 672.753906,173.545573 672.753906,172.210938 C672.753906,170.0625 672.119141,168.361654 670.849609,167.108398 C669.580078,165.855143 668.001302,165.228516 666.113281,165.228516 C663.606771,165.228516 660.807292,166.514323 657.714844,169.085938 C654.622396,171.657552 651.692708,175.775391 648.925781,181.439453 C650.260417,177.663411 650.927734,174.440755 650.927734,171.771484 C650.927734,169.590495 650.463867,167.954753 649.536133,166.864258 C648.608398,165.773763 647.200521,165.228516 645.3125,165.228516 C642.675781,165.228516 639.729818,166.888672 636.474609,170.208984 C633.219401,173.529297 630.501302,177.484375 628.320312,182.074219 C630.30599,176.410156 631.298828,172.389974 631.298828,170.013672 C631.298828,168.58138 630.932617,167.442057 630.200195,166.595703 C629.467773,165.749349 628.466797,165.326172 627.197266,165.326172 C625.439453,165.326172 623.421224,166.392253 621.142578,168.524414 C618.863932,170.656576 616.943359,173.366536 615.380859,176.654297 L615.380859,176.654297 L617.578125,176.654297 C618.977865,174.115234 620.385742,172.162109 621.801758,170.794922 C623.217773,169.427734 624.348958,168.744141 625.195312,168.744141 C625.585938,168.744141 625.870768,168.874349 626.049805,169.134766 C626.228841,169.395182 626.318359,169.785807 626.318359,170.306641 C626.318359,171.022786 625.716146,173.382812 624.511719,177.386719 L624.511719,177.386719 L615.576172,206.683594 L621.435547,206.683594 L622.900391,201.898438 C626.741536,189.138021 630.598958,180.357096 634.472656,175.555664 C638.346354,170.754232 641.422526,168.353516 643.701172,168.353516 C644.482422,168.353516 645.060221,168.597656 645.43457,169.085938 C645.808919,169.574219 645.996094,170.306641 645.996094,171.283203 C645.996094,172.878255 645.3125,175.954427 643.945312,180.511719 L643.945312,180.511719 L635.986328,206.683594 L641.796875,206.683594 L643.115234,202.435547 C647.216797,188.861328 651.163737,179.746745 654.956055,175.091797 C658.748372,170.436849 662.044271,168.109375 664.84375,168.109375 C665.722656,168.109375 666.381836,168.37793 666.821289,168.915039 C667.260742,169.452148 667.480469,170.257812 667.480469,171.332031 C667.480469,172.341146 666.796875,174.83138 665.429688,178.802734 L665.429688,178.802734 L660.839844,192.083984 C659.244792,196.738932 658.447266,199.896484 658.447266,201.556641 C658.447266,203.412109 658.992513,204.844401 660.083008,205.853516 C661.173503,206.86263 662.41862,207.367188 663.818359,207.367188 Z M725.828125,147.40625 C727,147.40625 728.000977,146.983073 728.831055,146.136719 C729.661133,145.290365 730.076172,144.28125 730.076172,143.109375 C730.076172,141.9375 729.661133,140.936523 728.831055,140.106445 C728.000977,139.276367 727,138.861328 725.828125,138.861328 C724.65625,138.861328 723.655273,139.276367 722.825195,140.106445 C721.995117,140.936523 721.580078,141.9375 721.580078,143.109375 C721.580078,144.248698 721.986979,145.249674 722.800781,146.112305 C723.614583,146.974935 724.623698,147.40625 725.828125,147.40625 Z M714.451172,207.367188 C716.729818,207.367188 719.097982,206.146484 721.555664,203.705078 C724.013346,201.263672 726.007161,198.464193 727.537109,195.306641 L727.537109,195.306641 L725.193359,195.306641 C721.938151,201.068359 719.10612,203.949219 716.697266,203.949219 C715.98112,203.949219 715.435872,203.713216 715.061523,203.241211 C714.687174,202.769206 714.5,202.061198 714.5,201.117188 C714.5,199.945312 715.36263,197.064453 717.087891,192.474609 L717.087891,192.474609 L721.775391,179.779297 C723.500651,175.189453 724.363281,172.031901 724.363281,170.306641 C724.363281,168.613932 723.875,167.246745 722.898438,166.205078 C721.921875,165.163411 720.66862,164.642578 719.138672,164.642578 C717.152995,164.642578 715.012695,165.667969 712.717773,167.71875 C710.422852,169.769531 708.380208,172.56901 706.589844,176.117188 L706.589844,176.117188 L708.933594,176.117188 C709.64974,174.522135 710.878581,172.739909 712.620117,170.770508 C714.361654,168.801107 715.867188,167.816406 717.136719,167.816406 C717.755208,167.816406 718.219076,167.979167 718.52832,168.304688 C718.837565,168.630208 718.992188,169.11849 718.992188,169.769531 C718.992188,170.518229 718.341146,172.634115 717.039062,176.117188 L717.039062,176.117188 L711.423828,191.009766 C709.600911,195.892578 708.689453,199.196615 708.689453,200.921875 C708.689453,203.03776 709.267253,204.640951 710.422852,205.731445 C711.578451,206.82194 712.921224,207.367188 714.451172,207.367188 Z M758.078125,207.367188 C760.19401,207.367188 762.269206,206.488281 764.303711,204.730469 C766.338216,202.972656 768.332031,200.335938 770.285156,196.820312 L770.285156,196.820312 L767.794922,196.820312 C766.36263,199.294271 765.011719,201.157878 763.742188,202.411133 C762.472656,203.664388 761.284505,204.291016 760.177734,204.291016 C759.591797,204.291016 759.144206,204.136393 758.834961,203.827148 C758.525716,203.517904 758.371094,203.054036 758.371094,202.435547 C758.371094,201.947266 759.070964,199.603516 760.470703,195.404297 L760.470703,195.404297 L765.695312,179.828125 C767.029948,175.824219 767.697266,173.089844 767.697266,171.625 C767.697266,169.346354 767.029948,167.612956 765.695312,166.424805 C764.360677,165.236654 762.798177,164.642578 761.007812,164.642578 C755.441406,164.642578 749.71224,170.518229 743.820312,182.269531 C746.001302,176.410156 747.091797,172.080729 747.091797,169.28125 C747.091797,167.71875 746.774414,166.555013 746.139648,165.790039 C745.504883,165.025065 744.552734,164.642578 743.283203,164.642578 C739.63737,164.642578 735.779948,168.33724 731.710938,175.726562 L731.710938,175.726562 L733.957031,175.726562 C736.59375,170.973958 738.872396,168.597656 740.792969,168.597656 C741.216146,168.597656 741.525391,168.727865 741.720703,168.988281 C741.916016,169.248698 742.013672,169.655599 742.013672,170.208984 C742.013672,170.957682 741.232422,173.88737 739.669922,178.998047 L739.669922,178.998047 L731.076172,206.732422 L737.033203,206.732422 L739.425781,198.919922 C742.290365,189.51237 745.716471,181.90332 749.704102,176.092773 C753.691732,170.282227 756.922526,167.376953 759.396484,167.376953 C760.373047,167.376953 761.097331,167.63737 761.569336,168.158203 C762.041341,168.679036 762.277344,169.476562 762.277344,170.550781 C762.277344,171.755208 761.577474,174.391927 760.177734,178.460938 L760.177734,178.460938 L754.953125,193.353516 C753.455729,197.682943 752.707031,200.580078 752.707031,202.044922 C752.707031,203.802734 753.236003,205.129232 754.293945,206.024414 C755.351888,206.919596 756.613281,207.367188 758.078125,207.367188 Z" id="Platformin" fill="#000000" fill-rule="nonzero" class="VqrCsrlo_20"></path>
        <path d="M182.55,328 L182.55,296.4 L216.5,296.4 L216.5,328 L230,328 L230,255.7 L216.5,255.7 L216.5,286.8 L182.55,286.8 L182.55,255.7 L169.05,255.7 L169.05,328 L182.55,328 Z M266.05,328.75 C267.85,328.75 269.708333,328.616667 271.625,328.35 C273.541667,328.083333 275.425,327.625 277.275,326.975 C279.125,326.325 280.9,325.458333 282.6,324.375 C284.3,323.291667 285.833333,321.95 287.2,320.35 L287.2,320.35 L283.65,315.85 C283.15,315.083333 282.383333,314.7 281.35,314.7 C280.583333,314.7 279.791667,314.933333 278.975,315.4 C278.158333,315.866667 277.208333,316.383333 276.125,316.95 C275.041667,317.516667 273.775,318.033333 272.325,318.5 C270.875,318.966667 269.15,319.2 267.15,319.2 C265.15,319.2 263.325,318.891667 261.675,318.275 C260.025,317.658333 258.6,316.725 257.4,315.475 C256.2,314.225 255.233333,312.641667 254.5,310.725 C253.766667,308.808333 253.3,306.533333 253.1,303.9 L253.1,303.9 L284.85,303.9 C285.983333,303.9 286.75,303.575 287.15,302.925 C287.55,302.275 287.75,301.016667 287.75,299.15 C287.75,295.45 287.191667,292.158333 286.075,289.275 C284.958333,286.391667 283.416667,283.958333 281.45,281.975 C279.483333,279.991667 277.133333,278.483333 274.4,277.45 C271.666667,276.416667 268.683333,275.9 265.45,275.9 C261.616667,275.9 258.175,276.566667 255.125,277.9 C252.075,279.233333 249.491667,281.041667 247.375,283.325 C245.258333,285.608333 243.633333,288.291667 242.5,291.375 C241.366667,294.458333 240.8,297.75 240.8,301.25 C240.8,305.75 241.45,309.708333 242.75,313.125 C244.05,316.541667 245.833333,319.408333 248.1,321.725 C250.366667,324.041667 253.033333,325.791667 256.1,326.975 C259.166667,328.158333 262.483333,328.75 266.05,328.75 Z M276.65,296.45 L253.35,296.45 C253.916667,292.716667 255.225,289.833333 257.275,287.8 C259.325,285.766667 262.133333,284.75 265.7,284.75 C267.533333,284.75 269.141667,285.058333 270.525,285.675 C271.908333,286.291667 273.05,287.133333 273.95,288.2 C274.85,289.266667 275.525,290.508333 275.975,291.925 C276.425,293.341667 276.65,294.85 276.65,296.45 L276.65,296.45 Z M309.3,328.8 C311.133333,328.8 312.808333,328.641667 314.325,328.325 C315.841667,328.008333 317.266667,327.55 318.6,326.95 C319.933333,326.35 321.216667,325.608333 322.45,324.725 C323.683333,323.841667 324.95,322.816667 326.25,321.65 L326.25,321.65 L327.35,325.35 C327.716667,326.416667 328.216667,327.125 328.85,327.475 C329.483333,327.825 330.383333,328 331.55,328 L331.55,328 L337.15,328 L337.15,295.6 C337.15,292.7 336.725,290.033333 335.875,287.6 C335.025,285.166667 333.783333,283.075 332.15,281.325 C330.516667,279.575 328.516667,278.208333 326.15,277.225 C323.783333,276.241667 321.1,275.75 318.1,275.75 C309.8,275.75 302.7,278.45 296.8,283.85 L296.8,283.85 L299,287.8 C299.366667,288.4 299.85,288.925 300.45,289.375 C301.05,289.825 301.783333,290.05 302.65,290.05 C303.65,290.05 304.558333,289.816667 305.375,289.35 C306.191667,288.883333 307.1,288.358333 308.1,287.775 C309.1,287.191667 310.258333,286.666667 311.575,286.2 C312.891667,285.733333 314.55,285.5 316.55,285.5 C319.316667,285.5 321.433333,286.325 322.9,287.975 C324.366667,289.625 325.1,292.166667 325.1,295.6 L325.1,295.6 L325.1,298.6 C321.2,298.7 317.733333,298.991667 314.7,299.475 C311.666667,299.958333 309.008333,300.583333 306.725,301.35 C304.441667,302.116667 302.516667,303.016667 300.95,304.05 C299.383333,305.083333 298.108333,306.183333 297.125,307.35 C296.141667,308.516667 295.433333,309.741667 295,311.025 C294.566667,312.308333 294.35,313.6 294.35,314.9 C294.35,317.2 294.716667,319.216667 295.45,320.95 C296.183333,322.683333 297.216667,324.133333 298.55,325.3 C299.883333,326.466667 301.466667,327.341667 303.3,327.925 C305.133333,328.508333 307.133333,328.8 309.3,328.8 Z M313.1,320.3 C311.033333,320.3 309.358333,319.833333 308.075,318.9 C306.791667,317.966667 306.15,316.416667 306.15,314.25 C306.15,313.15 306.466667,312.133333 307.1,311.2 C307.733333,310.266667 308.783333,309.45 310.25,308.75 C311.716667,308.05 313.666667,307.475 316.1,307.025 C318.533333,306.575 321.533333,306.266667 325.1,306.1 L325.1,306.1 L325.1,314.75 C323.333333,316.616667 321.525,318.008333 319.675,318.925 C317.825,319.841667 315.633333,320.3 313.1,320.3 Z M362.25,328 L362.25,253.7 L349.9,253.7 L349.9,328 L362.25,328 Z M392.7,328.8 C395.2,328.8 397.616667,328.416667 399.95,327.65 C402.283333,326.883333 404.35,325.75 406.15,324.25 L406.15,324.25 L402.45,318.25 C402.183333,317.883333 401.933333,317.608333 401.7,317.425 C401.466667,317.241667 401.166667,317.15 400.8,317.15 C400.5,317.15 400.2,317.241667 399.9,317.425 C399.6,317.608333 399.258333,317.8 398.875,318 C398.491667,318.2 398.041667,318.391667 397.525,318.575 C397.008333,318.758333 396.366667,318.85 395.6,318.85 C394.233333,318.85 393.158333,318.4 392.375,317.5 C391.591667,316.6 391.2,315.35 391.2,313.75 L391.2,313.75 L391.2,285.95 L404.9,285.95 L404.9,277.15 L391.2,277.15 L391.2,261 L384.8,261 C384.066667,261 383.466667,261.183333 383,261.55 C382.533333,261.916667 382.216667,262.433333 382.05,263.1 L382.05,263.1 L379.45,277.1 L371.2,278.45 L371.2,283.35 C371.2,284.216667 371.433333,284.866667 371.9,285.3 C372.366667,285.733333 372.933333,285.95 373.6,285.95 L373.6,285.95 L378.85,285.95 L378.85,314.6 C378.85,319.033333 380.041667,322.508333 382.425,325.025 C384.808333,327.541667 388.233333,328.8 392.7,328.8 Z M426.15,328 L426.15,290.9 C427.816667,289.233333 429.583333,287.916667 431.45,286.95 C433.316667,285.983333 435.316667,285.5 437.45,285.5 C440.383333,285.5 442.566667,286.358333 444,288.075 C445.433333,289.791667 446.15,292.216667 446.15,295.35 L446.15,295.35 L446.15,328 L458.5,328 L458.5,295.35 C458.5,292.483333 458.125,289.858333 457.375,287.475 C456.625,285.091667 455.525,283.041667 454.075,281.325 C452.625,279.608333 450.816667,278.275 448.65,277.325 C446.483333,276.375 444,275.9 441.2,275.9 C437.966667,275.9 435.15,276.483333 432.75,277.65 C430.35,278.816667 428.15,280.333333 426.15,282.2 L426.15,282.2 L426.15,253.7 L413.8,253.7 L413.8,328 L426.15,328 Z" id="Health" fill="#000000" fill-rule="nonzero" class="VqrCsrlo_21"></path>
        <path d="M529,328.8 C533.566667,328.8 537.816667,328.066667 541.75,326.6 C545.683333,325.133333 549.233333,323.1 552.4,320.5 L552.4,320.5 L557.4,325.65 C558.266667,326.616667 559.091667,327.25 559.875,327.55 C560.658333,327.85 561.683333,328 562.95,328 L562.95,328 L575.05,328 L559.9,312.3 C562.2,308.933333 563.966667,305.25 565.2,301.25 C566.433333,297.25 567.066667,293.05 567.1,288.65 L567.1,288.65 L559.4,288.65 C558.633333,288.65 558.033333,288.883333 557.6,289.35 C557.166667,289.816667 556.9,290.433333 556.8,291.2 C556.6,293.6 556.166667,295.966667 555.5,298.3 C554.833333,300.633333 553.95,302.85 552.85,304.95 L552.85,304.95 L533.65,285 C532.55,283.866667 531.625,282.808333 530.875,281.825 C530.125,280.841667 529.516667,279.883333 529.05,278.95 C528.583333,278.016667 528.25,277.083333 528.05,276.15 C527.85,275.216667 527.75,274.25 527.75,273.25 C527.75,272.05 527.95,270.908333 528.35,269.825 C528.75,268.741667 529.325,267.791667 530.075,266.975 C530.825,266.158333 531.75,265.508333 532.85,265.025 C533.95,264.541667 535.2,264.3 536.6,264.3 C537.766667,264.3 538.8,264.475 539.7,264.825 C540.6,265.175 541.383333,265.641667 542.05,266.225 C542.716667,266.808333 543.291667,267.491667 543.775,268.275 C544.258333,269.058333 544.65,269.883333 544.95,270.75 C545.616667,272.316667 546.683333,272.95 548.15,272.65 L548.15,272.65 L556,271 C555.833333,268.933333 555.275,266.933333 554.325,265 C553.375,263.066667 552.075,261.35 550.425,259.85 C548.775,258.35 546.791667,257.15 544.475,256.25 C542.158333,255.35 539.533333,254.9 536.6,254.9 C533.4,254.9 530.533333,255.391667 528,256.375 C525.466667,257.358333 523.333333,258.683333 521.6,260.35 C519.866667,262.016667 518.541667,263.975 517.625,266.225 C516.708333,268.475 516.25,270.85 516.25,273.35 C516.25,275.716667 516.65,278.091667 517.45,280.475 C518.25,282.858333 519.55,285.3 521.35,287.8 C519.216667,288.8 517.25,289.991667 515.45,291.375 C513.65,292.758333 512.1,294.316667 510.8,296.05 C509.5,297.783333 508.483333,299.658333 507.75,301.675 C507.016667,303.691667 506.65,305.833333 506.65,308.1 C506.65,311.3 507.291667,314.175 508.575,316.725 C509.858333,319.275 511.55,321.45 513.65,323.25 C515.75,325.05 518.141667,326.425 520.825,327.375 C523.508333,328.325 526.233333,328.8 529,328.8 Z M531.2,318.95 C529.566667,318.95 528.025,318.675 526.575,318.125 C525.125,317.575 523.858333,316.791667 522.775,315.775 C521.691667,314.758333 520.833333,313.516667 520.2,312.05 C519.566667,310.583333 519.25,308.933333 519.25,307.1 C519.25,304.6 519.858333,302.258333 521.075,300.075 C522.291667,297.891667 524.233333,295.933333 526.9,294.2 L526.9,294.2 L545.85,313.75 C543.883333,315.383333 541.683333,316.658333 539.25,317.575 C536.816667,318.491667 534.133333,318.95 531.2,318.95 Z M636.45,328 L652.4,278.6 C652.633333,277.966667 652.85,277.283333 653.05,276.55 C653.25,275.816667 653.45,275.033333 653.65,274.2 C654.016667,275.933333 654.416667,277.4 654.85,278.6 L654.85,278.6 L670.65,328 L682.8,328 L705.25,255.7 L694.7,255.7 C693.566667,255.7 692.591667,256 691.775,256.6 C690.958333,257.2 690.45,257.916667 690.25,258.75 L690.25,258.75 L677.95,302 C677.416667,304.133333 676.933333,306.516667 676.5,309.15 C675.933333,306.45 675.3,304.066667 674.6,302 L674.6,302 L660.45,258.75 C660.083333,257.85 659.533333,257.116667 658.8,256.55 C658.066667,255.983333 657.116667,255.7 655.95,255.7 L655.95,255.7 L652,255.7 C650.866667,255.7 649.908333,256.016667 649.125,256.65 C648.341667,257.283333 647.816667,257.983333 647.55,258.75 L647.55,258.75 L633.35,302 C632.983333,303.066667 632.641667,304.216667 632.325,305.45 C632.008333,306.683333 631.716667,308 631.45,309.4 C631.183333,308.033333 630.925,306.725 630.675,305.475 C630.425,304.225 630.166667,303.066667 629.9,302 L629.9,302 L617.6,258.75 C617.333333,257.816667 616.808333,257.075 616.025,256.525 C615.241667,255.975 614.266667,255.7 613.1,255.7 L613.1,255.7 L601.85,255.7 L624.25,328 L636.45,328 Z M729.55,328.75 C731.35,328.75 733.208333,328.616667 735.125,328.35 C737.041667,328.083333 738.925,327.625 740.775,326.975 C742.625,326.325 744.4,325.458333 746.1,324.375 C747.8,323.291667 749.333333,321.95 750.7,320.35 L750.7,320.35 L747.15,315.85 C746.65,315.083333 745.883333,314.7 744.85,314.7 C744.083333,314.7 743.291667,314.933333 742.475,315.4 C741.658333,315.866667 740.708333,316.383333 739.625,316.95 C738.541667,317.516667 737.275,318.033333 735.825,318.5 C734.375,318.966667 732.65,319.2 730.65,319.2 C728.65,319.2 726.825,318.891667 725.175,318.275 C723.525,317.658333 722.1,316.725 720.9,315.475 C719.7,314.225 718.733333,312.641667 718,310.725 C717.266667,308.808333 716.8,306.533333 716.6,303.9 L716.6,303.9 L748.35,303.9 C749.483333,303.9 750.25,303.575 750.65,302.925 C751.05,302.275 751.25,301.016667 751.25,299.15 C751.25,295.45 750.691667,292.158333 749.575,289.275 C748.458333,286.391667 746.916667,283.958333 744.95,281.975 C742.983333,279.991667 740.633333,278.483333 737.9,277.45 C735.166667,276.416667 732.183333,275.9 728.95,275.9 C725.116667,275.9 721.675,276.566667 718.625,277.9 C715.575,279.233333 712.991667,281.041667 710.875,283.325 C708.758333,285.608333 707.133333,288.291667 706,291.375 C704.866667,294.458333 704.3,297.75 704.3,301.25 C704.3,305.75 704.95,309.708333 706.25,313.125 C707.55,316.541667 709.333333,319.408333 711.6,321.725 C713.866667,324.041667 716.533333,325.791667 719.6,326.975 C722.666667,328.158333 725.983333,328.75 729.55,328.75 Z M740.15,296.45 L716.85,296.45 C717.416667,292.716667 718.725,289.833333 720.775,287.8 C722.825,285.766667 725.633333,284.75 729.2,284.75 C731.033333,284.75 732.641667,285.058333 734.025,285.675 C735.408333,286.291667 736.55,287.133333 737.45,288.2 C738.35,289.266667 739.025,290.508333 739.475,291.925 C739.925,293.341667 740.15,294.85 740.15,296.45 L740.15,296.45 Z M774,328 L774,253.7 L761.65,253.7 L761.65,328 L774,328 Z M799.85,328 L799.85,253.7 L787.5,253.7 L787.5,328 L799.85,328 Z M825.55,328 L825.55,290.9 C827.216667,289.233333 828.983333,287.916667 830.85,286.95 C832.716667,285.983333 834.716667,285.5 836.85,285.5 C839.783333,285.5 841.966667,286.358333 843.4,288.075 C844.833333,289.791667 845.55,292.216667 845.55,295.35 L845.55,295.35 L845.55,328 L857.9,328 L857.9,295.35 C857.9,292.483333 857.525,289.858333 856.775,287.475 C856.025,285.091667 854.925,283.041667 853.475,281.325 C852.025,279.608333 850.216667,278.275 848.05,277.325 C845.883333,276.375 843.4,275.9 840.6,275.9 C838.866667,275.9 837.266667,276.075 835.8,276.425 C834.333333,276.775 832.958333,277.258333 831.675,277.875 C830.391667,278.491667 829.175,279.241667 828.025,280.125 C826.875,281.008333 825.783333,281.966667 824.75,283 L824.75,283 L823.9,278.95 C823.4,277.45 822.35,276.7 820.75,276.7 L820.75,276.7 L813.2,276.7 L813.2,328 L825.55,328 Z M893.05,328.75 C894.85,328.75 896.708333,328.616667 898.625,328.35 C900.541667,328.083333 902.425,327.625 904.275,326.975 C906.125,326.325 907.9,325.458333 909.6,324.375 C911.3,323.291667 912.833333,321.95 914.2,320.35 L914.2,320.35 L910.65,315.85 C910.15,315.083333 909.383333,314.7 908.35,314.7 C907.583333,314.7 906.791667,314.933333 905.975,315.4 C905.158333,315.866667 904.208333,316.383333 903.125,316.95 C902.041667,317.516667 900.775,318.033333 899.325,318.5 C897.875,318.966667 896.15,319.2 894.15,319.2 C892.15,319.2 890.325,318.891667 888.675,318.275 C887.025,317.658333 885.6,316.725 884.4,315.475 C883.2,314.225 882.233333,312.641667 881.5,310.725 C880.766667,308.808333 880.3,306.533333 880.1,303.9 L880.1,303.9 L911.85,303.9 C912.983333,303.9 913.75,303.575 914.15,302.925 C914.55,302.275 914.75,301.016667 914.75,299.15 C914.75,295.45 914.191667,292.158333 913.075,289.275 C911.958333,286.391667 910.416667,283.958333 908.45,281.975 C906.483333,279.991667 904.133333,278.483333 901.4,277.45 C898.666667,276.416667 895.683333,275.9 892.45,275.9 C888.616667,275.9 885.175,276.566667 882.125,277.9 C879.075,279.233333 876.491667,281.041667 874.375,283.325 C872.258333,285.608333 870.633333,288.291667 869.5,291.375 C868.366667,294.458333 867.8,297.75 867.8,301.25 C867.8,305.75 868.45,309.708333 869.75,313.125 C871.05,316.541667 872.833333,319.408333 875.1,321.725 C877.366667,324.041667 880.033333,325.791667 883.1,326.975 C886.166667,328.158333 889.483333,328.75 893.05,328.75 Z M903.65,296.45 L880.35,296.45 C880.916667,292.716667 882.225,289.833333 884.275,287.8 C886.325,285.766667 889.133333,284.75 892.7,284.75 C894.533333,284.75 896.141667,285.058333 897.525,285.675 C898.908333,286.291667 900.05,287.133333 900.95,288.2 C901.85,289.266667 902.525,290.508333 902.975,291.925 C903.425,293.341667 903.65,294.85 903.65,296.45 L903.65,296.45 Z M939.15,328.8 C942.483333,328.8 945.425,328.375 947.975,327.525 C950.525,326.675 952.666667,325.491667 954.4,323.975 C956.133333,322.458333 957.441667,320.658333 958.325,318.575 C959.208333,316.491667 959.65,314.216667 959.65,311.75 C959.65,309.683333 959.291667,307.916667 958.575,306.45 C957.858333,304.983333 956.908333,303.725 955.725,302.675 C954.541667,301.625 953.2,300.758333 951.7,300.075 C950.2,299.391667 948.675,298.783333 947.125,298.25 C945.575,297.716667 944.05,297.225 942.55,296.775 C941.05,296.325 939.708333,295.816667 938.525,295.25 C937.341667,294.683333 936.391667,294.025 935.675,293.275 C934.958333,292.525 934.6,291.6 934.6,290.5 C934.6,288.833333 935.291667,287.483333 936.675,286.45 C938.058333,285.416667 939.966667,284.9 942.4,284.9 C943.966667,284.9 945.325,285.066667 946.475,285.4 C947.625,285.733333 948.65,286.108333 949.55,286.525 C950.45,286.941667 951.241667,287.316667 951.925,287.65 C952.608333,287.983333 953.25,288.15 953.85,288.15 C954.416667,288.15 954.883333,288.041667 955.25,287.825 C955.616667,287.608333 955.966667,287.233333 956.3,286.7 L956.3,286.7 L959.1,282.25 C957.166667,280.35 954.75,278.816667 951.85,277.65 C948.95,276.483333 945.733333,275.9 942.2,275.9 C939.033333,275.9 936.241667,276.325 933.825,277.175 C931.408333,278.025 929.391667,279.158333 927.775,280.575 C926.158333,281.991667 924.933333,283.65 924.1,285.55 C923.266667,287.45 922.85,289.45 922.85,291.55 C922.85,293.816667 923.208333,295.75 923.925,297.35 C924.641667,298.95 925.591667,300.3 926.775,301.4 C927.958333,302.5 929.308333,303.408333 930.825,304.125 C932.341667,304.841667 933.891667,305.466667 935.475,306 C937.058333,306.533333 938.608333,307.025 940.125,307.475 C941.641667,307.925 942.991667,308.433333 944.175,309 C945.358333,309.566667 946.308333,310.233333 947.025,311 C947.741667,311.766667 948.1,312.75 948.1,313.95 C948.1,314.75 947.941667,315.525 947.625,316.275 C947.308333,317.025 946.808333,317.683333 946.125,318.25 C945.441667,318.816667 944.575,319.275 943.525,319.625 C942.475,319.975 941.216667,320.15 939.75,320.15 C937.883333,320.15 936.341667,319.933333 935.125,319.5 C933.908333,319.066667 932.85,318.6 931.95,318.1 C931.05,317.6 930.258333,317.133333 929.575,316.7 C928.891667,316.266667 928.166667,316.05 927.4,316.05 C926.633333,316.05 926,316.2 925.5,316.5 C925,316.8 924.566667,317.233333 924.2,317.8 L924.2,317.8 L921.35,322.5 C922.35,323.4 923.508333,324.233333 924.825,325 C926.141667,325.766667 927.575,326.433333 929.125,327 C930.675,327.566667 932.291667,328.008333 933.975,328.325 C935.658333,328.641667 937.383333,328.8 939.15,328.8 Z M984.1,328.8 C987.433333,328.8 990.375,328.375 992.925,327.525 C995.475,326.675 997.616667,325.491667 999.35,323.975 C1001.08333,322.458333 1002.39167,320.658333 1003.275,318.575 C1004.15833,316.491667 1004.6,314.216667 1004.6,311.75 C1004.6,309.683333 1004.24167,307.916667 1003.525,306.45 C1002.80833,304.983333 1001.85833,303.725 1000.675,302.675 C999.491667,301.625 998.15,300.758333 996.65,300.075 C995.15,299.391667 993.625,298.783333 992.075,298.25 C990.525,297.716667 989,297.225 987.5,296.775 C986,296.325 984.658333,295.816667 983.475,295.25 C982.291667,294.683333 981.341667,294.025 980.625,293.275 C979.908333,292.525 979.55,291.6 979.55,290.5 C979.55,288.833333 980.241667,287.483333 981.625,286.45 C983.008333,285.416667 984.916667,284.9 987.35,284.9 C988.916667,284.9 990.275,285.066667 991.425,285.4 C992.575,285.733333 993.6,286.108333 994.5,286.525 C995.4,286.941667 996.191667,287.316667 996.875,287.65 C997.558333,287.983333 998.2,288.15 998.8,288.15 C999.366667,288.15 999.833333,288.041667 1000.2,287.825 C1000.56667,287.608333 1000.91667,287.233333 1001.25,286.7 L1001.25,286.7 L1004.05,282.25 C1002.11667,280.35 999.7,278.816667 996.8,277.65 C993.9,276.483333 990.683333,275.9 987.15,275.9 C983.983333,275.9 981.191667,276.325 978.775,277.175 C976.358333,278.025 974.341667,279.158333 972.725,280.575 C971.108333,281.991667 969.883333,283.65 969.05,285.55 C968.216667,287.45 967.8,289.45 967.8,291.55 C967.8,293.816667 968.158333,295.75 968.875,297.35 C969.591667,298.95 970.541667,300.3 971.725,301.4 C972.908333,302.5 974.258333,303.408333 975.775,304.125 C977.291667,304.841667 978.841667,305.466667 980.425,306 C982.008333,306.533333 983.558333,307.025 985.075,307.475 C986.591667,307.925 987.941667,308.433333 989.125,309 C990.308333,309.566667 991.258333,310.233333 991.975,311 C992.691667,311.766667 993.05,312.75 993.05,313.95 C993.05,314.75 992.891667,315.525 992.575,316.275 C992.258333,317.025 991.758333,317.683333 991.075,318.25 C990.391667,318.816667 989.525,319.275 988.475,319.625 C987.425,319.975 986.166667,320.15 984.7,320.15 C982.833333,320.15 981.291667,319.933333 980.075,319.5 C978.858333,319.066667 977.8,318.6 976.9,318.1 C976,317.6 975.208333,317.133333 974.525,316.7 C973.841667,316.266667 973.116667,316.05 972.35,316.05 C971.583333,316.05 970.95,316.2 970.45,316.5 C969.95,316.8 969.516667,317.233333 969.15,317.8 L969.15,317.8 L966.3,322.5 C967.3,323.4 968.458333,324.233333 969.775,325 C971.091667,325.766667 972.525,326.433333 974.075,327 C975.625,327.566667 977.241667,328.008333 978.925,328.325 C980.608333,328.641667 982.333333,328.8 984.1,328.8 Z" id="&amp;Wellness" fill="#000000" fill-rule="nonzero" class="VqrCsrlo_22"></path>
    </g>
<style data-made-with="vivus-instant">.VqrCsrlo_0{stroke-dasharray:660 662;stroke-dashoffset:661;animation:VqrCsrlo_draw 1600ms ease 0ms forwards;}.VqrCsrlo_1{stroke-dasharray:207 209;stroke-dashoffset:208;animation:VqrCsrlo_draw 1600ms ease 36ms forwards;}.VqrCsrlo_2{stroke-dasharray:31 33;stroke-dashoffset:32;animation:VqrCsrlo_draw 1600ms ease 72ms forwards;}.VqrCsrlo_3{stroke-dasharray:219 221;stroke-dashoffset:220;animation:VqrCsrlo_draw 1600ms ease 109ms forwards;}.VqrCsrlo_4{stroke-dasharray:138 140;stroke-dashoffset:139;animation:VqrCsrlo_draw 1600ms ease 145ms forwards;}.VqrCsrlo_5{stroke-dasharray:224 226;stroke-dashoffset:225;animation:VqrCsrlo_draw 1600ms ease 181ms forwards;}.VqrCsrlo_6{stroke-dasharray:256 258;stroke-dashoffset:257;animation:VqrCsrlo_draw 1600ms ease 218ms forwards;}.VqrCsrlo_7{stroke-dasharray:194 196;stroke-dashoffset:195;animation:VqrCsrlo_draw 1600ms ease 254ms forwards;}.VqrCsrlo_8{stroke-dasharray:143 145;stroke-dashoffset:144;animation:VqrCsrlo_draw 1600ms ease 290ms forwards;}.VqrCsrlo_9{stroke-dasharray:145 147;stroke-dashoffset:146;animation:VqrCsrlo_draw 1600ms ease 327ms forwards;}.VqrCsrlo_10{stroke-dasharray:186 188;stroke-dashoffset:187;animation:VqrCsrlo_draw 1600ms ease 363ms forwards;}.VqrCsrlo_11{stroke-dasharray:583 585;stroke-dashoffset:584;animation:VqrCsrlo_draw 1600ms ease 400ms forwards;}.VqrCsrlo_12{stroke-dasharray:35 37;stroke-dashoffset:36;animation:VqrCsrlo_draw 1600ms ease 436ms forwards;}.VqrCsrlo_13{stroke-dasharray:19 21;stroke-dashoffset:20;animation:VqrCsrlo_draw 1600ms ease 472ms forwards;}.VqrCsrlo_14{stroke-dasharray:16 18;stroke-dashoffset:17;animation:VqrCsrlo_draw 1600ms ease 509ms forwards;}.VqrCsrlo_15{stroke-dasharray:35 37;stroke-dashoffset:36;animation:VqrCsrlo_draw 1600ms ease 545ms forwards;}.VqrCsrlo_16{stroke-dasharray:16 18;stroke-dashoffset:17;animation:VqrCsrlo_draw 1600ms ease 581ms forwards;}.VqrCsrlo_17{stroke-dasharray:222 224;stroke-dashoffset:223;animation:VqrCsrlo_draw 1600ms ease 618ms forwards;}.VqrCsrlo_18{stroke-dasharray:29 31;stroke-dashoffset:30;animation:VqrCsrlo_draw 1600ms ease 654ms forwards;}.VqrCsrlo_19{stroke-dasharray:1611 1613;stroke-dashoffset:1612;animation:VqrCsrlo_draw 1600ms ease 690ms forwards;}.VqrCsrlo_20{stroke-dasharray:2598 2600;stroke-dashoffset:2599;animation:VqrCsrlo_draw 1600ms ease 727ms forwards;}.VqrCsrlo_21{stroke-dasharray:1663 1665;stroke-dashoffset:1664;animation:VqrCsrlo_draw 1600ms ease 763ms forwards;}.VqrCsrlo_22{stroke-dasharray:2621 2623;stroke-dashoffset:2622;animation:VqrCsrlo_draw 1600ms ease 800ms forwards;}@keyframes VqrCsrlo_draw{100%{stroke-dashoffset:0;}}@keyframes VqrCsrlo_fade{0%{stroke-opacity:1;}98.46153846153847%{stroke-opacity:1;}100%{stroke-opacity:0;}}</style></svg>