<svg width="1180" height="348" viewBox="0 0 1180 348" fill="none" xmlns="http://www.w3.org/2000/svg">
<path fill-rule="evenodd" clip-rule="evenodd" d="M151.394 294.9C198.142 290.967 236.609 289 266.795 289C296.981 289 368.382 290.667 481 294L151.394 294.9Z" stroke="#BFD6C9" stroke-width="100"/>
<path d="M435 79.5148C459.602 72.1345 474.882 67.0613 480.842 64.2952C489.781 60.1461 493.175 41.1643 478.142 43.1443C463.11 45.1242 439.807 85.2165 447.245 93.171C452.203 98.4739 471.788 92.2457 506 74.4862" stroke="black" stroke-width="8" stroke-linecap="round"/>
<path d="M518 69L548 64" stroke="black" stroke-width="7" stroke-linecap="round"/>
<path d="M606.67 42.7705C622.839 17.0095 622.839 6.43664 606.67 11.0518C582.415 17.9745 549.272 74.8668 561.7 87.957C569.986 96.6838 592.086 86.6402 628 57.8261" stroke="black" stroke-width="8" stroke-linecap="round"/>
<path d="M638.755 85.5514C647.378 76.653 652.324 69.6918 653.595 64.6676C655.5 57.1314 650.604 49 640.658 49C630.713 49 611.89 81.751 621.799 89.4159C628.404 94.5258 637.587 87.2735 649.348 67.6591" stroke="black" stroke-width="7" stroke-linecap="round"/>
<path d="M672.808 49.637C659.006 71.6455 653.227 83.3722 655.471 84.8169C658.837 86.9841 681.533 60.4188 686.834 58.6676C692.136 56.9164 682.209 78.8181 696.836 73.2806C711.464 67.7432 731.512 38.6458 737.948 41.1528C742.238 42.8241 733.41 62.4399 711.464 100" stroke="black" stroke-width="7" stroke-linecap="round"/>
<path d="M758.2 49.6066C743.462 78.4864 737.209 93.6491 739.44 95.0948C742.786 97.2632 766.873 60.3949 772.143 58.6426C777.413 56.8904 767.708 88.2105 782.248 82.6697C796.789 77.1289 816.557 38.6087 822.954 41.1172C827.219 42.7896 818.443 62.4172 796.627 100" stroke="black" stroke-width="7" stroke-linecap="round"/>
<path d="M819 70.9489C839.785 69.2438 853.105 67.0394 858.959 64.3357C867.742 60.2803 873.219 39.4221 858.959 43.5339C844.7 47.6457 818.971 81.4372 826.278 89.2122C831.149 94.3956 850.39 88.3078 884 70.9489" stroke="black" stroke-width="7" stroke-linecap="round"/>
<path d="M900.339 45C881.366 71.9646 873.961 85.9531 878.123 86.9654C881.281 87.7336 886.476 75.5473 896.346 65.529C905.987 55.7429 920.309 48.143 923.259 46.9153C929.228 44.4306 917.912 62.7869 918.164 66.9394C918.332 69.7077 920.509 71.6927 924.695 72.8944" stroke="black" stroke-width="7" stroke-linecap="round"/>
<path d="M958.231 62.43C967.813 47.156 967.813 40.8872 958.231 43.6236C943.858 47.7282 917.926 81.4602 925.29 89.2215C930.2 94.3957 947.77 88.2797 978 70.8734" stroke="black" stroke-width="7" stroke-linecap="round"/>
<path d="M976.065 72.1949C990.847 68.3679 1001.17 65.0993 1007.04 62.3889C1015.84 58.3233 1021.33 37.4132 1007.04 41.5353C992.748 45.6573 966.959 79.5329 974.283 87.3273C979.166 92.5236 998.071 85.613 1031 66.5956" stroke="black" stroke-width="7" stroke-linecap="round"/>
<g style="mix-blend-mode:multiply">
<path d="M457.425 126C517.966 114.313 604.333 105.004 716.525 98.0733C828.717 91.1425 935.875 91.1425 1038 98.0733" stroke="#BFD6C9" stroke-width="7" stroke-linecap="round"/>
</g>
<path d="M131.383 286L97.8831 295" stroke="#A19FA8" stroke-width="3" stroke-linecap="round"/>
<path opacity="0.4" d="M1030.38 285.5L1044.68 273.101" stroke="#130F26" stroke-width="3" stroke-linecap="round"/>
<path d="M117.383 258L131.383 265.5" stroke="#A19FA8" stroke-width="3" stroke-linecap="round"/>
<path d="M89.2711 74.3411L59.2419 91.7048" stroke="#A19FA8" stroke-width="3" stroke-linecap="round"/>
<path d="M68.5012 50.9187L83.9653 54.5397" stroke="#A19FA8" stroke-width="3" stroke-linecap="round"/>
<path d="M1024.65 301.398C1065.96 286.344 1097.29 266.045 1118.63 240.503C1139.97 214.961 1154.6 182.302 1162.5 142.526" stroke="black" stroke-width="3" stroke-linecap="round"/>
<path d="M1170.97 153.704L1162.5 142.526L1149.33 149.479" stroke="black" stroke-width="3" stroke-linecap="round"/>
<path d="M148.6 101.8C153.333 101.8 157.775 101.175 161.925 99.925C166.075 98.675 169.983 96.7 173.65 94V64.75H149.65V72.3499C149.65 73.0499 149.892 73.6416 150.375 74.125C150.858 74.6083 151.533 74.8499 152.4 74.8499H161.5V87.9499C159.5 88.9166 157.45 89.6833 155.35 90.25C153.25 90.8166 150.867 91.0999 148.2 91.0999C144.467 91.0999 141.083 90.5083 138.05 89.3249C135.017 88.1416 132.425 86.425 130.275 84.175C128.125 81.925 126.458 79.175 125.275 75.925C124.092 72.675 123.5 68.9833 123.5 64.8499C123.5 60.9833 124.05 57.4833 125.15 54.3499C126.25 51.2166 127.817 48.5333 129.85 46.2999C131.883 44.0666 134.342 42.35 137.225 41.15C140.108 39.95 143.333 39.3499 146.9 39.3499C149.1 39.3499 151.042 39.4999 152.725 39.7999C154.408 40.0999 155.925 40.4833 157.275 40.95C158.625 41.4166 159.85 41.9666 160.95 42.5999L164.25 44.5C165.383 45.2 166.433 45.4416 167.4 45.2249C168.367 45.0083 169.15 44.4166 169.75 43.45L173.6 37.3499C172.1 35.9499 170.45 34.6666 168.65 33.5C166.85 32.3333 164.858 31.3416 162.675 30.525C160.492 29.7083 158.125 29.0666 155.575 28.6C153.025 28.1333 150.283 27.9 147.35 27.9C141.583 27.9 136.383 28.8 131.75 30.6C127.117 32.4 123.175 34.9333 119.925 38.2C116.675 41.4666 114.167 45.3666 112.4 49.9C110.633 54.4333 109.75 59.4166 109.75 64.8499C109.75 70.2166 110.667 75.1666 112.5 79.6999C114.333 84.2333 116.942 88.1333 120.325 91.3999C123.708 94.6666 127.792 97.2166 132.575 99.05C137.358 100.883 142.7 101.8 148.6 101.8ZM197.2 101V26.7H184.85V101H197.2ZM232.25 101.75C236.05 101.75 239.508 101.133 242.625 99.8999C245.742 98.6666 248.408 96.8999 250.625 94.5999C252.842 92.2999 254.55 89.5166 255.75 86.25C256.95 82.9833 257.55 79.3166 257.55 75.25C257.55 71.2166 256.95 67.5666 255.75 64.3C254.55 61.0333 252.842 58.2666 250.625 56C248.408 53.7333 245.742 51.9833 242.625 50.75C239.508 49.5166 236.05 48.9 232.25 48.9C228.417 48.9 224.933 49.5166 221.8 50.75C218.667 51.9833 215.992 53.7333 213.775 56C211.558 58.2666 209.842 61.0333 208.625 64.3C207.408 67.5666 206.8 71.2166 206.8 75.25C206.8 79.3166 207.408 82.9833 208.625 86.25C209.842 89.5166 211.558 92.2999 213.775 94.5999C215.992 96.8999 218.667 98.6666 221.8 99.8999C224.933 101.133 228.417 101.75 232.25 101.75ZM232.25 92.25C227.917 92.25 224.708 90.8083 222.625 87.925C220.542 85.0416 219.5 80.8499 219.5 75.3499C219.5 69.8499 220.542 65.6416 222.625 62.7249C224.708 59.8083 227.917 58.3499 232.25 58.3499C236.517 58.3499 239.675 59.8 241.725 62.7C243.775 65.6 244.8 69.8166 244.8 75.3499C244.8 80.8833 243.775 85.0833 241.725 87.9499C239.675 90.8166 236.517 92.25 232.25 92.25ZM292.3 101.75C295.6 101.75 298.6 101.083 301.3 99.75C304 98.4166 306.308 96.5416 308.225 94.125C310.142 91.7083 311.617 88.8 312.65 85.4C313.683 82 314.2 78.2166 314.2 74.05C314.2 70.1833 313.75 66.6999 312.85 63.5999C311.95 60.4999 310.658 57.8583 308.975 55.6749C307.292 53.4916 305.258 51.8166 302.875 50.65C300.492 49.4833 297.817 48.9 294.85 48.9C291.617 48.9 288.742 49.5416 286.225 50.825C283.708 52.1083 281.417 53.8333 279.35 56V26.7H267V101H275.15C275.983 101 276.642 100.817 277.125 100.45C277.608 100.083 277.95 99.4666 278.15 98.5999L278.7 95.1499C279.533 96.1499 280.408 97.0583 281.325 97.875C282.242 98.6916 283.25 99.3833 284.35 99.95C285.45 100.517 286.65 100.958 287.95 101.275C289.25 101.592 290.7 101.75 292.3 101.75ZM289.15 92.3499C287.317 92.3499 285.575 92 283.925 91.3C282.275 90.6 280.75 89.3999 279.35 87.6999V64.6999C280.95 62.7333 282.633 61.2083 284.4 60.125C286.167 59.0416 288.233 58.5 290.6 58.5C294.1 58.5 296.783 59.7583 298.65 62.275C300.517 64.7916 301.45 68.8666 301.45 74.5C301.45 77.6333 301.167 80.3249 300.6 82.5749C300.033 84.8249 299.217 86.675 298.15 88.125C297.083 89.575 295.792 90.6416 294.275 91.325C292.758 92.0083 291.05 92.3499 289.15 92.3499ZM335.05 101.8C336.883 101.8 338.558 101.642 340.075 101.325C341.592 101.008 343.017 100.55 344.35 99.95C345.683 99.35 346.967 98.6083 348.2 97.7249C349.433 96.8416 350.7 95.8166 352 94.6499L353.1 98.3499C353.467 99.4166 353.967 100.125 354.6 100.475C355.233 100.825 356.133 101 357.3 101H362.9V68.5999C362.9 65.6999 362.475 63.0333 361.625 60.5999C360.775 58.1666 359.533 56.075 357.9 54.325C356.267 52.575 354.267 51.2083 351.9 50.2249C349.533 49.2416 346.85 48.75 343.85 48.75C335.55 48.75 328.45 51.4499 322.55 56.8499L324.75 60.7999C325.117 61.3999 325.6 61.925 326.2 62.375C326.8 62.825 327.533 63.0499 328.4 63.0499C329.4 63.0499 330.308 62.8166 331.125 62.3499C331.942 61.8833 332.85 61.3583 333.85 60.775C334.85 60.1916 336.008 59.6666 337.325 59.2C338.642 58.7333 340.3 58.5 342.3 58.5C345.067 58.5 347.183 59.3249 348.65 60.9749C350.117 62.6249 350.85 65.1666 350.85 68.5999V71.5999C346.95 71.6999 343.483 71.9916 340.45 72.4749C337.417 72.9583 334.758 73.5833 332.475 74.3499C330.192 75.1166 328.267 76.0166 326.7 77.05C325.133 78.0833 323.858 79.1833 322.875 80.3499C321.892 81.5166 321.183 82.7416 320.75 84.025C320.317 85.3083 320.1 86.6 320.1 87.9C320.1 90.2 320.467 92.2166 321.2 93.95C321.933 95.6833 322.967 97.1333 324.3 98.3C325.633 99.4666 327.217 100.342 329.05 100.925C330.883 101.508 332.883 101.8 335.05 101.8ZM338.85 93.3C336.783 93.3 335.108 92.8333 333.825 91.8999C332.542 90.9666 331.9 89.4166 331.9 87.25C331.9 86.15 332.217 85.1333 332.85 84.1999C333.483 83.2666 334.533 82.45 336 81.75C337.467 81.05 339.417 80.475 341.85 80.025C344.283 79.575 347.283 79.2666 350.85 79.0999V87.75C349.083 89.6166 347.275 91.0083 345.425 91.925C343.575 92.8416 341.383 93.3 338.85 93.3ZM387 101V26.7H374.65V101H387Z" fill="black"/>
<path d="M393.83 206L394.514 203.754H392.951C390.965 203.754 389.338 203.371 388.068 202.606C386.799 201.841 386.164 200.678 386.164 199.115C386.164 198.399 386.636 196.462 387.58 193.305L393.391 173.871H398.176C410.904 173.871 419.31 171.975 423.396 168.183C427.481 164.39 429.523 160.15 429.523 155.463C429.523 152.924 428.848 150.515 427.497 148.236C426.146 145.958 424.217 144.118 421.711 142.719C419.204 141.319 416.739 140.481 414.313 140.204C411.888 139.927 408.202 139.789 403.254 139.789H384.846L384.162 142.035H386.408C390.64 142.035 392.756 143.191 392.756 145.502C392.756 146.348 392.251 148.399 391.242 151.654L378.449 193.793C377.473 197.048 376.732 199.164 376.228 200.141C375.723 201.117 374.771 201.964 373.371 202.68C371.971 203.396 370.246 203.754 368.195 203.754L367.512 206H393.83ZM396.906 171.625H394.025L403.01 142.035H405.354C408.999 142.035 411.742 142.263 413.581 142.719C415.42 143.174 417.015 144.363 418.366 146.283C419.717 148.204 420.393 150.645 420.393 153.607C420.393 157.449 419.261 160.972 416.999 164.179C414.737 167.385 412.051 169.428 408.942 170.307C405.834 171.186 401.822 171.625 396.906 171.625ZM433.453 207.367C438.661 207.367 442.926 203.005 446.246 194.281H444.098C442.568 197.992 440.973 200.613 439.312 202.143C437.652 203.673 436.269 204.438 435.162 204.438C434.413 204.438 433.852 204.193 433.478 203.705C433.103 203.217 432.916 202.484 432.916 201.508C432.916 200.043 433.388 197.895 434.332 195.062C435.048 192.914 435.52 191.433 435.748 190.619L451.471 138.861H450.25C447.711 139.936 443.756 140.521 438.385 140.619L437.75 142.67H439.654C441.412 142.67 442.511 142.833 442.95 143.158C443.39 143.484 443.609 144.037 443.609 144.818C443.609 145.339 443.121 147.195 442.145 150.385L430.719 188.08C428.603 195.014 427.545 199.359 427.545 201.117C427.545 202.908 428.082 204.397 429.156 205.585C430.23 206.773 431.663 207.367 433.453 207.367ZM476.934 207.367C478.919 207.367 481.092 206.171 483.452 203.778C485.812 201.386 487.627 198.725 488.896 195.795H486.846C483.916 200.938 481.328 203.51 479.082 203.51C478.496 203.51 478.057 203.339 477.764 202.997C477.471 202.655 477.324 202.159 477.324 201.508C477.324 200.629 477.959 198.122 479.229 193.988L487.92 165.375H482.061L480.84 169.525C480.514 167.898 479.855 166.677 478.862 165.863C477.869 165.049 476.527 164.643 474.834 164.643C471.937 164.643 468.446 166.335 464.36 169.721C460.275 173.106 456.963 177.33 454.424 182.392C451.885 187.453 450.615 192.198 450.615 196.625C450.615 199.913 451.437 202.525 453.081 204.462C454.725 206.399 456.686 207.367 458.965 207.367C461.406 207.367 464.019 206.138 466.802 203.681C469.585 201.223 471.709 198.741 473.174 196.234C472.523 198.383 472.197 200.124 472.197 201.459C472.197 203.119 472.604 204.519 473.418 205.658C474.232 206.798 475.404 207.367 476.934 207.367ZM460.43 204.584C459.128 204.584 458.151 204.039 457.5 202.948C456.849 201.858 456.523 200.238 456.523 198.09C456.523 193.142 458.656 186.745 462.92 178.9C467.184 171.055 471.302 167.133 475.273 167.133C476.576 167.133 477.576 167.613 478.276 168.573C478.976 169.534 479.326 170.697 479.326 172.064C479.326 174.408 478.219 178.835 476.006 185.346C473.792 191.856 471.18 196.69 468.169 199.848C465.158 203.005 462.578 204.584 460.43 204.584ZM500.346 207.367C502.462 207.367 504.797 206.09 507.353 203.534C509.908 200.979 512.178 197.276 514.164 192.426H512.016C510.518 195.779 508.826 198.562 506.938 200.775C505.049 202.989 503.52 204.096 502.348 204.096C501.697 204.096 501.2 203.892 500.858 203.485C500.517 203.078 500.346 202.484 500.346 201.703C500.346 200.564 501.42 196.495 503.568 189.496L510.014 168.158H517.338L518.021 166.01H510.697L515.189 151.215H509.33L504.838 166.01H498.148L497.465 168.158H504.203L497.904 188.959C495.886 195.567 494.877 199.636 494.877 201.166C494.877 202.956 495.373 204.438 496.366 205.609C497.359 206.781 498.686 207.367 500.346 207.367ZM503.982 229.389C508.898 229.389 513.406 227.175 517.508 222.748C521.609 218.321 525.385 209.646 528.836 196.723L536.404 168.158H544.949L545.584 166.01H537.088L538.504 160.785C540.945 151.768 543.175 146.243 545.193 144.208C547.212 142.174 549.327 141.156 551.541 141.156C553.006 141.156 554.259 141.97 555.301 143.598C556.766 145.844 558.149 146.967 559.451 146.967C561.079 146.967 561.893 146.104 561.893 144.379C561.893 143.174 561.152 141.954 559.671 140.717C558.19 139.48 556.049 138.861 553.25 138.861C543.419 138.861 536.307 146.967 531.912 163.178C531.489 164.675 531.229 165.619 531.131 166.01H521.463L520.828 168.158H530.447L522.977 195.941C519.591 208.474 516.564 216.824 513.895 220.99C511.225 225.157 507.938 227.24 504.031 227.24C502.924 227.24 501.98 226.98 501.199 226.459C500.418 225.938 500.027 225.368 500.027 224.75L500.125 223.92C500.223 223.334 500.271 222.927 500.271 222.699C500.271 221.82 499.946 220.998 499.295 220.233C498.644 219.468 497.781 219.086 496.707 219.086C495.796 219.086 494.998 219.428 494.314 220.111C493.631 220.795 493.289 221.674 493.289 222.748C493.289 224.636 494.388 226.215 496.585 227.484C498.782 228.754 501.248 229.389 503.982 229.389ZM554.006 207.123C557.033 207.123 560.118 205.91 563.259 203.485C566.4 201.06 569.012 197.569 571.096 193.012C573.179 188.454 574.221 183.637 574.221 178.559C574.221 174.359 573.285 171.031 571.413 168.573C569.541 166.116 567.157 164.887 564.26 164.887C561.07 164.887 557.782 166.319 554.396 169.184C551.011 172.048 548.407 175.784 546.584 180.39C544.761 184.996 543.85 189.252 543.85 193.158C543.85 198.301 544.867 201.915 546.901 203.998C548.936 206.081 551.304 207.123 554.006 207.123ZM554.201 205.121C552.606 205.121 551.353 204.503 550.441 203.266C549.53 202.029 549.074 200.531 549.074 198.773C549.074 192.947 550.547 186.2 553.493 178.534C556.439 170.868 559.947 167.035 564.016 167.035C565.741 167.035 567.035 167.597 567.897 168.72C568.76 169.843 569.191 171.527 569.191 173.773C569.191 178.135 567.784 184.451 564.968 192.719C562.152 200.987 558.563 205.121 554.201 205.121ZM587.428 206.732L588.502 203.217C590.585 196.316 593.32 188.951 596.705 181.122C600.09 173.293 602.597 169.379 604.225 169.379C604.583 169.379 604.941 169.59 605.299 170.014C606.21 171.088 607.105 171.625 607.984 171.625C608.766 171.625 609.441 171.316 610.011 170.697C610.58 170.079 610.865 169.281 610.865 168.305C610.865 167.296 610.523 166.433 609.84 165.717C609.156 165.001 608.245 164.643 607.105 164.643C605.283 164.643 603.46 165.847 601.637 168.256C599.814 170.665 597.698 174.587 595.289 180.023C594.41 182.042 593.873 183.214 593.678 183.539C595.143 178.298 595.875 174.262 595.875 171.43C595.875 169.151 595.533 167.45 594.85 166.327C594.166 165.204 593.124 164.643 591.725 164.643C589.706 164.643 587.664 165.928 585.597 168.5C583.53 171.072 581.813 174.18 580.445 177.826H582.594C583.277 175.906 584.425 173.79 586.036 171.479C587.647 169.167 588.99 168.012 590.064 168.012C590.553 168.012 590.919 168.24 591.163 168.695C591.407 169.151 591.529 169.851 591.529 170.795C591.529 172.553 590.797 175.906 589.332 180.854L581.568 206.732H587.428ZM663.818 207.367C665.934 207.367 668.107 206.358 670.337 204.34C672.567 202.322 674.382 199.799 675.781 196.771H673.682C672.184 199.311 670.768 201.215 669.434 202.484C668.099 203.754 666.862 204.389 665.723 204.389C665.137 204.389 664.689 204.201 664.38 203.827C664.071 203.453 663.916 202.908 663.916 202.191C663.916 201.15 664.697 198.399 666.26 193.939L670.068 182.953C671.436 178.852 672.225 176.369 672.437 175.507C672.648 174.644 672.754 173.546 672.754 172.211C672.754 170.062 672.119 168.362 670.85 167.108C669.58 165.855 668.001 165.229 666.113 165.229C663.607 165.229 660.807 166.514 657.715 169.086C654.622 171.658 651.693 175.775 648.926 181.439C650.26 177.663 650.928 174.441 650.928 171.771C650.928 169.59 650.464 167.955 649.536 166.864C648.608 165.774 647.201 165.229 645.312 165.229C642.676 165.229 639.73 166.889 636.475 170.209C633.219 173.529 630.501 177.484 628.32 182.074C630.306 176.41 631.299 172.39 631.299 170.014C631.299 168.581 630.933 167.442 630.2 166.596C629.468 165.749 628.467 165.326 627.197 165.326C625.439 165.326 623.421 166.392 621.143 168.524C618.864 170.657 616.943 173.367 615.381 176.654H617.578C618.978 174.115 620.386 172.162 621.802 170.795C623.218 169.428 624.349 168.744 625.195 168.744C625.586 168.744 625.871 168.874 626.05 169.135C626.229 169.395 626.318 169.786 626.318 170.307C626.318 171.023 625.716 173.383 624.512 177.387L615.576 206.684H621.436L622.9 201.898C626.742 189.138 630.599 180.357 634.473 175.556C638.346 170.754 641.423 168.354 643.701 168.354C644.482 168.354 645.06 168.598 645.435 169.086C645.809 169.574 645.996 170.307 645.996 171.283C645.996 172.878 645.313 175.954 643.945 180.512L635.986 206.684H641.797L643.115 202.436C647.217 188.861 651.164 179.747 654.956 175.092C658.748 170.437 662.044 168.109 664.844 168.109C665.723 168.109 666.382 168.378 666.821 168.915C667.261 169.452 667.48 170.258 667.48 171.332C667.48 172.341 666.797 174.831 665.43 178.803L660.84 192.084C659.245 196.739 658.447 199.896 658.447 201.557C658.447 203.412 658.993 204.844 660.083 205.854C661.174 206.863 662.419 207.367 663.818 207.367ZM725.828 147.406C727 147.406 728.001 146.983 728.831 146.137C729.661 145.29 730.076 144.281 730.076 143.109C730.076 141.938 729.661 140.937 728.831 140.106C728.001 139.276 727 138.861 725.828 138.861C724.656 138.861 723.655 139.276 722.825 140.106C721.995 140.937 721.58 141.938 721.58 143.109C721.58 144.249 721.987 145.25 722.801 146.112C723.615 146.975 724.624 147.406 725.828 147.406ZM714.451 207.367C716.73 207.367 719.098 206.146 721.556 203.705C724.013 201.264 726.007 198.464 727.537 195.307H725.193C721.938 201.068 719.106 203.949 716.697 203.949C715.981 203.949 715.436 203.713 715.062 203.241C714.687 202.769 714.5 202.061 714.5 201.117C714.5 199.945 715.363 197.064 717.088 192.475L721.775 179.779C723.501 175.189 724.363 172.032 724.363 170.307C724.363 168.614 723.875 167.247 722.898 166.205C721.922 165.163 720.669 164.643 719.139 164.643C717.153 164.643 715.013 165.668 712.718 167.719C710.423 169.77 708.38 172.569 706.59 176.117H708.934C709.65 174.522 710.879 172.74 712.62 170.771C714.362 168.801 715.867 167.816 717.137 167.816C717.755 167.816 718.219 167.979 718.528 168.305C718.838 168.63 718.992 169.118 718.992 169.77C718.992 170.518 718.341 172.634 717.039 176.117L711.424 191.01C709.601 195.893 708.689 199.197 708.689 200.922C708.689 203.038 709.267 204.641 710.423 205.731C711.578 206.822 712.921 207.367 714.451 207.367ZM758.078 207.367C760.194 207.367 762.269 206.488 764.304 204.73C766.338 202.973 768.332 200.336 770.285 196.82H767.795C766.363 199.294 765.012 201.158 763.742 202.411C762.473 203.664 761.285 204.291 760.178 204.291C759.592 204.291 759.144 204.136 758.835 203.827C758.526 203.518 758.371 203.054 758.371 202.436C758.371 201.947 759.071 199.604 760.471 195.404L765.695 179.828C767.03 175.824 767.697 173.09 767.697 171.625C767.697 169.346 767.03 167.613 765.695 166.425C764.361 165.237 762.798 164.643 761.008 164.643C755.441 164.643 749.712 170.518 743.82 182.27C746.001 176.41 747.092 172.081 747.092 169.281C747.092 167.719 746.774 166.555 746.14 165.79C745.505 165.025 744.553 164.643 743.283 164.643C739.637 164.643 735.78 168.337 731.711 175.727H733.957C736.594 170.974 738.872 168.598 740.793 168.598C741.216 168.598 741.525 168.728 741.721 168.988C741.916 169.249 742.014 169.656 742.014 170.209C742.014 170.958 741.232 173.887 739.67 178.998L731.076 206.732H737.033L739.426 198.92C742.29 189.512 745.716 181.903 749.704 176.093C753.692 170.282 756.923 167.377 759.396 167.377C760.373 167.377 761.097 167.637 761.569 168.158C762.041 168.679 762.277 169.477 762.277 170.551C762.277 171.755 761.577 174.392 760.178 178.461L754.953 193.354C753.456 197.683 752.707 200.58 752.707 202.045C752.707 203.803 753.236 205.129 754.294 206.024C755.352 206.92 756.613 207.367 758.078 207.367Z" fill="black"/>
<path d="M182.55 328V296.4H216.5V328H230V255.7H216.5V286.8H182.55V255.7H169.05V328H182.55ZM266.05 328.75C267.85 328.75 269.708 328.617 271.625 328.35C273.542 328.083 275.425 327.625 277.275 326.975C279.125 326.325 280.9 325.458 282.6 324.375C284.3 323.292 285.833 321.95 287.2 320.35L283.65 315.85C283.15 315.083 282.383 314.7 281.35 314.7C280.583 314.7 279.792 314.933 278.975 315.4C278.158 315.867 277.208 316.383 276.125 316.95C275.042 317.517 273.775 318.033 272.325 318.5C270.875 318.967 269.15 319.2 267.15 319.2C265.15 319.2 263.325 318.892 261.675 318.275C260.025 317.658 258.6 316.725 257.4 315.475C256.2 314.225 255.233 312.642 254.5 310.725C253.767 308.808 253.3 306.533 253.1 303.9H284.85C285.983 303.9 286.75 303.575 287.15 302.925C287.55 302.275 287.75 301.017 287.75 299.15C287.75 295.45 287.192 292.158 286.075 289.275C284.958 286.392 283.417 283.958 281.45 281.975C279.483 279.992 277.133 278.483 274.4 277.45C271.667 276.417 268.683 275.9 265.45 275.9C261.617 275.9 258.175 276.567 255.125 277.9C252.075 279.233 249.492 281.042 247.375 283.325C245.258 285.608 243.633 288.292 242.5 291.375C241.367 294.458 240.8 297.75 240.8 301.25C240.8 305.75 241.45 309.708 242.75 313.125C244.05 316.542 245.833 319.408 248.1 321.725C250.367 324.042 253.033 325.792 256.1 326.975C259.167 328.158 262.483 328.75 266.05 328.75ZM276.65 296.45H253.35C253.917 292.717 255.225 289.833 257.275 287.8C259.325 285.767 262.133 284.75 265.7 284.75C267.533 284.75 269.142 285.058 270.525 285.675C271.908 286.292 273.05 287.133 273.95 288.2C274.85 289.267 275.525 290.508 275.975 291.925C276.425 293.342 276.65 294.85 276.65 296.45ZM309.3 328.8C311.133 328.8 312.808 328.642 314.325 328.325C315.842 328.008 317.267 327.55 318.6 326.95C319.933 326.35 321.217 325.608 322.45 324.725C323.683 323.842 324.95 322.817 326.25 321.65L327.35 325.35C327.717 326.417 328.217 327.125 328.85 327.475C329.483 327.825 330.383 328 331.55 328H337.15V295.6C337.15 292.7 336.725 290.033 335.875 287.6C335.025 285.167 333.783 283.075 332.15 281.325C330.517 279.575 328.517 278.208 326.15 277.225C323.783 276.242 321.1 275.75 318.1 275.75C309.8 275.75 302.7 278.45 296.8 283.85L299 287.8C299.367 288.4 299.85 288.925 300.45 289.375C301.05 289.825 301.783 290.05 302.65 290.05C303.65 290.05 304.558 289.817 305.375 289.35C306.192 288.883 307.1 288.358 308.1 287.775C309.1 287.192 310.258 286.667 311.575 286.2C312.892 285.733 314.55 285.5 316.55 285.5C319.317 285.5 321.433 286.325 322.9 287.975C324.367 289.625 325.1 292.167 325.1 295.6V298.6C321.2 298.7 317.733 298.992 314.7 299.475C311.667 299.958 309.008 300.583 306.725 301.35C304.442 302.117 302.517 303.017 300.95 304.05C299.383 305.083 298.108 306.183 297.125 307.35C296.142 308.517 295.433 309.742 295 311.025C294.567 312.308 294.35 313.6 294.35 314.9C294.35 317.2 294.717 319.217 295.45 320.95C296.183 322.683 297.217 324.133 298.55 325.3C299.883 326.467 301.467 327.342 303.3 327.925C305.133 328.508 307.133 328.8 309.3 328.8ZM313.1 320.3C311.033 320.3 309.358 319.833 308.075 318.9C306.792 317.967 306.15 316.417 306.15 314.25C306.15 313.15 306.467 312.133 307.1 311.2C307.733 310.267 308.783 309.45 310.25 308.75C311.717 308.05 313.667 307.475 316.1 307.025C318.533 306.575 321.533 306.267 325.1 306.1V314.75C323.333 316.617 321.525 318.008 319.675 318.925C317.825 319.842 315.633 320.3 313.1 320.3ZM362.25 328V253.7H349.9V328H362.25ZM392.7 328.8C395.2 328.8 397.617 328.417 399.95 327.65C402.283 326.883 404.35 325.75 406.15 324.25L402.45 318.25C402.183 317.883 401.933 317.608 401.7 317.425C401.467 317.242 401.167 317.15 400.8 317.15C400.5 317.15 400.2 317.242 399.9 317.425C399.6 317.608 399.258 317.8 398.875 318C398.492 318.2 398.042 318.392 397.525 318.575C397.008 318.758 396.367 318.85 395.6 318.85C394.233 318.85 393.158 318.4 392.375 317.5C391.592 316.6 391.2 315.35 391.2 313.75V285.95H404.9V277.15H391.2V261H384.8C384.067 261 383.467 261.183 383 261.55C382.533 261.917 382.217 262.433 382.05 263.1L379.45 277.1L371.2 278.45V283.35C371.2 284.217 371.433 284.867 371.9 285.3C372.367 285.733 372.933 285.95 373.6 285.95H378.85V314.6C378.85 319.033 380.042 322.508 382.425 325.025C384.808 327.542 388.233 328.8 392.7 328.8ZM426.15 328V290.9C427.817 289.233 429.583 287.917 431.45 286.95C433.317 285.983 435.317 285.5 437.45 285.5C440.383 285.5 442.567 286.358 444 288.075C445.433 289.792 446.15 292.217 446.15 295.35V328H458.5V295.35C458.5 292.483 458.125 289.858 457.375 287.475C456.625 285.092 455.525 283.042 454.075 281.325C452.625 279.608 450.817 278.275 448.65 277.325C446.483 276.375 444 275.9 441.2 275.9C437.967 275.9 435.15 276.483 432.75 277.65C430.35 278.817 428.15 280.333 426.15 282.2V253.7H413.8V328H426.15Z" fill="black"/>
<path d="M529 328.8C533.567 328.8 537.817 328.067 541.75 326.6C545.683 325.133 549.234 323.1 552.4 320.5L557.4 325.65C558.267 326.617 559.092 327.25 559.875 327.55C560.658 327.85 561.683 328 562.95 328H575.05L559.9 312.3C562.2 308.933 563.967 305.25 565.2 301.25C566.433 297.25 567.067 293.05 567.1 288.65H559.4C558.634 288.65 558.033 288.883 557.6 289.35C557.167 289.817 556.9 290.433 556.8 291.2C556.6 293.6 556.167 295.967 555.5 298.3C554.833 300.633 553.95 302.85 552.85 304.95L533.65 285C532.55 283.867 531.625 282.808 530.875 281.825C530.125 280.842 529.517 279.883 529.05 278.95C528.583 278.017 528.25 277.083 528.05 276.15C527.85 275.217 527.75 274.25 527.75 273.25C527.75 272.05 527.95 270.908 528.35 269.825C528.75 268.742 529.325 267.792 530.075 266.975C530.825 266.158 531.75 265.508 532.85 265.025C533.95 264.542 535.2 264.3 536.6 264.3C537.767 264.3 538.8 264.475 539.7 264.825C540.6 265.175 541.383 265.642 542.05 266.225C542.717 266.808 543.292 267.492 543.775 268.275C544.259 269.058 544.65 269.883 544.95 270.75C545.617 272.317 546.684 272.95 548.15 272.65L556 271C555.833 268.933 555.275 266.933 554.325 265C553.375 263.067 552.075 261.35 550.425 259.85C548.775 258.35 546.792 257.15 544.475 256.25C542.158 255.35 539.533 254.9 536.6 254.9C533.4 254.9 530.533 255.392 528 256.375C525.467 257.358 523.333 258.683 521.6 260.35C519.867 262.017 518.542 263.975 517.625 266.225C516.708 268.475 516.25 270.85 516.25 273.35C516.25 275.717 516.65 278.092 517.45 280.475C518.25 282.858 519.55 285.3 521.35 287.8C519.217 288.8 517.25 289.992 515.45 291.375C513.65 292.758 512.1 294.317 510.8 296.05C509.5 297.783 508.483 299.658 507.75 301.675C507.017 303.692 506.65 305.833 506.65 308.1C506.65 311.3 507.292 314.175 508.575 316.725C509.858 319.275 511.55 321.45 513.65 323.25C515.75 325.05 518.142 326.425 520.825 327.375C523.508 328.325 526.233 328.8 529 328.8ZM531.2 318.95C529.567 318.95 528.025 318.675 526.575 318.125C525.125 317.575 523.859 316.792 522.775 315.775C521.692 314.758 520.833 313.517 520.2 312.05C519.567 310.583 519.25 308.933 519.25 307.1C519.25 304.6 519.858 302.258 521.075 300.075C522.292 297.892 524.234 295.933 526.9 294.2L545.85 313.75C543.883 315.383 541.683 316.658 539.25 317.575C536.817 318.492 534.133 318.95 531.2 318.95ZM636.45 328L652.4 278.6C652.634 277.967 652.85 277.283 653.05 276.55C653.25 275.817 653.45 275.033 653.65 274.2C654.017 275.933 654.417 277.4 654.85 278.6L670.65 328H682.8L705.25 255.7H694.7C693.567 255.7 692.592 256 691.775 256.6C690.959 257.2 690.45 257.917 690.25 258.75L677.95 302C677.417 304.133 676.933 306.517 676.5 309.15C675.933 306.45 675.3 304.067 674.6 302L660.45 258.75C660.083 257.85 659.533 257.117 658.8 256.55C658.067 255.983 657.117 255.7 655.95 255.7H652C650.867 255.7 649.908 256.017 649.125 256.65C648.342 257.283 647.817 257.983 647.55 258.75L633.35 302C632.983 303.067 632.642 304.217 632.325 305.45C632.008 306.683 631.717 308 631.45 309.4C631.183 308.033 630.925 306.725 630.675 305.475C630.425 304.225 630.167 303.067 629.9 302L617.6 258.75C617.333 257.817 616.809 257.075 616.025 256.525C615.242 255.975 614.267 255.7 613.1 255.7H601.85L624.25 328H636.45ZM729.55 328.75C731.35 328.75 733.208 328.617 735.125 328.35C737.042 328.083 738.925 327.625 740.775 326.975C742.625 326.325 744.4 325.458 746.1 324.375C747.8 323.292 749.333 321.95 750.7 320.35L747.15 315.85C746.65 315.083 745.883 314.7 744.85 314.7C744.083 314.7 743.292 314.933 742.475 315.4C741.658 315.867 740.708 316.383 739.625 316.95C738.542 317.517 737.275 318.033 735.825 318.5C734.375 318.967 732.65 319.2 730.65 319.2C728.65 319.2 726.825 318.892 725.175 318.275C723.525 317.658 722.1 316.725 720.9 315.475C719.7 314.225 718.733 312.642 718 310.725C717.267 308.808 716.8 306.533 716.6 303.9H748.35C749.483 303.9 750.25 303.575 750.65 302.925C751.05 302.275 751.25 301.017 751.25 299.15C751.25 295.45 750.692 292.158 749.575 289.275C748.458 286.392 746.917 283.958 744.95 281.975C742.983 279.992 740.634 278.483 737.9 277.45C735.167 276.417 732.183 275.9 728.95 275.9C725.117 275.9 721.675 276.567 718.625 277.9C715.575 279.233 712.992 281.042 710.875 283.325C708.758 285.608 707.133 288.292 706 291.375C704.867 294.458 704.3 297.75 704.3 301.25C704.3 305.75 704.95 309.708 706.25 313.125C707.55 316.542 709.333 319.408 711.6 321.725C713.867 324.042 716.533 325.792 719.6 326.975C722.667 328.158 725.983 328.75 729.55 328.75ZM740.15 296.45H716.85C717.417 292.717 718.725 289.833 720.775 287.8C722.825 285.767 725.633 284.75 729.2 284.75C731.033 284.75 732.642 285.058 734.025 285.675C735.409 286.292 736.55 287.133 737.45 288.2C738.35 289.267 739.025 290.508 739.475 291.925C739.925 293.342 740.15 294.85 740.15 296.45ZM774 328V253.7H761.65V328H774ZM799.85 328V253.7H787.5V328H799.85ZM825.55 328V290.9C827.217 289.233 828.983 287.917 830.85 286.95C832.717 285.983 834.717 285.5 836.85 285.5C839.783 285.5 841.967 286.358 843.4 288.075C844.834 289.792 845.55 292.217 845.55 295.35V328H857.9V295.35C857.9 292.483 857.525 289.858 856.775 287.475C856.025 285.092 854.925 283.042 853.475 281.325C852.025 279.608 850.217 278.275 848.05 277.325C845.883 276.375 843.4 275.9 840.6 275.9C838.867 275.9 837.267 276.075 835.8 276.425C834.333 276.775 832.958 277.258 831.675 277.875C830.392 278.492 829.175 279.242 828.025 280.125C826.875 281.008 825.783 281.967 824.75 283L823.9 278.95C823.4 277.45 822.35 276.7 820.75 276.7H813.2V328H825.55ZM893.05 328.75C894.85 328.75 896.708 328.617 898.625 328.35C900.542 328.083 902.425 327.625 904.275 326.975C906.125 326.325 907.9 325.458 909.6 324.375C911.3 323.292 912.833 321.95 914.2 320.35L910.65 315.85C910.15 315.083 909.383 314.7 908.35 314.7C907.583 314.7 906.792 314.933 905.975 315.4C905.158 315.867 904.208 316.383 903.125 316.95C902.042 317.517 900.775 318.033 899.325 318.5C897.875 318.967 896.15 319.2 894.15 319.2C892.15 319.2 890.325 318.892 888.675 318.275C887.025 317.658 885.6 316.725 884.4 315.475C883.2 314.225 882.233 312.642 881.5 310.725C880.767 308.808 880.3 306.533 880.1 303.9H911.85C912.983 303.9 913.75 303.575 914.15 302.925C914.55 302.275 914.75 301.017 914.75 299.15C914.75 295.45 914.192 292.158 913.075 289.275C911.958 286.392 910.417 283.958 908.45 281.975C906.483 279.992 904.134 278.483 901.4 277.45C898.667 276.417 895.683 275.9 892.45 275.9C888.617 275.9 885.175 276.567 882.125 277.9C879.075 279.233 876.492 281.042 874.375 283.325C872.258 285.608 870.633 288.292 869.5 291.375C868.367 294.458 867.8 297.75 867.8 301.25C867.8 305.75 868.45 309.708 869.75 313.125C871.05 316.542 872.833 319.408 875.1 321.725C877.367 324.042 880.033 325.792 883.1 326.975C886.167 328.158 889.483 328.75 893.05 328.75ZM903.65 296.45H880.35C880.917 292.717 882.225 289.833 884.275 287.8C886.325 285.767 889.133 284.75 892.7 284.75C894.533 284.75 896.142 285.058 897.525 285.675C898.909 286.292 900.05 287.133 900.95 288.2C901.85 289.267 902.525 290.508 902.975 291.925C903.425 293.342 903.65 294.85 903.65 296.45ZM939.15 328.8C942.484 328.8 945.425 328.375 947.975 327.525C950.525 326.675 952.667 325.492 954.4 323.975C956.134 322.458 957.442 320.658 958.325 318.575C959.208 316.492 959.65 314.217 959.65 311.75C959.65 309.683 959.292 307.917 958.575 306.45C957.858 304.983 956.908 303.725 955.725 302.675C954.542 301.625 953.2 300.758 951.7 300.075C950.2 299.392 948.675 298.783 947.125 298.25C945.575 297.717 944.05 297.225 942.55 296.775C941.05 296.325 939.709 295.817 938.525 295.25C937.342 294.683 936.392 294.025 935.675 293.275C934.958 292.525 934.6 291.6 934.6 290.5C934.6 288.833 935.292 287.483 936.675 286.45C938.058 285.417 939.967 284.9 942.4 284.9C943.967 284.9 945.325 285.067 946.475 285.4C947.625 285.733 948.65 286.108 949.55 286.525C950.45 286.942 951.242 287.317 951.925 287.65C952.608 287.983 953.25 288.15 953.85 288.15C954.417 288.15 954.883 288.042 955.25 287.825C955.617 287.608 955.967 287.233 956.3 286.7L959.1 282.25C957.167 280.35 954.75 278.817 951.85 277.65C948.95 276.483 945.733 275.9 942.2 275.9C939.033 275.9 936.242 276.325 933.825 277.175C931.408 278.025 929.392 279.158 927.775 280.575C926.159 281.992 924.933 283.65 924.1 285.55C923.267 287.45 922.85 289.45 922.85 291.55C922.85 293.817 923.208 295.75 923.925 297.35C924.642 298.95 925.592 300.3 926.775 301.4C927.959 302.5 929.308 303.408 930.825 304.125C932.342 304.842 933.892 305.467 935.475 306C937.058 306.533 938.608 307.025 940.125 307.475C941.642 307.925 942.992 308.433 944.175 309C945.358 309.567 946.309 310.233 947.025 311C947.742 311.767 948.1 312.75 948.1 313.95C948.1 314.75 947.942 315.525 947.625 316.275C947.308 317.025 946.808 317.683 946.125 318.25C945.442 318.817 944.575 319.275 943.525 319.625C942.475 319.975 941.217 320.15 939.75 320.15C937.883 320.15 936.342 319.933 935.125 319.5C933.908 319.067 932.85 318.6 931.95 318.1C931.05 317.6 930.258 317.133 929.575 316.7C928.892 316.267 928.167 316.05 927.4 316.05C926.634 316.05 926 316.2 925.5 316.5C925 316.8 924.567 317.233 924.2 317.8L921.35 322.5C922.35 323.4 923.508 324.233 924.825 325C926.142 325.767 927.575 326.433 929.125 327C930.675 327.567 932.292 328.008 933.975 328.325C935.658 328.642 937.384 328.8 939.15 328.8ZM984.1 328.8C987.433 328.8 990.375 328.375 992.925 327.525C995.475 326.675 997.617 325.492 999.35 323.975C1001.08 322.458 1002.39 320.658 1003.28 318.575C1004.16 316.492 1004.6 314.217 1004.6 311.75C1004.6 309.683 1004.24 307.917 1003.53 306.45C1002.81 304.983 1001.86 303.725 1000.68 302.675C999.492 301.625 998.15 300.758 996.65 300.075C995.15 299.392 993.625 298.783 992.075 298.25C990.525 297.717 989 297.225 987.5 296.775C986 296.325 984.658 295.817 983.475 295.25C982.292 294.683 981.342 294.025 980.625 293.275C979.908 292.525 979.55 291.6 979.55 290.5C979.55 288.833 980.242 287.483 981.625 286.45C983.008 285.417 984.917 284.9 987.35 284.9C988.917 284.9 990.275 285.067 991.425 285.4C992.575 285.733 993.6 286.108 994.5 286.525C995.4 286.942 996.192 287.317 996.875 287.65C997.558 287.983 998.2 288.15 998.8 288.15C999.367 288.15 999.833 288.042 1000.2 287.825C1000.57 287.608 1000.92 287.233 1001.25 286.7L1004.05 282.25C1002.12 280.35 999.7 278.817 996.8 277.65C993.9 276.483 990.684 275.9 987.15 275.9C983.984 275.9 981.192 276.325 978.775 277.175C976.359 278.025 974.342 279.158 972.725 280.575C971.108 281.992 969.883 283.65 969.05 285.55C968.217 287.45 967.8 289.45 967.8 291.55C967.8 293.817 968.158 295.75 968.875 297.35C969.592 298.95 970.542 300.3 971.725 301.4C972.908 302.5 974.259 303.408 975.775 304.125C977.292 304.842 978.842 305.467 980.425 306C982.008 306.533 983.558 307.025 985.075 307.475C986.592 307.925 987.942 308.433 989.125 309C990.308 309.567 991.258 310.233 991.975 311C992.692 311.767 993.05 312.75 993.05 313.95C993.05 314.75 992.892 315.525 992.575 316.275C992.258 317.025 991.758 317.683 991.075 318.25C990.392 318.817 989.525 319.275 988.475 319.625C987.425 319.975 986.167 320.15 984.7 320.15C982.833 320.15 981.292 319.933 980.075 319.5C978.858 319.067 977.8 318.6 976.9 318.1C976 317.6 975.209 317.133 974.525 316.7C973.842 316.267 973.117 316.05 972.35 316.05C971.583 316.05 970.95 316.2 970.45 316.5C969.95 316.8 969.517 317.233 969.15 317.8L966.3 322.5C967.3 323.4 968.459 324.233 969.775 325C971.092 325.767 972.525 326.433 974.075 327C975.625 327.567 977.242 328.008 978.925 328.325C980.608 328.642 982.333 328.8 984.1 328.8Z" fill="black"/>
</svg>
