<!--?xml version="1.0" encoding="UTF-8"?-->
<svg width="1180px" height="348px" viewBox="0 0 1180 348" version="1.1" xmlns="http://www.w3.org/2000/svg" xmlns:xlink="http://www.w3.org/1999/xlink" style="">
    <title>main-img</title>
    <g id="Page-1" stroke="none" stroke-width="1" fill="none" fill-rule="evenodd">
        <g id="main-img" transform="translate(59.241895, 8.000000)">
            <path d="M92.151616,286.9 C138.900393,282.966667 177.367556,281 207.553105,281 C237.738655,281 309.140321,282.666667 421.758105,286 L92.151616,286.9 Z" id="Path-3" stroke="#BFD6C9" stroke-width="100" class="oyHalDaA_0"></path>
            <g id="Group" transform="translate(353.864694, 0.000000)" stroke="#000000" stroke-linecap="round">
                <path d="M21.8934117,71.5147984 C46.4950447,64.1344689 61.7756447,59.0612771 67.7352117,56.2952232 C76.6745622,52.1461424 80.0679557,33.1643336 65.0355378,35.1442812 C50.0031199,37.1242289 26.7006356,77.2164771 34.1383598,85.1709506 C39.0968425,90.473933 58.6818598,84.2456702 92.8934117,66.4861623" id="Path-7" stroke-width="8" class="oyHalDaA_1"></path>
                <path id="Path-5" stroke-width="7" d="M104.893412,61L134.893412,56" class="oyHalDaA_2"></path>
                <path d="M193.563173,34.770479 C209.732679,9.00953785 209.732679,-1.56335656 193.563173,3.05179576 C169.308915,9.97452425 136.165557,66.8667656 148.59388,79.9570158 C156.879429,88.6838493 178.979273,78.6402213 214.893412,49.8261318" id="Path-7" stroke-width="8" class="oyHalDaA_3"></path>
                <path d="M225.648598,77.5513636 C234.271078,68.6530174 239.21756,61.6917759 240.488042,56.6676393 C242.393767,49.1314344 237.496926,41 227.551463,41 C217.606001,41 198.783293,73.7510284 208.69192,81.4158696 C215.297672,86.5257638 224.480678,79.2735038 236.240941,59.6590896" id="Path-8" stroke-width="7" class="oyHalDaA_4"></path>
                <path d="M259.701599,41.637021 C245.899285,63.645521 240.120129,75.3721595 242.364131,76.8169364 C245.730135,78.9841017 268.426295,52.4188029 273.727764,50.6676185 C279.029234,48.9164341 269.102393,70.8180558 283.729773,65.2806445 C298.357152,59.7432332 318.405722,30.6457848 324.841086,33.1527833 C329.131329,34.8241156 320.303351,54.4398545 298.357152,92" id="Path-9" stroke-width="7" class="oyHalDaA_5"></path>
                <path d="M345.093156,41.6065983 C330.355865,70.4863872 324.102583,85.6491065 326.333311,87.0947561 C329.679403,89.2632306 353.76624,52.3948931 359.036349,50.6426509 C364.306459,48.8904087 354.601011,80.2104596 369.141862,74.6697033 C383.682713,69.128947 403.450016,30.6087227 409.847311,33.1172355 C414.112175,34.7895774 405.336419,54.4171656 383.520042,92" id="Path-9" stroke-width="7" class="oyHalDaA_6"></path>
                <path d="M405.893412,62.9489416 C426.678176,61.2437874 439.997974,59.0393836 445.852803,56.3357302 C454.635048,52.28025 460.112658,31.422145 445.852803,35.5339374 C431.592949,39.6457298 405.86395,73.4371872 413.170959,81.2122129 C418.042298,86.3955633 437.283116,80.3078062 470.893412,62.9489416" id="Path-7" stroke-width="7" class="oyHalDaA_7"></path>
                <path d="M487.232714,37 C468.259822,63.9645774 460.854455,77.9530543 465.016614,78.9654307 C468.174844,79.7336178 473.369492,67.5473165 483.239552,57.5289956 C492.880785,47.7429386 507.202724,40.1430272 510.152405,38.9152779 C516.121776,36.4306398 504.8051,54.7869453 505.057186,58.9393846 C505.225244,61.7076775 507.402215,63.6926695 511.588098,64.8943605" id="Path-10" stroke-width="7" class="oyHalDaA_8"></path>
                <path d="M545.124432,54.4299565 C554.706269,39.1560276 554.706269,32.887249 545.124432,35.6236206 C530.751676,39.728178 504.818969,73.4601774 512.183831,81.2215224 C517.093738,86.3957524 534.663599,80.2797127 564.893412,62.8734035" id="Path-7" stroke-width="7" class="oyHalDaA_9"></path>
                <path d="M562.958814,64.1949287 C577.740805,60.3679466 588.066017,57.0992617 593.93445,54.3888739 C602.7371,50.3232922 608.227438,29.4132331 593.93445,33.5352673 C579.641463,37.6573015 553.852682,71.5329278 561.176669,79.3273197 C566.059327,84.5235809 584.964908,77.6130169 617.893412,58.5956276" id="Path-7" stroke-width="7" class="oyHalDaA_10"></path>
            </g>
            <path d="M398.183323,118 C458.724296,106.31299 545.090764,97.0040807 657.282727,90.0732725 C769.47469,83.1424642 876.633149,83.1424642 978.758105,90.0732725" id="Path-5" stroke="#BFD6C9" stroke-width="7" style="mix-blend-mode: multiply;" stroke-linecap="round" class="oyHalDaA_11"></path>
            <path id="Path" stroke="#A19FA8" stroke-width="3" stroke-linecap="round" d="M72.1411053,278L38.6411053,287" class="oyHalDaA_12"></path>
            <path id="Path" stroke="#130F26" stroke-width="3" opacity="0.4" stroke-linecap="round" d="M971.141105,277.5L985.436973,265.101482" class="oyHalDaA_13"></path>
            <path id="Path" stroke="#A19FA8" stroke-width="3" stroke-linecap="round" d="M58.1411053,250L72.1411053,257.5" class="oyHalDaA_14"></path>
            <path id="Path" stroke="#A19FA8" stroke-width="3" stroke-linecap="round" d="M30.0291438,66.3410763L-7.10542736e-15,83.7048468" class="oyHalDaA_15"></path>
            <path id="Path" stroke="#A19FA8" stroke-width="3" stroke-linecap="round" d="M9.25924894,42.9186198L24.7233534,46.5395969" class="oyHalDaA_16"></path>
            <path d="M965.407031,293.398254 C1006.72173,278.343526 1038.04953,258.045125 1059.39043,232.503052 C1080.73133,206.960978 1095.35447,174.301897 1103.25985,134.525808" id="Path-2" stroke="#000000" stroke-width="3" stroke-linecap="round" class="oyHalDaA_17"></path>
            <path id="Path-4" stroke="#000000" stroke-width="3" stroke-linecap="round" transform="translate(1100.744408, 140.468588) rotate(-3.000000) translate(-1100.744408, -140.468588) " d="M1111.44167,146.271576L1103.56742,134.6656L1090.04715,140.920239" class="oyHalDaA_18"></path>
        </g>
        <path d="M148.6,101.8 C153.333333,101.8 157.775,101.175 161.925,99.925 C166.075,98.675 169.983333,96.7 173.65,94 L173.65,94 L173.65,64.75 L149.65,64.75 L149.65,72.35 C149.65,73.05 149.891667,73.6416667 150.375,74.125 C150.858333,74.6083333 151.533333,74.85 152.4,74.85 L152.4,74.85 L161.5,74.85 L161.5,87.95 C159.5,88.9166667 157.45,89.6833333 155.35,90.25 C153.25,90.8166667 150.866667,91.1 148.2,91.1 C144.466667,91.1 141.083333,90.5083333 138.05,89.325 C135.016667,88.1416667 132.425,86.425 130.275,84.175 C128.125,81.925 126.458333,79.175 125.275,75.925 C124.091667,72.675 123.5,68.9833333 123.5,64.85 C123.5,60.9833333 124.05,57.4833333 125.15,54.35 C126.25,51.2166667 127.816667,48.5333333 129.85,46.3 C131.883333,44.0666667 134.341667,42.35 137.225,41.15 C140.108333,39.95 143.333333,39.35 146.9,39.35 C149.1,39.35 151.041667,39.5 152.725,39.8 C154.408333,40.1 155.925,40.4833333 157.275,40.95 C158.625,41.4166667 159.85,41.9666667 160.95,42.6 L160.95,42.6 L164.25,44.5 C165.383333,45.2 166.433333,45.4416667 167.4,45.225 C168.366667,45.0083333 169.15,44.4166667 169.75,43.45 L169.75,43.45 L173.6,37.35 C172.1,35.95 170.45,34.6666667 168.65,33.5 C166.85,32.3333333 164.858333,31.3416667 162.675,30.525 C160.491667,29.7083333 158.125,29.0666667 155.575,28.6 C153.025,28.1333333 150.283333,27.9 147.35,27.9 C141.583333,27.9 136.383333,28.8 131.75,30.6 C127.116667,32.4 123.175,34.9333333 119.925,38.2 C116.675,41.4666667 114.166667,45.3666667 112.4,49.9 C110.633333,54.4333333 109.75,59.4166667 109.75,64.85 C109.75,70.2166667 110.666667,75.1666667 112.5,79.7 C114.333333,84.2333333 116.941667,88.1333333 120.325,91.4 C123.708333,94.6666667 127.791667,97.2166667 132.575,99.05 C137.358333,100.883333 142.7,101.8 148.6,101.8 Z M197.2,101 L197.2,26.7 L184.85,26.7 L184.85,101 L197.2,101 Z M232.25,101.75 C236.05,101.75 239.508333,101.133333 242.625,99.9 C245.741667,98.6666667 248.408333,96.9 250.625,94.6 C252.841667,92.3 254.55,89.5166667 255.75,86.25 C256.95,82.9833333 257.55,79.3166667 257.55,75.25 C257.55,71.2166667 256.95,67.5666667 255.75,64.3 C254.55,61.0333333 252.841667,58.2666667 250.625,56 C248.408333,53.7333333 245.741667,51.9833333 242.625,50.75 C239.508333,49.5166667 236.05,48.9 232.25,48.9 C228.416667,48.9 224.933333,49.5166667 221.8,50.75 C218.666667,51.9833333 215.991667,53.7333333 213.775,56 C211.558333,58.2666667 209.841667,61.0333333 208.625,64.3 C207.408333,67.5666667 206.8,71.2166667 206.8,75.25 C206.8,79.3166667 207.408333,82.9833333 208.625,86.25 C209.841667,89.5166667 211.558333,92.3 213.775,94.6 C215.991667,96.9 218.666667,98.6666667 221.8,99.9 C224.933333,101.133333 228.416667,101.75 232.25,101.75 Z M232.25,92.25 C227.916667,92.25 224.708333,90.8083333 222.625,87.925 C220.541667,85.0416667 219.5,80.85 219.5,75.35 C219.5,69.85 220.541667,65.6416667 222.625,62.725 C224.708333,59.8083333 227.916667,58.35 232.25,58.35 C236.516667,58.35 239.675,59.8 241.725,62.7 C243.775,65.6 244.8,69.8166667 244.8,75.35 C244.8,80.8833333 243.775,85.0833333 241.725,87.95 C239.675,90.8166667 236.516667,92.25 232.25,92.25 Z M292.3,101.75 C295.6,101.75 298.6,101.083333 301.3,99.75 C304,98.4166667 306.308333,96.5416667 308.225,94.125 C310.141667,91.7083333 311.616667,88.8 312.65,85.4 C313.683333,82 314.2,78.2166667 314.2,74.05 C314.2,70.1833333 313.75,66.7 312.85,63.6 C311.95,60.5 310.658333,57.8583333 308.975,55.675 C307.291667,53.4916667 305.258333,51.8166667 302.875,50.65 C300.491667,49.4833333 297.816667,48.9 294.85,48.9 C291.616667,48.9 288.741667,49.5416667 286.225,50.825 C283.708333,52.1083333 281.416667,53.8333333 279.35,56 L279.35,56 L279.35,26.7 L267,26.7 L267,101 L275.15,101 C275.983333,101 276.641667,100.816667 277.125,100.45 C277.608333,100.083333 277.95,99.4666667 278.15,98.6 L278.15,98.6 L278.7,95.15 C279.533333,96.15 280.408333,97.0583333 281.325,97.875 C282.241667,98.6916667 283.25,99.3833333 284.35,99.95 C285.45,100.516667 286.65,100.958333 287.95,101.275 C289.25,101.591667 290.7,101.75 292.3,101.75 Z M289.15,92.35 C287.316667,92.35 285.575,92 283.925,91.3 C282.275,90.6 280.75,89.4 279.35,87.7 L279.35,87.7 L279.35,64.7 C280.95,62.7333333 282.633333,61.2083333 284.4,60.125 C286.166667,59.0416667 288.233333,58.5 290.6,58.5 C294.1,58.5 296.783333,59.7583333 298.65,62.275 C300.516667,64.7916667 301.45,68.8666667 301.45,74.5 C301.45,77.6333333 301.166667,80.325 300.6,82.575 C300.033333,84.825 299.216667,86.675 298.15,88.125 C297.083333,89.575 295.791667,90.6416667 294.275,91.325 C292.758333,92.0083333 291.05,92.35 289.15,92.35 Z M335.05,101.8 C336.883333,101.8 338.558333,101.641667 340.075,101.325 C341.591667,101.008333 343.016667,100.55 344.35,99.95 C345.683333,99.35 346.966667,98.6083333 348.2,97.725 C349.433333,96.8416667 350.7,95.8166667 352,94.65 L352,94.65 L353.1,98.35 C353.466667,99.4166667 353.966667,100.125 354.6,100.475 C355.233333,100.825 356.133333,101 357.3,101 L357.3,101 L362.9,101 L362.9,68.6 C362.9,65.7 362.475,63.0333333 361.625,60.6 C360.775,58.1666667 359.533333,56.075 357.9,54.325 C356.266667,52.575 354.266667,51.2083333 351.9,50.225 C349.533333,49.2416667 346.85,48.75 343.85,48.75 C335.55,48.75 328.45,51.45 322.55,56.85 L322.55,56.85 L324.75,60.8 C325.116667,61.4 325.6,61.925 326.2,62.375 C326.8,62.825 327.533333,63.05 328.4,63.05 C329.4,63.05 330.308333,62.8166667 331.125,62.35 C331.941667,61.8833333 332.85,61.3583333 333.85,60.775 C334.85,60.1916667 336.008333,59.6666667 337.325,59.2 C338.641667,58.7333333 340.3,58.5 342.3,58.5 C345.066667,58.5 347.183333,59.325 348.65,60.975 C350.116667,62.625 350.85,65.1666667 350.85,68.6 L350.85,68.6 L350.85,71.6 C346.95,71.7 343.483333,71.9916667 340.45,72.475 C337.416667,72.9583333 334.758333,73.5833333 332.475,74.35 C330.191667,75.1166667 328.266667,76.0166667 326.7,77.05 C325.133333,78.0833333 323.858333,79.1833333 322.875,80.35 C321.891667,81.5166667 321.183333,82.7416667 320.75,84.025 C320.316667,85.3083333 320.1,86.6 320.1,87.9 C320.1,90.2 320.466667,92.2166667 321.2,93.95 C321.933333,95.6833333 322.966667,97.1333333 324.3,98.3 C325.633333,99.4666667 327.216667,100.341667 329.05,100.925 C330.883333,101.508333 332.883333,101.8 335.05,101.8 Z M338.85,93.3 C336.783333,93.3 335.108333,92.8333333 333.825,91.9 C332.541667,90.9666667 331.9,89.4166667 331.9,87.25 C331.9,86.15 332.216667,85.1333333 332.85,84.2 C333.483333,83.2666667 334.533333,82.45 336,81.75 C337.466667,81.05 339.416667,80.475 341.85,80.025 C344.283333,79.575 347.283333,79.2666667 350.85,79.1 L350.85,79.1 L350.85,87.75 C349.083333,89.6166667 347.275,91.0083333 345.425,91.925 C343.575,92.8416667 341.383333,93.3 338.85,93.3 Z M387,101 L387,26.7 L374.65,26.7 L374.65,101 L387,101 Z" id="Global" fill="#000000" fill-rule="nonzero" class="oyHalDaA_19"></path>
        <text id="Platform-in" font-family="Baskerville-Italic, Baskerville" font-size="100" font-style="italic" font-weight="normal" letter-spacing="1" fill="#000000">
            <tspan x="354" y="206">Platform in</tspan>
        </text>
        <text id="Health" font-family="Lato-Bold, Lato" font-size="100" font-weight="bold" letter-spacing="1" fill="#000000">
            <tspan x="161" y="328">Health</tspan>
        </text>
        <text id="&amp;-Wellness" font-family="Lato-Bold, Lato" font-size="100" font-weight="bold" letter-spacing="1" fill="#000000">
            <tspan x="503" y="328">&amp; Wellness</tspan>
        </text>
    </g>
<style data-made-with="vivus-instant">.oyHalDaA_0{stroke-dasharray:660 662;stroke-dashoffset:661;animation:oyHalDaA_draw 1600ms ease 0ms forwards;}.oyHalDaA_1{stroke-dasharray:207 209;stroke-dashoffset:208;animation:oyHalDaA_draw 1600ms ease 42ms forwards;}.oyHalDaA_2{stroke-dasharray:31 33;stroke-dashoffset:32;animation:oyHalDaA_draw 1600ms ease 84ms forwards;}.oyHalDaA_3{stroke-dasharray:219 221;stroke-dashoffset:220;animation:oyHalDaA_draw 1600ms ease 126ms forwards;}.oyHalDaA_4{stroke-dasharray:138 140;stroke-dashoffset:139;animation:oyHalDaA_draw 1600ms ease 168ms forwards;}.oyHalDaA_5{stroke-dasharray:224 226;stroke-dashoffset:225;animation:oyHalDaA_draw 1600ms ease 210ms forwards;}.oyHalDaA_6{stroke-dasharray:256 258;stroke-dashoffset:257;animation:oyHalDaA_draw 1600ms ease 252ms forwards;}.oyHalDaA_7{stroke-dasharray:194 196;stroke-dashoffset:195;animation:oyHalDaA_draw 1600ms ease 294ms forwards;}.oyHalDaA_8{stroke-dasharray:143 145;stroke-dashoffset:144;animation:oyHalDaA_draw 1600ms ease 336ms forwards;}.oyHalDaA_9{stroke-dasharray:145 147;stroke-dashoffset:146;animation:oyHalDaA_draw 1600ms ease 378ms forwards;}.oyHalDaA_10{stroke-dasharray:186 188;stroke-dashoffset:187;animation:oyHalDaA_draw 1600ms ease 421ms forwards;}.oyHalDaA_11{stroke-dasharray:583 585;stroke-dashoffset:584;animation:oyHalDaA_draw 1600ms ease 463ms forwards;}.oyHalDaA_12{stroke-dasharray:35 37;stroke-dashoffset:36;animation:oyHalDaA_draw 1600ms ease 505ms forwards;}.oyHalDaA_13{stroke-dasharray:19 21;stroke-dashoffset:20;animation:oyHalDaA_draw 1600ms ease 547ms forwards;}.oyHalDaA_14{stroke-dasharray:16 18;stroke-dashoffset:17;animation:oyHalDaA_draw 1600ms ease 589ms forwards;}.oyHalDaA_15{stroke-dasharray:35 37;stroke-dashoffset:36;animation:oyHalDaA_draw 1600ms ease 631ms forwards;}.oyHalDaA_16{stroke-dasharray:16 18;stroke-dashoffset:17;animation:oyHalDaA_draw 1600ms ease 673ms forwards;}.oyHalDaA_17{stroke-dasharray:222 224;stroke-dashoffset:223;animation:oyHalDaA_draw 1600ms ease 715ms forwards;}.oyHalDaA_18{stroke-dasharray:29 31;stroke-dashoffset:30;animation:oyHalDaA_draw 1600ms ease 757ms forwards;}.oyHalDaA_19{stroke-dasharray:1611 1613;stroke-dashoffset:1612;animation:oyHalDaA_draw 1600ms ease 800ms forwards;}@keyframes oyHalDaA_draw{100%{stroke-dashoffset:0;}}@keyframes oyHalDaA_fade{0%{stroke-opacity:1;}98.46153846153847%{stroke-opacity:1;}100%{stroke-opacity:0;}}</style></svg>