<svg width="1180" height="340" viewBox="0 0 1180 340" fill="none" xmlns="http://www.w3.org/2000/svg">
<path d="M208.383 233C208.383 233 246.883 228 323.883 228C400.883 228 439.383 233 439.383 233V284V340C439.383 340 385.883 333 323.883 333C261.883 333 208.383 338 208.383 338V233Z" fill="#BFD6C9"/>
<path d="M178.469 4.7L156.019 77H143.869L128.069 27.6C127.636 26.4 127.236 24.9333 126.869 23.2C126.669 24.0333 126.469 24.8167 126.269 25.55C126.069 26.2833 125.852 26.9667 125.619 27.6L109.669 77H97.4691L75.0691 4.7H86.3191C87.4858 4.7 88.4525 4.98333 89.2191 5.55C90.0191 6.08333 90.5525 6.81667 90.8191 7.75L103.119 51C103.386 52.0667 103.636 53.2333 103.869 54.5C104.136 55.7333 104.402 57.0333 104.669 58.4C104.936 57 105.219 55.6833 105.519 54.45C105.852 53.2167 106.202 52.0667 106.569 51L120.769 7.75C121.036 6.98333 121.552 6.28333 122.319 5.65C123.119 5.01667 124.086 4.7 125.219 4.7H129.169C130.336 4.7 131.286 4.98333 132.019 5.55C132.752 6.11667 133.302 6.85 133.669 7.75L147.819 51C148.519 53.0667 149.152 55.45 149.719 58.15C150.152 55.5167 150.636 53.1333 151.169 51L163.469 7.75C163.669 6.91667 164.169 6.2 164.969 5.6C165.802 5 166.786 4.7 167.919 4.7H178.469Z" fill="black"/>
<path d="M214.393 45.45C214.393 43.85 214.159 42.35 213.693 40.95C213.259 39.5167 212.593 38.2667 211.693 37.2C210.793 36.1333 209.643 35.3 208.243 34.7C206.876 34.0667 205.276 33.75 203.443 33.75C199.876 33.75 197.059 34.7667 194.993 36.8C192.959 38.8333 191.659 41.7167 191.093 45.45H214.393ZM190.843 52.9C191.043 55.5333 191.509 57.8167 192.243 59.75C192.976 61.65 193.943 63.2333 195.143 64.5C196.343 65.7333 197.759 66.6667 199.393 67.3C201.059 67.9 202.893 68.2 204.893 68.2C206.893 68.2 208.609 67.9667 210.043 67.5C211.509 67.0333 212.776 66.5167 213.843 65.95C214.943 65.3833 215.893 64.8667 216.693 64.4C217.526 63.9333 218.326 63.7 219.093 63.7C220.126 63.7 220.893 64.0833 221.393 64.85L224.943 69.35C223.576 70.95 222.043 72.3 220.343 73.4C218.643 74.4667 216.859 75.3333 214.993 76C213.159 76.6333 211.276 77.0833 209.343 77.35C207.443 77.6167 205.593 77.75 203.793 77.75C200.226 77.75 196.909 77.1667 193.843 76C190.776 74.8 188.109 73.05 185.843 70.75C183.576 68.4167 181.793 65.55 180.493 62.15C179.193 58.7167 178.543 54.75 178.543 50.25C178.543 46.75 179.109 43.4667 180.243 40.4C181.376 37.3 182.993 34.6167 185.093 32.35C187.226 30.05 189.809 28.2333 192.843 26.9C195.909 25.5667 199.359 24.9 203.193 24.9C206.426 24.9 209.409 25.4167 212.143 26.45C214.876 27.4833 217.226 29 219.193 31C221.159 32.9667 222.693 35.4 223.793 38.3C224.926 41.1667 225.493 44.45 225.493 48.15C225.493 50.0167 225.293 51.2833 224.893 51.95C224.493 52.5833 223.726 52.9 222.593 52.9H190.843Z" fill="black"/>
<path d="M325.977 4.7V77H312.477V45.4H278.527V77H265.027V4.7H278.527V35.8H312.477V4.7H325.977Z" fill="black"/>
<path d="M373.615 45.45C373.615 43.85 373.382 42.35 372.915 40.95C372.482 39.5167 371.815 38.2667 370.915 37.2C370.015 36.1333 368.865 35.3 367.465 34.7C366.099 34.0667 364.499 33.75 362.665 33.75C359.099 33.75 356.282 34.7667 354.215 36.8C352.182 38.8333 350.882 41.7167 350.315 45.45H373.615ZM350.065 52.9C350.265 55.5333 350.732 57.8167 351.465 59.75C352.199 61.65 353.165 63.2333 354.365 64.5C355.565 65.7333 356.982 66.6667 358.615 67.3C360.282 67.9 362.115 68.2 364.115 68.2C366.115 68.2 367.832 67.9667 369.265 67.5C370.732 67.0333 371.999 66.5167 373.065 65.95C374.165 65.3833 375.115 64.8667 375.915 64.4C376.749 63.9333 377.549 63.7 378.315 63.7C379.349 63.7 380.115 64.0833 380.615 64.85L384.165 69.35C382.799 70.95 381.265 72.3 379.565 73.4C377.865 74.4667 376.082 75.3333 374.215 76C372.382 76.6333 370.499 77.0833 368.565 77.35C366.665 77.6167 364.815 77.75 363.015 77.75C359.449 77.75 356.132 77.1667 353.065 76C349.999 74.8 347.332 73.05 345.065 70.75C342.799 68.4167 341.015 65.55 339.715 62.15C338.415 58.7167 337.765 54.75 337.765 50.25C337.765 46.75 338.332 43.4667 339.465 40.4C340.599 37.3 342.215 34.6167 344.315 32.35C346.449 30.05 349.032 28.2333 352.065 26.9C355.132 25.5667 358.582 24.9 362.415 24.9C365.649 24.9 368.632 25.4167 371.365 26.45C374.099 27.4833 376.449 29 378.415 31C380.382 32.9667 381.915 35.4 383.015 38.3C384.149 41.1667 384.715 44.45 384.715 48.15C384.715 50.0167 384.515 51.2833 384.115 51.95C383.715 52.5833 382.949 52.9 381.815 52.9H350.065Z" fill="black"/>
<path d="M408.483 2.7V77H396.133V2.7H408.483Z" fill="black"/>
<path d="M435.138 63.7C436.538 65.4 438.055 66.6 439.688 67.3C441.355 68 443.155 68.35 445.088 68.35C446.955 68.35 448.638 68 450.138 67.3C451.638 66.6 452.905 65.5333 453.938 64.1C455.005 62.6667 455.821 60.8667 456.388 58.7C456.955 56.5 457.238 53.9167 457.238 50.95C457.238 47.95 456.988 45.4167 456.488 43.35C456.021 41.25 455.338 39.55 454.438 38.25C453.538 36.95 452.438 36 451.138 35.4C449.871 34.8 448.421 34.5 446.788 34.5C444.221 34.5 442.038 35.05 440.238 36.15C438.438 37.2167 436.738 38.7333 435.138 40.7V63.7ZM434.488 32.7C436.588 30.3333 438.971 28.4167 441.638 26.95C444.305 25.4833 447.438 24.75 451.038 24.75C453.838 24.75 456.388 25.3333 458.688 26.5C461.021 27.6667 463.021 29.3667 464.688 31.6C466.388 33.8 467.688 36.5333 468.588 39.8C469.521 43.0333 469.988 46.75 469.988 50.95C469.988 54.7833 469.471 58.3333 468.438 61.6C467.405 64.8667 465.921 67.7 463.988 70.1C462.088 72.5 459.771 74.3833 457.038 75.75C454.338 77.0833 451.305 77.75 447.938 77.75C445.071 77.75 442.621 77.3167 440.588 76.45C438.555 75.55 436.738 74.3167 435.138 72.75V93.75H422.788V25.7H430.338C431.938 25.7 432.988 26.45 433.488 27.95L434.488 32.7Z" fill="black"/>
<path d="M500.34 73C502.54 73 504.34 72.8333 505.74 72.5C507.207 72.1667 508.407 71.5667 509.34 70.7C510.34 69.7667 511.174 68.5667 511.84 67.1C512.507 65.5667 513.14 63.6 513.74 61.2L525.34 17.1C525.807 15.3667 526.14 13.8667 526.34 12.6C526.607 11.3333 526.74 10.2333 526.74 9.3C526.74 7.1 525.974 5.66667 524.44 5C522.907 4.33333 520.34 4 516.74 4L517.84 0H572.44V20.2H568.64C567.774 17 566.807 14.4 565.74 12.4C564.674 10.3333 563.44 8.73333 562.04 7.6C560.707 6.4 559.174 5.56667 557.44 5.1C555.774 4.63334 553.907 4.4 551.84 4.4H538.84L531.04 34.1H537.34C539.14 34.1 540.674 33.9333 541.94 33.6C543.207 33.2667 544.34 32.7 545.34 31.9C546.407 31.0333 547.374 29.8667 548.24 28.4C549.174 26.9333 550.174 25.0333 551.24 22.7H554.94L548.94 52.3H544.94C545.14 50.3 545.24 48.5667 545.24 47.1C545.24 44.1 544.674 41.9333 543.54 40.6C542.407 39.2 540.307 38.5 537.24 38.5H529.74L524.04 60C523.44 62.2 523.14 64.0667 523.14 65.6C523.14 68 524.207 69.8 526.34 71C528.474 72.1333 532.14 72.7 537.34 72.7C541.14 72.7 544.44 72.4 547.24 71.8C550.107 71.2 552.574 70.2667 554.64 69C556.774 67.6667 558.607 65.9333 560.14 63.8C561.74 61.6667 563.24 59.0333 564.64 55.9H569.34L561.54 77H499.24L500.34 73Z" fill="black"/>
<path d="M615.164 60.9C612.364 66.4333 609.097 70.6667 605.364 73.6C601.697 76.5333 597.764 78 593.564 78C589.23 78 585.764 76.5333 583.164 73.6C580.564 70.6 579.264 66.6333 579.264 61.7C579.264 58.7667 579.697 55.7667 580.564 52.7C581.43 49.6333 582.597 46.6667 584.064 43.8C585.53 40.9333 587.264 38.2333 589.264 35.7C591.264 33.1667 593.397 30.9667 595.664 29.1C597.93 27.2333 600.264 25.7667 602.664 24.7C605.13 23.5667 607.53 23 609.864 23C613.064 23 615.697 23.8667 617.764 25.6C619.83 27.3333 620.864 29.5 620.864 32.1C620.864 33.7667 620.364 35.1333 619.364 36.2C618.43 37.2 617.197 37.7 615.664 37.7C614.13 37.7 612.864 37.2333 611.864 36.3C610.93 35.3 610.464 34.1 610.464 32.7C610.464 31.8333 610.597 31.1333 610.864 30.6C611.13 30.0667 611.264 29.5667 611.264 29.1C611.264 28.1667 610.464 27.7 608.864 27.7C606.664 27.7 604.43 28.7333 602.164 30.8C599.897 32.8667 597.83 35.5333 595.964 38.8C594.164 42.0667 592.664 45.7333 591.464 49.8C590.33 53.8 589.764 57.8 589.764 61.8C589.764 65 590.364 67.5333 591.564 69.4C592.83 71.2 594.564 72.1 596.764 72.1C597.964 72.1 599.197 71.7667 600.464 71.1C601.797 70.4333 603.13 69.5333 604.464 68.4C605.797 67.2 607.064 65.8 608.264 64.2C609.53 62.6 610.664 60.8333 611.664 58.9L615.164 60.9Z" fill="black"/>
<path d="M642.704 78C640.438 78 638.304 77.5667 636.304 76.7C634.371 75.7667 632.671 74.4333 631.204 72.7C629.738 70.9667 628.571 68.8667 627.704 66.4C626.838 63.8667 626.404 61.0333 626.404 57.9C626.404 53.5667 627.204 49.3 628.804 45.1C630.471 40.9 632.638 37.1667 635.304 33.9C637.971 30.6333 641.004 28 644.404 26C647.871 24 651.438 23 655.104 23C657.504 23 659.704 23.4667 661.704 24.4C663.771 25.2667 665.504 26.5667 666.904 28.3C668.371 29.9667 669.504 32 670.304 34.4C671.171 36.7333 671.604 39.3333 671.604 42.2C671.604 46.4 670.771 50.6333 669.104 54.9C667.438 59.1667 665.238 63 662.504 66.4C659.838 69.8 656.771 72.6 653.304 74.8C649.838 76.9333 646.304 78 642.704 78ZM643.304 73C645.571 73 647.804 71.8333 650.004 69.5C652.271 67.1667 654.271 64.2333 656.004 60.7C657.804 57.1 659.238 53.2 660.304 49C661.438 44.8 662.004 40.8 662.004 37C662.004 33.4667 661.371 31.0333 660.104 29.7C658.904 28.3667 657.238 27.7 655.104 27.7C653.638 27.7 652.138 28.2333 650.604 29.3C649.138 30.3 647.738 31.7 646.404 33.5C645.071 35.3 643.804 37.3667 642.604 39.7C641.471 42.0333 640.471 44.5 639.604 47.1C638.738 49.7 638.071 52.3667 637.604 55.1C637.138 57.7667 636.904 60.3333 636.904 62.8C636.904 66.5333 637.504 69.1667 638.704 70.7C639.904 72.2333 641.438 73 643.304 73Z" fill="black"/>
<path d="M744.648 43.7C745.515 41.2333 746.181 39.2667 746.648 37.8C747.181 36.3333 747.581 35.2 747.848 34.4C748.115 33.5333 748.281 32.8667 748.348 32.4C748.415 31.9333 748.448 31.5 748.448 31.1C748.448 29.1667 747.781 28.2 746.448 28.2C744.648 28.2 742.515 29.4333 740.048 31.9C737.581 34.3 734.915 37.8 732.048 42.4C731.048 44 730.115 45.6333 729.248 47.3C728.381 48.9 727.448 50.9333 726.448 53.4C725.448 55.8 724.281 58.8667 722.948 62.6C721.615 66.3333 719.915 71.1333 717.848 77H708.448L715.048 56.9C716.448 52.6333 717.615 49.0667 718.548 46.2C719.481 43.2667 720.215 40.8333 720.748 38.9C721.281 36.9667 721.648 35.4333 721.848 34.3C722.115 33.1667 722.248 32.2333 722.248 31.5C722.248 29.3 721.415 28.2 719.748 28.2C718.415 28.2 716.815 28.9667 714.948 30.5C713.081 32.0333 711.181 34.0333 709.248 36.5C707.315 38.9667 705.448 41.7667 703.648 44.9C701.915 47.9667 700.448 51.1 699.248 54.3L690.848 77H682.048L689.448 54.1C690.715 50.2333 691.748 47 692.548 44.4C693.348 41.7333 693.981 39.5667 694.448 37.9C694.915 36.1667 695.248 34.8 695.448 33.8C695.648 32.8 695.748 31.9667 695.748 31.3C695.748 29.4333 695.181 28.5 694.048 28.5C693.315 28.5 692.448 28.9333 691.448 29.8C690.515 30.6667 689.548 31.8667 688.548 33.4C687.548 34.8667 686.548 36.5667 685.548 38.5C684.615 40.4333 683.781 42.4667 683.048 44.6L680.048 43.1C682.381 36.2333 684.981 31.1667 687.848 27.9C690.781 24.6333 694.115 23 697.848 23C699.981 23 701.481 23.6 702.348 24.8C703.281 26 703.748 28 703.748 30.8C703.748 34 703.181 37.0667 702.048 40L702.348 40.3C708.548 28.7667 715.115 23 722.048 23C724.648 23 726.681 23.8 728.148 25.4C729.615 26.9333 730.348 29.1 730.348 31.9C730.348 32.8333 730.215 33.9 729.948 35.1C729.748 36.3 729.315 38.0667 728.648 40.4L728.848 40.7C730.715 37.5 732.481 34.8 734.148 32.6C735.881 30.3333 737.548 28.5 739.148 27.1C740.748 25.7 742.348 24.6667 743.948 24C745.615 23.3333 747.315 23 749.048 23C751.648 23 753.581 23.7 754.848 25.1C756.181 26.5 756.848 28.7 756.848 31.7C756.848 32.6333 756.748 33.6667 756.548 34.8C756.348 35.8667 756.048 37.1667 755.648 38.7C755.248 40.1667 754.715 41.9 754.048 43.9C753.448 45.8333 752.715 48.1333 751.848 50.8C750.715 54.2 749.815 56.9333 749.148 59C748.481 61 747.981 62.6 747.648 63.8C747.315 65 747.081 65.9 746.948 66.5C746.881 67.1 746.848 67.7 746.848 68.3C746.848 69.5667 747.181 70.2 747.848 70.2C748.848 70.2 750.348 69.2667 752.348 67.4C754.348 65.4667 756.948 62.5 760.148 58.5L762.748 59.9C761.615 62.1 760.148 64.3 758.348 66.5C756.615 68.6333 754.781 70.5667 752.848 72.3C750.915 73.9667 748.981 75.3333 747.048 76.4C745.181 77.4667 743.548 78 742.148 78C740.481 78 739.148 77.3 738.148 75.9C737.215 74.4333 736.748 72.5 736.748 70.1C736.748 69.3 736.815 68.4 736.948 67.4C737.148 66.4 737.515 64.9667 738.048 63.1C738.648 61.2333 739.448 58.7667 740.448 55.7C741.515 52.6333 742.915 48.6333 744.648 43.7Z" fill="black"/>
<path d="M833.66 43.7C834.526 41.2333 835.193 39.2667 835.66 37.8C836.193 36.3333 836.593 35.2 836.86 34.4C837.126 33.5333 837.293 32.8667 837.36 32.4C837.426 31.9333 837.46 31.5 837.46 31.1C837.46 29.1667 836.793 28.2 835.46 28.2C833.66 28.2 831.526 29.4333 829.06 31.9C826.593 34.3 823.926 37.8 821.06 42.4C820.06 44 819.126 45.6333 818.26 47.3C817.393 48.9 816.46 50.9333 815.46 53.4C814.46 55.8 813.293 58.8667 811.96 62.6C810.626 66.3333 808.926 71.1333 806.86 77H797.46L804.06 56.9C805.46 52.6333 806.626 49.0667 807.56 46.2C808.493 43.2667 809.226 40.8333 809.76 38.9C810.293 36.9667 810.66 35.4333 810.86 34.3C811.126 33.1667 811.26 32.2333 811.26 31.5C811.26 29.3 810.426 28.2 808.76 28.2C807.426 28.2 805.826 28.9667 803.96 30.5C802.093 32.0333 800.193 34.0333 798.26 36.5C796.326 38.9667 794.46 41.7667 792.66 44.9C790.926 47.9667 789.46 51.1 788.26 54.3L779.86 77H771.06L778.46 54.1C779.726 50.2333 780.76 47 781.56 44.4C782.36 41.7333 782.993 39.5667 783.46 37.9C783.926 36.1667 784.26 34.8 784.46 33.8C784.66 32.8 784.76 31.9667 784.76 31.3C784.76 29.4333 784.193 28.5 783.06 28.5C782.326 28.5 781.46 28.9333 780.46 29.8C779.526 30.6667 778.56 31.8667 777.56 33.4C776.56 34.8667 775.56 36.5667 774.56 38.5C773.626 40.4333 772.793 42.4667 772.06 44.6L769.06 43.1C771.393 36.2333 773.993 31.1667 776.86 27.9C779.793 24.6333 783.126 23 786.86 23C788.993 23 790.493 23.6 791.36 24.8C792.293 26 792.76 28 792.76 30.8C792.76 34 792.193 37.0667 791.06 40L791.36 40.3C797.56 28.7667 804.126 23 811.06 23C813.66 23 815.693 23.8 817.16 25.4C818.626 26.9333 819.36 29.1 819.36 31.9C819.36 32.8333 819.226 33.9 818.96 35.1C818.76 36.3 818.326 38.0667 817.66 40.4L817.86 40.7C819.726 37.5 821.493 34.8 823.16 32.6C824.893 30.3333 826.56 28.5 828.16 27.1C829.76 25.7 831.36 24.6667 832.96 24C834.626 23.3333 836.326 23 838.06 23C840.66 23 842.593 23.7 843.86 25.1C845.193 26.5 845.86 28.7 845.86 31.7C845.86 32.6333 845.76 33.6667 845.56 34.8C845.36 35.8667 845.06 37.1667 844.66 38.7C844.26 40.1667 843.726 41.9 843.06 43.9C842.46 45.8333 841.726 48.1333 840.86 50.8C839.726 54.2 838.826 56.9333 838.16 59C837.493 61 836.993 62.6 836.66 63.8C836.326 65 836.093 65.9 835.96 66.5C835.893 67.1 835.86 67.7 835.86 68.3C835.86 69.5667 836.193 70.2 836.86 70.2C837.86 70.2 839.36 69.2667 841.36 67.4C843.36 65.4667 845.96 62.5 849.16 58.5L851.76 59.9C850.626 62.1 849.16 64.3 847.36 66.5C845.626 68.6333 843.793 70.5667 841.86 72.3C839.926 73.9667 837.993 75.3333 836.06 76.4C834.193 77.4667 832.56 78 831.16 78C829.493 78 828.16 77.3 827.16 75.9C826.226 74.4333 825.76 72.5 825.76 70.1C825.76 69.3 825.826 68.4 825.96 67.4C826.16 66.4 826.526 64.9667 827.06 63.1C827.66 61.2333 828.46 58.7667 829.46 55.7C830.526 52.6333 831.926 48.6333 833.66 43.7Z" fill="black"/>
<path d="M893.471 63.7C887.671 73.2333 880.538 78 872.071 78C867.471 78 863.938 76.6 861.471 73.8C859.005 70.9333 857.771 66.9 857.771 61.7C857.771 57.1 858.705 52.5 860.571 47.9C862.505 43.3 865.005 39.1667 868.071 35.5C871.138 31.7667 874.571 28.7667 878.371 26.5C882.171 24.1667 885.971 23 889.771 23C892.971 23 895.571 23.8333 897.571 25.5C899.638 27.1 900.672 29.1667 900.672 31.7C900.672 34.0333 899.805 36.4333 898.071 38.9C896.338 41.3667 893.971 43.7 890.971 45.9C888.038 48.1 884.571 50.1 880.571 51.9C876.638 53.7 872.438 55.1 867.971 56.1C867.838 57.0333 867.738 57.9667 867.672 58.9C867.605 59.7667 867.571 60.6667 867.571 61.6C867.571 68.8667 870.138 72.5 875.271 72.5C877.738 72.5 880.271 71.5333 882.871 69.6C885.538 67.6667 888.005 65 890.271 61.6L893.471 63.7ZM887.771 27.7C886.038 27.7 884.238 28.3667 882.371 29.7C880.505 31.0333 878.705 32.8333 876.971 35.1C875.305 37.3 873.771 39.8333 872.371 42.7C870.971 45.5667 869.838 48.5333 868.971 51.6C872.171 50.7333 875.138 49.6 877.871 48.2C880.605 46.8 882.938 45.2333 884.871 43.5C886.871 41.7 888.438 39.8333 889.571 37.9C890.705 35.9 891.271 33.9 891.271 31.9C891.271 29.1 890.105 27.7 887.771 27.7Z" fill="black"/>
<path d="M906.077 37.9C906.81 36.2333 907.91 34.5333 909.377 32.8C910.91 31 912.544 29.4 914.277 28C916.077 26.5333 917.877 25.3333 919.677 24.4C921.477 23.4667 923.044 23 924.377 23C925.977 23 927.144 23.6 927.877 24.8C928.61 26 928.977 27.9333 928.977 30.6C928.977 31.6667 928.91 32.7 928.777 33.7C928.71 34.7 928.544 35.8667 928.277 37.2L928.577 37.5C929.377 35.5667 930.51 33.6667 931.977 31.8C933.444 29.9333 935.01 28.3 936.677 26.9C938.41 25.4333 940.144 24.2667 941.877 23.4C943.677 22.4667 945.344 22 946.877 22C948.81 22 950.41 22.6333 951.677 23.9C953.01 25.1 953.677 26.6 953.677 28.4C953.677 30.1333 953.11 31.5667 951.977 32.7C950.91 33.8333 949.51 34.4 947.777 34.4C946.71 34.4 945.844 34.2 945.177 33.8C944.577 33.4 944.044 33 943.577 32.6C943.11 32.1333 942.677 31.7 942.277 31.3C941.877 30.9 941.377 30.7 940.777 30.7C939.51 30.7 938.044 31.5667 936.377 33.3C934.71 34.9667 932.977 37.2667 931.177 40.2C929.377 43.1333 927.577 46.5667 925.777 50.5C924.044 54.4333 922.444 58.6667 920.977 63.2L916.477 77H907.177L913.677 56.3C914.944 52.3 915.977 49 916.777 46.4C917.644 43.7333 918.31 41.5333 918.777 39.8C919.244 38 919.544 36.6 919.677 35.6C919.877 34.6 919.977 33.7333 919.977 33C919.977 31.5333 919.477 30.8 918.477 30.8C917.81 30.8 916.977 31.0667 915.977 31.6C915.044 32.1333 914.11 32.8 913.177 33.6C912.244 34.4 911.344 35.3 910.477 36.3C909.677 37.3 909.077 38.2667 908.677 39.2L906.077 37.9Z" fill="black"/>
<path d="M988.101 60.9C985.301 66.4333 982.034 70.6667 978.301 73.6C974.634 76.5333 970.701 78 966.501 78C962.168 78 958.701 76.5333 956.101 73.6C953.501 70.6 952.201 66.6333 952.201 61.7C952.201 58.7667 952.634 55.7667 953.501 52.7C954.368 49.6333 955.534 46.6667 957.001 43.8C958.468 40.9333 960.201 38.2333 962.201 35.7C964.201 33.1667 966.335 30.9667 968.601 29.1C970.868 27.2333 973.201 25.7667 975.601 24.7C978.068 23.5667 980.468 23 982.801 23C986.001 23 988.635 23.8667 990.701 25.6C992.768 27.3333 993.801 29.5 993.801 32.1C993.801 33.7667 993.301 35.1333 992.301 36.2C991.368 37.2 990.135 37.7 988.601 37.7C987.068 37.7 985.801 37.2333 984.801 36.3C983.868 35.3 983.401 34.1 983.401 32.7C983.401 31.8333 983.534 31.1333 983.801 30.6C984.068 30.0667 984.201 29.5667 984.201 29.1C984.201 28.1667 983.401 27.7 981.801 27.7C979.601 27.7 977.368 28.7333 975.101 30.8C972.835 32.8667 970.768 35.5333 968.901 38.8C967.101 42.0667 965.601 45.7333 964.401 49.8C963.268 53.8 962.701 57.8 962.701 61.8C962.701 65 963.301 67.5333 964.501 69.4C965.768 71.2 967.501 72.1 969.701 72.1C970.901 72.1 972.135 71.7667 973.401 71.1C974.735 70.4333 976.068 69.5333 977.401 68.4C978.735 67.2 980.001 65.8 981.201 64.2C982.468 62.6 983.601 60.8333 984.601 58.9L988.101 60.9Z" fill="black"/>
<path d="M1034.04 63.7C1028.24 73.2333 1021.11 78 1012.64 78C1008.04 78 1004.51 76.6 1002.04 73.8C999.575 70.9333 998.342 66.9 998.342 61.7C998.342 57.1 999.275 52.5 1001.14 47.9C1003.08 43.3 1005.58 39.1667 1008.64 35.5C1011.71 31.7667 1015.14 28.7667 1018.94 26.5C1022.74 24.1667 1026.54 23 1030.34 23C1033.54 23 1036.14 23.8333 1038.14 25.5C1040.21 27.1 1041.24 29.1667 1041.24 31.7C1041.24 34.0333 1040.38 36.4333 1038.64 38.9C1036.91 41.3667 1034.54 43.7 1031.54 45.9C1028.61 48.1 1025.14 50.1 1021.14 51.9C1017.21 53.7 1013.01 55.1 1008.54 56.1C1008.41 57.0333 1008.31 57.9667 1008.24 58.9C1008.18 59.7667 1008.14 60.6667 1008.14 61.6C1008.14 68.8667 1010.71 72.5 1015.84 72.5C1018.31 72.5 1020.84 71.5333 1023.44 69.6C1026.11 67.6667 1028.58 65 1030.84 61.6L1034.04 63.7ZM1028.34 27.7C1026.61 27.7 1024.81 28.3667 1022.94 29.7C1021.08 31.0333 1019.28 32.8333 1017.54 35.1C1015.88 37.3 1014.34 39.8333 1012.94 42.7C1011.54 45.5667 1010.41 48.5333 1009.54 51.6C1012.74 50.7333 1015.71 49.6 1018.44 48.2C1021.18 46.8 1023.51 45.2333 1025.44 43.5C1027.44 41.7 1029.01 39.8333 1030.14 37.9C1031.28 35.9 1031.84 33.9 1031.84 31.9C1031.84 29.1 1030.68 27.7 1028.34 27.7Z" fill="black"/>
<path d="M61.1 193C63.3 193 65.1 192.833 66.5 192.5C67.9667 192.167 69.1667 191.567 70.1 190.7C71.1 189.767 71.9333 188.567 72.6 187.1C73.2667 185.567 73.9 183.6 74.5 181.2L86.1 137.1C86.5667 135.367 86.9 133.867 87.1 132.6C87.3667 131.333 87.5 130.233 87.5 129.3C87.5 127.1 86.7333 125.667 85.2 125C83.6667 124.333 81.1 124 77.5 124L78.6 120H133.2V140.2H129.4C128.533 137 127.567 134.4 126.5 132.4C125.433 130.333 124.2 128.733 122.8 127.6C121.467 126.4 119.933 125.567 118.2 125.1C116.533 124.633 114.667 124.4 112.6 124.4H99.6L91.8 154.1H98.1C99.9 154.1 101.433 153.933 102.7 153.6C103.967 153.267 105.1 152.7 106.1 151.9C107.167 151.033 108.133 149.867 109 148.4C109.933 146.933 110.933 145.033 112 142.7H115.7L109.7 172.3H105.7C105.9 170.3 106 168.567 106 167.1C106 164.1 105.433 161.933 104.3 160.6C103.167 159.2 101.067 158.5 98 158.5H90.5L84.8 180C84.2 182.2 83.9 184.067 83.9 185.6C83.9 188 84.9667 189.8 87.1 191C89.2333 192.133 92.9 192.7 98.1 192.7C101.9 192.7 105.2 192.4 108 191.8C110.867 191.2 113.333 190.267 115.4 189C117.533 187.667 119.367 185.933 120.9 183.8C122.5 181.667 124 179.033 125.4 175.9H130.1L122.3 197H60L61.1 193Z" fill="black"/>
<path d="M180.147 148.2C178.547 148.2 176.714 149.033 174.647 150.7C172.647 152.3 170.58 154.467 168.447 157.2C166.38 159.867 164.38 162.933 162.447 166.4C160.514 169.867 158.88 173.4 157.547 177L150.147 197H141.347L148.747 174.1C149.947 170.433 150.947 167.3 151.747 164.7C152.547 162.1 153.18 159.933 153.647 158.2C154.18 156.4 154.547 154.967 154.747 153.9C154.947 152.767 155.047 151.867 155.047 151.2C155.047 149.4 154.48 148.5 153.347 148.5C152.614 148.5 151.747 148.967 150.747 149.9C149.747 150.833 148.714 152.067 147.647 153.6C146.647 155.067 145.68 156.767 144.747 158.7C143.814 160.633 143.014 162.6 142.347 164.6L139.347 163.1C141.68 156.233 144.28 151.167 147.147 147.9C150.08 144.633 153.414 143 157.147 143C159.28 143 160.78 143.6 161.647 144.8C162.58 146 163.047 148.033 163.047 150.9C163.047 154.3 162.48 157.333 161.347 160L161.647 160.3C165.047 154.3 168.48 149.933 171.947 147.2C175.48 144.4 179.314 143 183.447 143C186.38 143 188.614 143.7 190.147 145.1C191.68 146.5 192.447 148.5 192.447 151.1C192.447 151.967 192.347 152.933 192.147 154C192.014 155.067 191.747 156.367 191.347 157.9C190.947 159.367 190.38 161.133 189.647 163.2C188.98 165.267 188.147 167.8 187.147 170.8C185.614 175.333 184.347 179.133 183.347 182.2C182.347 185.267 181.847 187.433 181.847 188.7C181.847 189.7 182.18 190.2 182.847 190.2C183.78 190.2 185.147 189.433 186.947 187.9C188.747 186.367 191.18 183.9 194.247 180.5L196.847 181.9C195.78 183.9 194.38 185.867 192.647 187.8C190.98 189.667 189.214 191.367 187.347 192.9C185.547 194.433 183.747 195.667 181.947 196.6C180.147 197.533 178.58 198 177.247 198C175.58 198 174.247 197.267 173.247 195.8C172.314 194.333 171.847 192.4 171.847 190C171.847 189.067 171.914 188.133 172.047 187.2C172.247 186.2 172.614 184.8 173.147 183C173.68 181.2 174.447 178.8 175.447 175.8C176.514 172.733 177.947 168.7 179.747 163.7C180.347 161.967 180.847 160.5 181.247 159.3C181.647 158.1 181.947 157.067 182.147 156.2C182.414 155.267 182.58 154.467 182.647 153.8C182.78 153.133 182.847 152.5 182.847 151.9C182.847 149.433 181.947 148.2 180.147 148.2Z" fill="black"/>
<path d="M225.842 152.3L217.542 179.8C216.409 183.4 215.809 186.133 215.742 188C215.742 188.6 215.876 189.133 216.142 189.6C216.476 190.067 217.009 190.3 217.742 190.3C218.942 190.3 220.209 189.867 221.542 189C222.876 188.067 224.142 187 225.342 185.8C226.609 184.533 227.709 183.267 228.642 182C229.642 180.667 230.376 179.633 230.842 178.9L233.742 180.6C232.609 182.867 231.176 185.067 229.442 187.2C227.709 189.267 225.876 191.1 223.942 192.7C222.009 194.3 220.042 195.6 218.042 196.6C216.109 197.533 214.342 198 212.742 198C210.409 198 208.709 197.5 207.642 196.5C206.642 195.5 206.142 193.833 206.142 191.5C206.142 190.167 206.376 188.367 206.842 186.1C207.309 183.833 208.109 180.733 209.242 176.8L216.642 152.3H208.042L209.342 147.7H218.042L223.242 130.5H232.442L227.242 147.7H238.142L236.742 152.3H225.842Z" fill="black"/>
<path d="M242.966 157.9C243.699 156.233 244.799 154.533 246.266 152.8C247.799 151 249.432 149.4 251.166 148C252.966 146.533 254.766 145.333 256.566 144.4C258.366 143.467 259.932 143 261.266 143C262.866 143 264.032 143.6 264.766 144.8C265.499 146 265.866 147.933 265.866 150.6C265.866 151.667 265.799 152.7 265.666 153.7C265.599 154.7 265.432 155.867 265.166 157.2L265.466 157.5C266.266 155.567 267.399 153.667 268.866 151.8C270.332 149.933 271.899 148.3 273.566 146.9C275.299 145.433 277.032 144.267 278.766 143.4C280.566 142.467 282.232 142 283.766 142C285.699 142 287.299 142.633 288.566 143.9C289.899 145.1 290.566 146.6 290.566 148.4C290.566 150.133 289.999 151.567 288.866 152.7C287.799 153.833 286.399 154.4 284.666 154.4C283.599 154.4 282.732 154.2 282.066 153.8C281.466 153.4 280.932 153 280.466 152.6C279.999 152.133 279.566 151.7 279.166 151.3C278.766 150.9 278.266 150.7 277.666 150.7C276.399 150.7 274.932 151.567 273.266 153.3C271.599 154.967 269.866 157.267 268.066 160.2C266.266 163.133 264.466 166.567 262.666 170.5C260.932 174.433 259.332 178.667 257.866 183.2L253.366 197H244.066L250.566 176.3C251.832 172.3 252.866 169 253.666 166.4C254.532 163.733 255.199 161.533 255.666 159.8C256.132 158 256.432 156.6 256.566 155.6C256.766 154.6 256.866 153.733 256.866 153C256.866 151.533 256.366 150.8 255.366 150.8C254.699 150.8 253.866 151.067 252.866 151.6C251.932 152.133 250.999 152.8 250.066 153.6C249.132 154.4 248.232 155.3 247.366 156.3C246.566 157.3 245.966 158.267 245.566 159.2L242.966 157.9Z" fill="black"/>
<path d="M324.79 183.7C318.99 193.233 311.857 198 303.39 198C298.79 198 295.257 196.6 292.79 193.8C290.323 190.933 289.09 186.9 289.09 181.7C289.09 177.1 290.023 172.5 291.89 167.9C293.823 163.3 296.323 159.167 299.39 155.5C302.457 151.767 305.89 148.767 309.69 146.5C313.49 144.167 317.29 143 321.09 143C324.29 143 326.89 143.833 328.89 145.5C330.957 147.1 331.99 149.167 331.99 151.7C331.99 154.033 331.123 156.433 329.39 158.9C327.656 161.367 325.29 163.7 322.29 165.9C319.357 168.1 315.89 170.1 311.89 171.9C307.957 173.7 303.757 175.1 299.29 176.1C299.157 177.033 299.057 177.967 298.99 178.9C298.923 179.767 298.89 180.667 298.89 181.6C298.89 188.867 301.457 192.5 306.59 192.5C309.057 192.5 311.59 191.533 314.19 189.6C316.857 187.667 319.323 185 321.59 181.6L324.79 183.7ZM319.09 147.7C317.357 147.7 315.557 148.367 313.69 149.7C311.823 151.033 310.023 152.833 308.29 155.1C306.623 157.3 305.09 159.833 303.69 162.7C302.29 165.567 301.157 168.533 300.29 171.6C303.49 170.733 306.457 169.6 309.19 168.2C311.923 166.8 314.257 165.233 316.19 163.5C318.19 161.7 319.756 159.833 320.89 157.9C322.023 155.9 322.59 153.9 322.59 151.9C322.59 149.1 321.423 147.7 319.09 147.7Z" fill="black"/>
<path d="M336.795 159.5C339.262 156.7 342.029 154.2 345.095 152C348.162 149.733 351.395 147.9 354.795 146.5L359.495 130.5H367.095L363.595 143.8C364.662 143.6 365.695 143.433 366.695 143.3C367.762 143.167 368.829 143.1 369.895 143.1C375.562 143.1 379.962 144.633 383.095 147.7C386.229 150.767 387.795 155.067 387.795 160.6C387.795 165 386.729 169.167 384.595 173.1C382.529 176.967 379.729 180.433 376.195 183.5C372.729 186.567 368.695 189.133 364.095 191.2C359.562 193.2 354.829 194.533 349.895 195.2L346.195 209.1C345.862 210.1 345.629 210.933 345.495 211.6C345.429 212.267 345.395 212.867 345.395 213.4C345.395 215.067 346.062 216.233 347.395 216.9C348.795 217.567 351.229 217.933 354.695 218L354.095 222H325.795L326.395 218C329.195 218 331.229 217.667 332.495 217C333.762 216.333 334.662 215.133 335.195 213.4L353.295 151.6C350.762 152.933 348.329 154.533 345.995 156.4C343.662 158.2 341.495 160.167 339.495 162.3L336.795 159.5ZM367.295 148C366.429 148 365.562 148.067 364.695 148.2C363.895 148.267 363.095 148.367 362.295 148.5L350.995 190.9C354.329 190.233 357.562 189 360.695 187.2C363.895 185.4 366.729 183.167 369.195 180.5C371.662 177.833 373.629 174.867 375.095 171.6C376.629 168.267 377.395 164.8 377.395 161.2C377.395 157.2 376.462 154 374.595 151.6C372.795 149.2 370.362 148 367.295 148Z" fill="black"/>
<path d="M395.743 157.9C396.476 156.233 397.576 154.533 399.043 152.8C400.576 151 402.21 149.4 403.943 148C405.743 146.533 407.543 145.333 409.343 144.4C411.143 143.467 412.71 143 414.043 143C415.643 143 416.81 143.6 417.543 144.8C418.276 146 418.643 147.933 418.643 150.6C418.643 151.667 418.576 152.7 418.443 153.7C418.376 154.7 418.21 155.867 417.943 157.2L418.243 157.5C419.043 155.567 420.176 153.667 421.643 151.8C423.11 149.933 424.676 148.3 426.343 146.9C428.076 145.433 429.81 144.267 431.543 143.4C433.343 142.467 435.01 142 436.543 142C438.476 142 440.076 142.633 441.343 143.9C442.676 145.1 443.343 146.6 443.343 148.4C443.343 150.133 442.776 151.567 441.643 152.7C440.576 153.833 439.176 154.4 437.443 154.4C436.376 154.4 435.51 154.2 434.843 153.8C434.243 153.4 433.71 153 433.243 152.6C432.776 152.133 432.343 151.7 431.943 151.3C431.543 150.9 431.043 150.7 430.443 150.7C429.176 150.7 427.71 151.567 426.043 153.3C424.376 154.967 422.643 157.267 420.843 160.2C419.043 163.133 417.243 166.567 415.443 170.5C413.71 174.433 412.11 178.667 410.643 183.2L406.143 197H396.843L403.343 176.3C404.61 172.3 405.643 169 406.443 166.4C407.31 163.733 407.976 161.533 408.443 159.8C408.91 158 409.21 156.6 409.343 155.6C409.543 154.6 409.643 153.733 409.643 153C409.643 151.533 409.143 150.8 408.143 150.8C407.476 150.8 406.643 151.067 405.643 151.6C404.71 152.133 403.776 152.8 402.843 153.6C401.91 154.4 401.01 155.3 400.143 156.3C399.343 157.3 398.743 158.267 398.343 159.2L395.743 157.9Z" fill="black"/>
<path d="M477.567 183.7C471.767 193.233 464.634 198 456.167 198C451.567 198 448.034 196.6 445.567 193.8C443.101 190.933 441.867 186.9 441.867 181.7C441.867 177.1 442.801 172.5 444.667 167.9C446.601 163.3 449.101 159.167 452.167 155.5C455.234 151.767 458.667 148.767 462.467 146.5C466.267 144.167 470.067 143 473.867 143C477.067 143 479.667 143.833 481.667 145.5C483.734 147.1 484.767 149.167 484.767 151.7C484.767 154.033 483.901 156.433 482.167 158.9C480.434 161.367 478.067 163.7 475.067 165.9C472.134 168.1 468.667 170.1 464.667 171.9C460.734 173.7 456.534 175.1 452.067 176.1C451.934 177.033 451.834 177.967 451.767 178.9C451.701 179.767 451.667 180.667 451.667 181.6C451.667 188.867 454.234 192.5 459.367 192.5C461.834 192.5 464.367 191.533 466.967 189.6C469.634 187.667 472.101 185 474.367 181.6L477.567 183.7ZM471.867 147.7C470.134 147.7 468.334 148.367 466.467 149.7C464.601 151.033 462.801 152.833 461.067 155.1C459.401 157.3 457.867 159.833 456.467 162.7C455.067 165.567 453.934 168.533 453.067 171.6C456.267 170.733 459.234 169.6 461.967 168.2C464.701 166.8 467.034 165.233 468.967 163.5C470.967 161.7 472.534 159.833 473.667 157.9C474.801 155.9 475.367 153.9 475.367 151.9C475.367 149.1 474.201 147.7 471.867 147.7Z" fill="black"/>
<path d="M530.573 148.2C528.973 148.2 527.139 149.033 525.073 150.7C523.073 152.3 521.006 154.467 518.873 157.2C516.806 159.867 514.806 162.933 512.873 166.4C510.939 169.867 509.306 173.4 507.973 177L500.573 197H491.773L499.173 174.1C500.373 170.433 501.373 167.3 502.173 164.7C502.973 162.1 503.606 159.933 504.073 158.2C504.606 156.4 504.973 154.967 505.173 153.9C505.373 152.767 505.473 151.867 505.473 151.2C505.473 149.4 504.906 148.5 503.773 148.5C503.039 148.5 502.173 148.967 501.173 149.9C500.173 150.833 499.139 152.067 498.073 153.6C497.073 155.067 496.106 156.767 495.173 158.7C494.239 160.633 493.439 162.6 492.773 164.6L489.773 163.1C492.106 156.233 494.706 151.167 497.573 147.9C500.506 144.633 503.839 143 507.573 143C509.706 143 511.206 143.6 512.073 144.8C513.006 146 513.473 148.033 513.473 150.9C513.473 154.3 512.906 157.333 511.773 160L512.073 160.3C515.473 154.3 518.906 149.933 522.373 147.2C525.906 144.4 529.739 143 533.873 143C536.806 143 539.039 143.7 540.573 145.1C542.106 146.5 542.873 148.5 542.873 151.1C542.873 151.967 542.773 152.933 542.573 154C542.439 155.067 542.173 156.367 541.773 157.9C541.373 159.367 540.806 161.133 540.073 163.2C539.406 165.267 538.573 167.8 537.573 170.8C536.039 175.333 534.773 179.133 533.773 182.2C532.773 185.267 532.273 187.433 532.273 188.7C532.273 189.7 532.606 190.2 533.273 190.2C534.206 190.2 535.573 189.433 537.373 187.9C539.173 186.367 541.606 183.9 544.673 180.5L547.273 181.9C546.206 183.9 544.806 185.867 543.073 187.8C541.406 189.667 539.639 191.367 537.773 192.9C535.973 194.433 534.173 195.667 532.373 196.6C530.573 197.533 529.006 198 527.673 198C526.006 198 524.673 197.267 523.673 195.8C522.739 194.333 522.273 192.4 522.273 190C522.273 189.067 522.339 188.133 522.473 187.2C522.673 186.2 523.039 184.8 523.573 183C524.106 181.2 524.873 178.8 525.873 175.8C526.939 172.733 528.373 168.7 530.173 163.7C530.773 161.967 531.273 160.5 531.673 159.3C532.073 158.1 532.373 157.067 532.573 156.2C532.839 155.267 533.006 154.467 533.073 153.8C533.206 153.133 533.273 152.5 533.273 151.9C533.273 149.433 532.373 148.2 530.573 148.2Z" fill="black"/>
<path d="M589.868 183.7C584.068 193.233 576.935 198 568.468 198C563.868 198 560.335 196.6 557.868 193.8C555.401 190.933 554.168 186.9 554.168 181.7C554.168 177.1 555.101 172.5 556.968 167.9C558.901 163.3 561.401 159.167 564.468 155.5C567.535 151.767 570.968 148.767 574.768 146.5C578.568 144.167 582.368 143 586.168 143C589.368 143 591.968 143.833 593.968 145.5C596.035 147.1 597.068 149.167 597.068 151.7C597.068 154.033 596.201 156.433 594.468 158.9C592.735 161.367 590.368 163.7 587.368 165.9C584.435 168.1 580.968 170.1 576.968 171.9C573.035 173.7 568.835 175.1 564.368 176.1C564.235 177.033 564.135 177.967 564.068 178.9C564.001 179.767 563.968 180.667 563.968 181.6C563.968 188.867 566.535 192.5 571.668 192.5C574.135 192.5 576.668 191.533 579.268 189.6C581.935 187.667 584.401 185 586.668 181.6L589.868 183.7ZM584.168 147.7C582.435 147.7 580.635 148.367 578.768 149.7C576.901 151.033 575.101 152.833 573.368 155.1C571.701 157.3 570.168 159.833 568.768 162.7C567.368 165.567 566.235 168.533 565.368 171.6C568.568 170.733 571.535 169.6 574.268 168.2C577.001 166.8 579.335 165.233 581.268 163.5C583.268 161.7 584.835 159.833 585.968 157.9C587.101 155.9 587.668 153.9 587.668 151.9C587.668 149.1 586.501 147.7 584.168 147.7Z" fill="black"/>
<path d="M617.273 190.8C618.34 190.8 619.74 190.067 621.473 188.6C623.207 187.067 625.04 185.067 626.973 182.6C628.907 180.067 630.773 177.2 632.573 174C634.44 170.8 636.007 167.467 637.273 164L644.673 144H653.973L646.573 166.9C645.507 170.233 644.607 173.1 643.873 175.5C643.14 177.833 642.54 179.833 642.073 181.5C641.607 183.1 641.273 184.433 641.073 185.5C640.873 186.5 640.773 187.3 640.773 187.9C640.773 189.633 641.373 190.5 642.573 190.5C643.24 190.5 644.04 190.2 644.973 189.6C645.907 188.933 646.84 188.067 647.773 187C648.773 185.867 649.707 184.633 650.573 183.3C651.507 181.9 652.307 180.433 652.973 178.9L655.973 180.4C655.107 182.6 653.973 184.767 652.573 186.9C651.173 188.967 649.64 190.833 647.973 192.5C646.373 194.167 644.673 195.5 642.873 196.5C641.073 197.5 639.307 198 637.573 198C635.507 198 634.107 197.267 633.373 195.8C632.64 194.333 632.273 192.233 632.273 189.5C632.273 188.367 632.307 187.167 632.373 185.9C632.507 184.567 632.707 183.267 632.973 182L632.673 181.7C630.873 184.9 629.107 187.533 627.373 189.6C625.707 191.667 624.073 193.333 622.473 194.6C620.873 195.867 619.307 196.733 617.773 197.2C616.24 197.733 614.74 198 613.273 198C610.14 198 607.94 197.133 606.673 195.4C605.473 193.667 604.873 191.533 604.873 189C604.873 186.2 605.407 183.133 606.473 179.8C607.54 176.4 608.673 173.2 609.873 170.2C611.073 167.2 612.073 164.667 612.873 162.6C613.74 160.533 614.407 158.8 614.873 157.4C615.407 156 615.773 154.867 615.973 154C616.24 153.133 616.373 152.433 616.373 151.9C616.373 151.633 616.307 151.4 616.173 151.2C616.107 150.933 615.873 150.8 615.473 150.8C614.607 150.8 613.34 151.567 611.673 153.1C610.073 154.633 607.873 157.1 605.073 160.5L602.473 159.1C603.473 157.167 604.74 155.233 606.273 153.3C607.807 151.367 609.44 149.633 611.173 148.1C612.907 146.567 614.707 145.333 616.573 144.4C618.44 143.467 620.173 143 621.773 143C625.107 143 626.773 144.933 626.773 148.8C626.773 151.133 626.107 154.167 624.773 157.9C623.507 161.567 621.84 165.967 619.773 171.1C618.44 174.367 617.34 177.3 616.473 179.9C615.607 182.5 615.173 184.867 615.173 187C615.173 188.4 615.373 189.4 615.773 190C616.173 190.533 616.673 190.8 617.273 190.8Z" fill="black"/>
<path d="M663.751 157.9C664.484 156.233 665.584 154.533 667.051 152.8C668.584 151 670.217 149.4 671.951 148C673.751 146.533 675.551 145.333 677.351 144.4C679.151 143.467 680.717 143 682.051 143C683.651 143 684.817 143.6 685.551 144.8C686.284 146 686.651 147.933 686.651 150.6C686.651 151.667 686.584 152.7 686.451 153.7C686.384 154.7 686.217 155.867 685.951 157.2L686.251 157.5C687.051 155.567 688.184 153.667 689.651 151.8C691.117 149.933 692.684 148.3 694.351 146.9C696.084 145.433 697.817 144.267 699.551 143.4C701.351 142.467 703.017 142 704.551 142C706.484 142 708.084 142.633 709.351 143.9C710.684 145.1 711.351 146.6 711.351 148.4C711.351 150.133 710.784 151.567 709.651 152.7C708.584 153.833 707.184 154.4 705.451 154.4C704.384 154.4 703.517 154.2 702.851 153.8C702.251 153.4 701.717 153 701.251 152.6C700.784 152.133 700.351 151.7 699.951 151.3C699.551 150.9 699.051 150.7 698.451 150.7C697.184 150.7 695.717 151.567 694.051 153.3C692.384 154.967 690.651 157.267 688.851 160.2C687.051 163.133 685.251 166.567 683.451 170.5C681.717 174.433 680.117 178.667 678.651 183.2L674.151 197H664.851L671.351 176.3C672.617 172.3 673.651 169 674.451 166.4C675.317 163.733 675.984 161.533 676.451 159.8C676.917 158 677.217 156.6 677.351 155.6C677.551 154.6 677.651 153.733 677.651 153C677.651 151.533 677.151 150.8 676.151 150.8C675.484 150.8 674.651 151.067 673.651 151.6C672.717 152.133 671.784 152.8 670.851 153.6C669.917 154.4 669.017 155.3 668.151 156.3C667.351 157.3 666.751 158.267 666.351 159.2L663.751 157.9Z" fill="black"/>
<path d="M717.64 158.3C717.64 156.1 718.04 154.067 718.84 152.2C719.707 150.333 720.873 148.733 722.34 147.4C723.807 146 725.54 144.933 727.54 144.2C729.607 143.4 731.84 143 734.24 143C737.44 143 740.107 143.8 742.24 145.4C744.373 147 745.44 149.067 745.44 151.6C745.44 153 745.04 154.1 744.24 154.9C743.507 155.7 742.473 156.1 741.14 156.1C739.606 156.1 738.507 155.667 737.84 154.8C737.173 153.867 736.606 152.867 736.14 151.8C735.673 150.667 735.173 149.633 734.64 148.7C734.106 147.767 733.206 147.3 731.94 147.3C730.473 147.3 729.24 147.933 728.24 149.2C727.24 150.467 726.74 152.033 726.74 153.9C726.74 156.1 727.373 158.167 728.64 160.1C729.973 161.967 731.44 163.933 733.04 166C734.64 168.067 736.073 170.333 737.34 172.8C738.673 175.267 739.34 178.167 739.34 181.5C739.34 183.767 738.84 185.9 737.84 187.9C736.907 189.9 735.606 191.667 733.94 193.2C732.34 194.667 730.473 195.833 728.34 196.7C726.207 197.567 724.007 198 721.74 198C717.74 198 714.54 197.133 712.14 195.4C709.806 193.667 708.64 191.4 708.64 188.6C708.64 186.667 709.073 185.167 709.94 184.1C710.873 182.967 712.106 182.4 713.64 182.4C716.506 182.4 718.14 184.367 718.54 188.3C718.74 190.433 719.073 191.867 719.54 192.6C720.073 193.267 721.106 193.6 722.64 193.6C725.04 193.6 726.94 192.9 728.34 191.5C729.74 190.033 730.44 188.033 730.44 185.5C730.44 182.833 729.773 180.467 728.44 178.4C727.106 176.333 725.64 174.333 724.04 172.4C722.44 170.4 720.973 168.3 719.64 166.1C718.306 163.9 717.64 161.3 717.64 158.3Z" fill="black"/>
<path d="M806.242 159.1C808.776 159.1 810.975 158.783 812.842 158.15C814.742 157.517 816.292 156.65 817.492 155.55C818.726 154.417 819.642 153.083 820.242 151.55C820.842 150.017 821.142 148.333 821.142 146.5C821.142 142.833 819.926 140.017 817.492 138.05C815.092 136.083 811.409 135.1 806.442 135.1H797.842V159.1H806.242ZM840.842 197H828.692C826.392 197 824.726 196.1 823.692 194.3L808.492 171.15C807.926 170.283 807.292 169.667 806.592 169.3C805.925 168.933 804.925 168.75 803.592 168.75H797.842V197H784.392V124.7H806.442C811.342 124.7 815.542 125.217 819.042 126.25C822.576 127.25 825.459 128.667 827.692 130.5C829.959 132.333 831.626 134.533 832.692 137.1C833.759 139.633 834.292 142.433 834.292 145.5C834.292 147.933 833.926 150.233 833.192 152.4C832.492 154.567 831.459 156.533 830.092 158.3C828.759 160.067 827.092 161.617 825.092 162.95C823.125 164.283 820.875 165.333 818.342 166.1C819.209 166.6 820.009 167.2 820.742 167.9C821.476 168.567 822.142 169.367 822.742 170.3L840.842 197Z" fill="black"/>
<path d="M878.43 165.45C878.43 163.85 878.196 162.35 877.73 160.95C877.296 159.517 876.63 158.267 875.73 157.2C874.83 156.133 873.68 155.3 872.28 154.7C870.913 154.067 869.313 153.75 867.48 153.75C863.913 153.75 861.096 154.767 859.03 156.8C856.996 158.833 855.696 161.717 855.13 165.45H878.43ZM854.88 172.9C855.08 175.533 855.546 177.817 856.28 179.75C857.013 181.65 857.98 183.233 859.18 184.5C860.38 185.733 861.796 186.667 863.43 187.3C865.096 187.9 866.93 188.2 868.93 188.2C870.93 188.2 872.646 187.967 874.08 187.5C875.546 187.033 876.813 186.517 877.88 185.95C878.98 185.383 879.93 184.867 880.73 184.4C881.563 183.933 882.363 183.7 883.13 183.7C884.163 183.7 884.93 184.083 885.43 184.85L888.98 189.35C887.613 190.95 886.08 192.3 884.38 193.4C882.68 194.467 880.896 195.333 879.03 196C877.196 196.633 875.313 197.083 873.38 197.35C871.48 197.617 869.63 197.75 867.83 197.75C864.263 197.75 860.946 197.167 857.88 196C854.813 194.8 852.146 193.05 849.88 190.75C847.613 188.417 845.83 185.55 844.53 182.15C843.23 178.717 842.58 174.75 842.58 170.25C842.58 166.75 843.146 163.467 844.28 160.4C845.413 157.3 847.03 154.617 849.13 152.35C851.263 150.05 853.846 148.233 856.88 146.9C859.946 145.567 863.396 144.9 867.23 144.9C870.463 144.9 873.446 145.417 876.18 146.45C878.913 147.483 881.263 149 883.23 151C885.196 152.967 886.73 155.4 887.83 158.3C888.963 161.167 889.53 164.45 889.53 168.15C889.53 170.017 889.33 171.283 888.93 171.95C888.53 172.583 887.763 172.9 886.63 172.9H854.88Z" fill="black"/>
<path d="M927.898 175.1C924.331 175.267 921.331 175.583 918.898 176.05C916.464 176.483 914.514 177.05 913.048 177.75C911.581 178.45 910.531 179.267 909.898 180.2C909.264 181.133 908.948 182.15 908.948 183.25C908.948 185.417 909.581 186.967 910.848 187.9C912.148 188.833 913.831 189.3 915.898 189.3C918.431 189.3 920.614 188.85 922.448 187.95C924.314 187.017 926.131 185.617 927.898 183.75V175.1ZM899.598 152.85C905.498 147.45 912.598 144.75 920.898 144.75C923.898 144.75 926.581 145.25 928.948 146.25C931.314 147.217 933.314 148.583 934.948 150.35C936.581 152.083 937.814 154.167 938.648 156.6C939.514 159.033 939.948 161.7 939.948 164.6V197H934.348C933.181 197 932.281 196.833 931.648 196.5C931.014 196.133 930.514 195.417 930.148 194.35L929.048 190.65C927.748 191.817 926.481 192.85 925.248 193.75C924.014 194.617 922.731 195.35 921.398 195.95C920.064 196.55 918.631 197 917.098 197.3C915.598 197.633 913.931 197.8 912.098 197.8C909.931 197.8 907.931 197.517 906.098 196.95C904.264 196.35 902.681 195.467 901.348 194.3C900.014 193.133 898.981 191.683 898.248 189.95C897.514 188.217 897.148 186.2 897.148 183.9C897.148 182.6 897.364 181.317 897.798 180.05C898.231 178.75 898.931 177.517 899.898 176.35C900.898 175.183 902.181 174.083 903.748 173.05C905.314 172.017 907.231 171.117 909.498 170.35C911.798 169.583 914.464 168.967 917.498 168.5C920.531 168 923.998 167.7 927.898 167.6V164.6C927.898 161.167 927.164 158.633 925.698 157C924.231 155.333 922.114 154.5 919.348 154.5C917.348 154.5 915.681 154.733 914.348 155.2C913.048 155.667 911.898 156.2 910.898 156.8C909.898 157.367 908.981 157.883 908.148 158.35C907.348 158.817 906.448 159.05 905.448 159.05C904.581 159.05 903.848 158.833 903.248 158.4C902.648 157.933 902.164 157.4 901.798 156.8L899.598 152.85Z" fill="black"/>
<path d="M990.329 156.55C989.962 157.017 989.596 157.383 989.229 157.65C988.896 157.917 988.396 158.05 987.729 158.05C987.096 158.05 986.479 157.867 985.879 157.5C985.279 157.1 984.562 156.667 983.729 156.2C982.896 155.7 981.896 155.267 980.729 154.9C979.596 154.5 978.179 154.3 976.479 154.3C974.312 154.3 972.412 154.7 970.779 155.5C969.146 156.267 967.779 157.383 966.679 158.85C965.612 160.317 964.812 162.1 964.279 164.2C963.746 166.267 963.479 168.617 963.479 171.25C963.479 173.983 963.762 176.417 964.329 178.55C964.929 180.683 965.779 182.483 966.879 183.95C967.979 185.383 969.312 186.483 970.879 187.25C972.446 187.983 974.212 188.35 976.179 188.35C978.146 188.35 979.729 188.117 980.929 187.65C982.162 187.15 983.196 186.617 984.029 186.05C984.862 185.45 985.579 184.917 986.179 184.45C986.812 183.95 987.512 183.7 988.279 183.7C989.279 183.7 990.029 184.083 990.529 184.85L994.079 189.35C992.712 190.95 991.229 192.3 989.629 193.4C988.029 194.467 986.362 195.333 984.629 196C982.929 196.633 981.162 197.083 979.329 197.35C977.529 197.617 975.729 197.75 973.929 197.75C970.762 197.75 967.779 197.167 964.979 196C962.179 194.8 959.729 193.067 957.629 190.8C955.529 188.533 953.862 185.767 952.629 182.5C951.429 179.2 950.829 175.45 950.829 171.25C950.829 167.483 951.362 164 952.429 160.8C953.529 157.567 955.129 154.783 957.229 152.45C959.329 150.083 961.929 148.233 965.029 146.9C968.129 145.567 971.696 144.9 975.729 144.9C979.562 144.9 982.912 145.517 985.779 146.75C988.679 147.983 991.279 149.75 993.579 152.05L990.329 156.55Z" fill="black"/>
<path d="M1016.17 151.2C1018.17 149.333 1020.37 147.817 1022.77 146.65C1025.17 145.483 1027.99 144.9 1031.22 144.9C1034.02 144.9 1036.5 145.383 1038.67 146.35C1040.84 147.283 1042.64 148.617 1044.07 150.35C1045.54 152.05 1046.64 154.1 1047.37 156.5C1048.14 158.867 1048.52 161.483 1048.52 164.35V197H1036.17V164.35C1036.17 161.217 1035.45 158.8 1034.02 157.1C1032.59 155.367 1030.4 154.5 1027.47 154.5C1025.34 154.5 1023.34 154.983 1021.47 155.95C1019.6 156.917 1017.84 158.233 1016.17 159.9V197H1003.82V122.7H1016.17V151.2Z" fill="black"/>
<path d="M281.797 245.7V318H274.897C273.831 318 272.931 317.833 272.197 317.5C271.497 317.133 270.814 316.533 270.147 315.7L232.397 267.5C232.597 269.7 232.697 271.733 232.697 273.6V318H220.847V245.7H227.897C228.464 245.7 228.947 245.733 229.347 245.8C229.781 245.833 230.147 245.933 230.447 246.1C230.781 246.233 231.097 246.45 231.397 246.75C231.697 247.017 232.031 247.383 232.397 247.85L270.297 296.25C270.197 295.083 270.114 293.933 270.047 292.8C269.981 291.667 269.947 290.617 269.947 289.65V245.7H281.797Z" fill="black"/>
<path d="M329.436 286.45C329.436 284.85 329.202 283.35 328.736 281.95C328.302 280.517 327.636 279.267 326.736 278.2C325.836 277.133 324.686 276.3 323.286 275.7C321.919 275.067 320.319 274.75 318.486 274.75C314.919 274.75 312.102 275.767 310.036 277.8C308.002 279.833 306.702 282.717 306.136 286.45H329.436ZM305.886 293.9C306.086 296.533 306.552 298.817 307.286 300.75C308.019 302.65 308.986 304.233 310.186 305.5C311.386 306.733 312.802 307.667 314.436 308.3C316.102 308.9 317.936 309.2 319.936 309.2C321.936 309.2 323.652 308.967 325.086 308.5C326.552 308.033 327.819 307.517 328.886 306.95C329.986 306.383 330.936 305.867 331.736 305.4C332.569 304.933 333.369 304.7 334.136 304.7C335.169 304.7 335.936 305.083 336.436 305.85L339.986 310.35C338.619 311.95 337.086 313.3 335.386 314.4C333.686 315.467 331.902 316.333 330.036 317C328.202 317.633 326.319 318.083 324.386 318.35C322.486 318.617 320.636 318.75 318.836 318.75C315.269 318.75 311.952 318.167 308.886 317C305.819 315.8 303.152 314.05 300.886 311.75C298.619 309.417 296.836 306.55 295.536 303.15C294.236 299.717 293.586 295.75 293.586 291.25C293.586 287.75 294.152 284.467 295.286 281.4C296.419 278.3 298.036 275.617 300.136 273.35C302.269 271.05 304.852 269.233 307.886 267.9C310.952 266.567 314.402 265.9 318.236 265.9C321.469 265.9 324.452 266.417 327.186 267.45C329.919 268.483 332.269 270 334.236 272C336.202 273.967 337.736 276.4 338.836 279.3C339.969 282.167 340.536 285.45 340.536 289.15C340.536 291.017 340.336 292.283 339.936 292.95C339.536 293.583 338.769 293.9 337.636 293.9H305.886Z" fill="black"/>
<path d="M424.37 266.7L408.07 318H398.17C397.037 318 396.253 317.267 395.82 315.8L386.62 286.15C386.32 285.15 386.037 284.167 385.77 283.2C385.537 282.2 385.337 281.2 385.17 280.2C384.97 281.2 384.737 282.217 384.47 283.25C384.237 284.25 383.97 285.25 383.67 286.25L374.32 315.8C373.92 317.267 373.037 318 371.67 318H362.17L345.92 266.7H355.77C356.67 266.7 357.437 266.917 358.07 267.35C358.703 267.783 359.12 268.333 359.32 269L366.67 296.4C367.037 297.9 367.353 299.367 367.62 300.8C367.92 302.233 368.17 303.667 368.37 305.1C368.737 303.667 369.12 302.233 369.52 300.8C369.953 299.367 370.403 297.9 370.87 296.4L379.37 268.9C379.57 268.233 379.953 267.683 380.52 267.25C381.12 266.817 381.837 266.6 382.67 266.6H388.12C388.987 266.6 389.72 266.817 390.32 267.25C390.953 267.683 391.37 268.233 391.57 268.9L399.82 296.4C400.253 297.9 400.653 299.383 401.02 300.85C401.42 302.283 401.803 303.717 402.17 305.15C402.603 302.317 403.22 299.4 404.02 296.4L411.57 269C411.803 268.333 412.22 267.783 412.82 267.35C413.42 266.917 414.137 266.7 414.97 266.7H424.37Z" fill="black"/>
<path d="M548.926 245.7V318H535.426V286.4H501.476V318H487.976V245.7H501.476V276.8H535.426V245.7H548.926Z" fill="black"/>
<path d="M596.564 286.45C596.564 284.85 596.331 283.35 595.864 281.95C595.431 280.517 594.764 279.267 593.864 278.2C592.964 277.133 591.814 276.3 590.414 275.7C589.048 275.067 587.448 274.75 585.614 274.75C582.048 274.75 579.231 275.767 577.164 277.8C575.131 279.833 573.831 282.717 573.264 286.45H596.564ZM573.014 293.9C573.214 296.533 573.681 298.817 574.414 300.75C575.148 302.65 576.114 304.233 577.314 305.5C578.514 306.733 579.931 307.667 581.564 308.3C583.231 308.9 585.064 309.2 587.064 309.2C589.064 309.2 590.781 308.967 592.214 308.5C593.681 308.033 594.948 307.517 596.014 306.95C597.114 306.383 598.064 305.867 598.864 305.4C599.698 304.933 600.498 304.7 601.264 304.7C602.298 304.7 603.064 305.083 603.564 305.85L607.114 310.35C605.748 311.95 604.214 313.3 602.514 314.4C600.814 315.467 599.031 316.333 597.164 317C595.331 317.633 593.448 318.083 591.514 318.35C589.614 318.617 587.764 318.75 585.964 318.75C582.398 318.75 579.081 318.167 576.014 317C572.948 315.8 570.281 314.05 568.014 311.75C565.748 309.417 563.964 306.55 562.664 303.15C561.364 299.717 560.714 295.75 560.714 291.25C560.714 287.75 561.281 284.467 562.414 281.4C563.548 278.3 565.164 275.617 567.264 273.35C569.398 271.05 571.981 269.233 575.014 267.9C578.081 266.567 581.531 265.9 585.364 265.9C588.598 265.9 591.581 266.417 594.314 267.45C597.048 268.483 599.398 270 601.364 272C603.331 273.967 604.864 276.4 605.964 279.3C607.098 282.167 607.664 285.45 607.664 289.15C607.664 291.017 607.464 292.283 607.064 292.95C606.664 293.583 605.898 293.9 604.764 293.9H573.014Z" fill="black"/>
<path d="M631.732 266.7V318H619.332V266.7H631.732ZM633.432 251.75C633.432 252.817 633.216 253.817 632.782 254.75C632.349 255.683 631.766 256.5 631.032 257.2C630.332 257.9 629.499 258.467 628.532 258.9C627.566 259.3 626.532 259.5 625.432 259.5C624.366 259.5 623.349 259.3 622.382 258.9C621.449 258.467 620.632 257.9 619.932 257.2C619.232 256.5 618.666 255.683 618.232 254.75C617.832 253.817 617.632 252.817 617.632 251.75C617.632 250.65 617.832 249.617 618.232 248.65C618.666 247.683 619.232 246.85 619.932 246.15C620.632 245.45 621.449 244.9 622.382 244.5C623.349 244.067 624.366 243.85 625.432 243.85C626.532 243.85 627.566 244.067 628.532 244.5C629.499 244.9 630.332 245.45 631.032 246.15C631.766 246.85 632.349 247.683 632.782 248.65C633.216 249.617 633.432 250.65 633.432 251.75Z" fill="black"/>
<path d="M665.073 291.1C666.606 291.1 667.94 290.9 669.073 290.5C670.206 290.067 671.14 289.483 671.873 288.75C672.64 288.017 673.206 287.133 673.573 286.1C673.973 285.067 674.173 283.933 674.173 282.7C674.173 280.167 673.406 278.167 671.873 276.7C670.373 275.2 668.106 274.45 665.073 274.45C662.04 274.45 659.756 275.2 658.223 276.7C656.723 278.167 655.973 280.167 655.973 282.7C655.973 283.9 656.156 285.017 656.523 286.05C656.923 287.083 657.49 287.983 658.223 288.75C658.99 289.483 659.94 290.067 661.073 290.5C662.24 290.9 663.573 291.1 665.073 291.1ZM679.023 320.3C679.023 319.3 678.723 318.483 678.123 317.85C677.523 317.217 676.706 316.733 675.673 316.4C674.64 316.033 673.423 315.767 672.023 315.6C670.656 315.433 669.19 315.317 667.623 315.25C666.09 315.15 664.49 315.067 662.823 315C661.19 314.933 659.59 314.8 658.023 314.6C656.656 315.367 655.54 316.267 654.673 317.3C653.84 318.333 653.423 319.533 653.423 320.9C653.423 321.8 653.64 322.633 654.073 323.4C654.54 324.2 655.256 324.883 656.223 325.45C657.223 326.017 658.506 326.45 660.073 326.75C661.64 327.083 663.556 327.25 665.823 327.25C668.123 327.25 670.106 327.067 671.773 326.7C673.44 326.367 674.806 325.883 675.873 325.25C676.973 324.65 677.773 323.917 678.273 323.05C678.773 322.217 679.023 321.3 679.023 320.3ZM691.323 268.45V273.05C691.323 274.517 690.44 275.417 688.673 275.75L684.073 276.6C684.773 278.367 685.123 280.3 685.123 282.4C685.123 284.933 684.606 287.233 683.573 289.3C682.573 291.333 681.173 293.067 679.373 294.5C677.573 295.933 675.44 297.05 672.973 297.85C670.54 298.617 667.906 299 665.073 299C664.073 299 663.106 298.95 662.173 298.85C661.24 298.75 660.323 298.617 659.423 298.45C657.823 299.417 657.023 300.5 657.023 301.7C657.023 302.733 657.49 303.5 658.423 304C659.39 304.467 660.656 304.8 662.223 305C663.79 305.2 665.573 305.333 667.573 305.4C669.573 305.433 671.623 305.533 673.723 305.7C675.823 305.867 677.873 306.167 679.873 306.6C681.873 307 683.656 307.65 685.223 308.55C686.79 309.45 688.04 310.683 688.973 312.25C689.94 313.783 690.423 315.767 690.423 318.2C690.423 320.467 689.856 322.667 688.723 324.8C687.623 326.933 686.006 328.833 683.873 330.5C681.773 332.167 679.173 333.5 676.073 334.5C673.006 335.533 669.506 336.05 665.573 336.05C661.706 336.05 658.34 335.667 655.473 334.9C652.606 334.167 650.223 333.167 648.323 331.9C646.423 330.667 645.006 329.233 644.073 327.6C643.14 325.967 642.673 324.267 642.673 322.5C642.673 320.1 643.39 318.1 644.823 316.5C646.29 314.867 648.29 313.567 650.823 312.6C649.456 311.9 648.373 310.967 647.573 309.8C646.773 308.633 646.373 307.1 646.373 305.2C646.373 304.433 646.506 303.65 646.773 302.85C647.073 302.017 647.49 301.2 648.023 300.4C648.59 299.6 649.29 298.85 650.123 298.15C650.956 297.417 651.94 296.767 653.073 296.2C650.473 294.8 648.423 292.933 646.923 290.6C645.456 288.267 644.723 285.533 644.723 282.4C644.723 279.867 645.223 277.583 646.223 275.55C647.256 273.483 648.673 271.733 650.473 270.3C652.306 268.833 654.456 267.717 656.923 266.95C659.423 266.183 662.14 265.8 665.073 265.8C667.273 265.8 669.34 266.033 671.273 266.5C673.206 266.933 674.973 267.583 676.573 268.45H691.323Z" fill="black"/>
<path d="M713.505 272.2C715.505 270.333 717.705 268.817 720.105 267.65C722.505 266.483 725.322 265.9 728.555 265.9C731.355 265.9 733.838 266.383 736.005 267.35C738.172 268.283 739.972 269.617 741.405 271.35C742.872 273.05 743.972 275.1 744.705 277.5C745.472 279.867 745.855 282.483 745.855 285.35V318H733.505V285.35C733.505 282.217 732.788 279.8 731.355 278.1C729.922 276.367 727.738 275.5 724.805 275.5C722.672 275.5 720.672 275.983 718.805 276.95C716.938 277.917 715.172 279.233 713.505 280.9V318H701.155V243.7H713.505V272.2Z" fill="black"/>
<path d="M776.017 318.8C771.55 318.8 768.117 317.55 765.717 315.05C763.35 312.517 762.167 309.033 762.167 304.6V275.95H756.917C756.25 275.95 755.683 275.733 755.217 275.3C754.75 274.867 754.517 274.217 754.517 273.35V268.45L762.767 267.1L765.367 253.1C765.533 252.433 765.85 251.917 766.317 251.55C766.784 251.183 767.383 251 768.117 251H774.517V267.15H788.217V275.95H774.517V303.75C774.517 305.35 774.9 306.6 775.667 307.5C776.467 308.4 777.55 308.85 778.917 308.85C779.683 308.85 780.317 308.767 780.817 308.6C781.35 308.4 781.8 308.2 782.167 308C782.567 307.8 782.917 307.617 783.217 307.45C783.517 307.25 783.817 307.15 784.117 307.15C784.483 307.15 784.784 307.25 785.017 307.45C785.25 307.617 785.5 307.883 785.767 308.25L789.467 314.25C787.667 315.75 785.6 316.883 783.267 317.65C780.934 318.417 778.517 318.8 776.017 318.8Z" fill="black"/>
<path d="M829.424 276.7C829.09 277.233 828.741 277.617 828.374 277.85C828.007 278.05 827.541 278.15 826.974 278.15C826.374 278.15 825.724 277.983 825.024 277.65C824.357 277.317 823.574 276.95 822.674 276.55C821.774 276.117 820.741 275.733 819.574 275.4C818.441 275.067 817.091 274.9 815.524 274.9C813.091 274.9 811.174 275.417 809.774 276.45C808.407 277.483 807.724 278.833 807.724 280.5C807.724 281.6 808.074 282.533 808.774 283.3C809.507 284.033 810.457 284.683 811.624 285.25C812.824 285.817 814.174 286.333 815.674 286.8C817.174 287.233 818.691 287.717 820.224 288.25C821.791 288.783 823.324 289.4 824.824 290.1C826.324 290.767 827.657 291.633 828.824 292.7C830.024 293.733 830.974 294.983 831.674 296.45C832.407 297.917 832.774 299.683 832.774 301.75C832.774 304.217 832.324 306.5 831.424 308.6C830.557 310.667 829.257 312.467 827.524 314C825.791 315.5 823.641 316.683 821.074 317.55C818.541 318.383 815.607 318.8 812.274 318.8C810.507 318.8 808.774 318.633 807.074 318.3C805.407 318 803.791 317.567 802.224 317C800.691 316.433 799.257 315.767 797.924 315C796.624 314.233 795.474 313.4 794.474 312.5L797.324 307.8C797.691 307.233 798.124 306.8 798.624 306.5C799.124 306.2 799.757 306.05 800.524 306.05C801.291 306.05 802.007 306.267 802.674 306.7C803.374 307.133 804.174 307.6 805.074 308.1C805.974 308.6 807.024 309.067 808.224 309.5C809.457 309.933 811.007 310.15 812.874 310.15C814.341 310.15 815.591 309.983 816.624 309.65C817.691 309.283 818.557 308.817 819.224 308.25C819.924 307.683 820.424 307.033 820.724 306.3C821.057 305.533 821.224 304.75 821.224 303.95C821.224 302.75 820.857 301.767 820.124 301C819.424 300.233 818.474 299.567 817.274 299C816.107 298.433 814.757 297.933 813.224 297.5C811.724 297.033 810.174 296.533 808.574 296C807.007 295.467 805.457 294.85 803.924 294.15C802.424 293.417 801.074 292.5 799.874 291.4C798.707 290.3 797.757 288.95 797.024 287.35C796.324 285.75 795.974 283.817 795.974 281.55C795.974 279.45 796.391 277.45 797.224 275.55C798.057 273.65 799.274 272 800.874 270.6C802.507 269.167 804.524 268.033 806.924 267.2C809.357 266.333 812.157 265.9 815.324 265.9C818.857 265.9 822.074 266.483 824.974 267.65C827.874 268.817 830.291 270.35 832.224 272.25L829.424 276.7Z" fill="black"/>
<path d="M842.334 293.001C841.506 293.028 840.857 293.721 840.884 294.549C840.911 295.377 841.604 296.026 842.432 295.999L842.334 293.001ZM1168.65 95.2025C1168.21 94.5009 1167.29 94.2891 1166.59 94.7296L1155.15 101.907C1154.45 102.347 1154.24 103.273 1154.68 103.975C1155.12 104.676 1156.05 104.888 1156.75 104.448L1166.91 98.0679L1173.29 108.231C1173.73 108.933 1174.66 109.145 1175.36 108.704C1176.06 108.264 1176.27 107.338 1175.83 106.636L1168.65 95.2025ZM842.432 295.999C878.156 294.836 947.945 296.594 1014.64 272.851C1081.45 249.065 1145.21 199.671 1168.85 96.3344L1165.92 95.6656C1142.56 197.829 1079.65 246.518 1013.63 270.024C947.488 293.572 878.277 291.831 842.334 293.001L842.432 295.999Z" fill="black"/>
<path opacity="0.4" d="M193.383 270L159.883 279" stroke="#130F26" stroke-width="3" stroke-linecap="round"/>
<path opacity="0.4" d="M851.383 283.5L865.383 276" stroke="#130F26" stroke-width="3" stroke-linecap="round"/>
<path opacity="0.4" d="M179.383 242L193.383 249.5" stroke="#130F26" stroke-width="3" stroke-linecap="round"/>
</svg>
