<?xml version="1.0" encoding="UTF-8"?>
<svg width="1180px" height="348px" viewBox="0 0 1180 348" version="1.1" xmlns="http://www.w3.org/2000/svg" xmlns:xlink="http://www.w3.org/1999/xlink">
    <title>main-img</title>
    <g id="Page-1" stroke="none" stroke-width="1" fill="none" fill-rule="evenodd">
        <g id="main-img" transform="translate(36.241895, 10.000000)">
            <path d="M175.151616,286.9 C221.900393,282.966667 260.367556,281 290.553105,281 C320.738655,281 356.852988,282.816667 398.896105,286.45 L175.151616,286.9 Z" id="Path-3" stroke="#BFD6C9" stroke-width="100"></path>
            <g id="Group" transform="translate(458.758105, 0.000000)" stroke="#000000" stroke-linecap="round" stroke-width="7">
                <path d="M5.68434189e-14,99 C8.09187686,92.9725926 20.0250777,88.6346914 35.7996025,85.9862963 C51.5741273,83.3379012 66.6409264,83.3379012 81,85.9862963" id="Path-5"></path>
                <path d="M25,57 C32.2964258,51.7918921 40.250806,48.4794296 48.8631405,47.0626127 C57.4754751,45.6457958 66.8544283,45.6457958 77,47.0626127" id="Path-5"></path>
                <path d="M35,16 C44.8007508,9.36155031 57.6446869,4.669322 73.5318083,1.92331505 C89.4189297,-0.822691896 106.908327,-0.628246829 126,2.50665025" id="Path-5"></path>
                <path d="M71.368,2.07064408 C58.4200558,16.2794003 47.9384824,31.2558522 39.92328,47 C31.9080775,62.7441478 25.9332455,76.0774811 21.9987842,87" id="Path-6"></path>
                <path d="M124.280295,51.2585257 C133.316092,36.905461 133.316092,31.0146266 124.280295,33.5860226 C110.7266,37.4431165 86.2717221,69.1414158 93.2168819,76.4348298 C97.8469885,81.2971058 113.488117,75.4911304 140.140267,59.0169037" id="Path-7"></path>
                <path d="M166.626318,72.8108225 C174.756085,64.336207 179.419911,57.7064533 180.617795,52.9215613 C182.41462,45.7442232 177.797599,38 168.420449,38 C159.043299,38 141.296174,69.1914556 150.638594,76.4913044 C156.866874,81.3578703 165.525137,74.450956 176.613384,55.7705615" id="Path-8"></path>
                <path d="M198.748176,39.1978504 C185.767429,60.0872742 180.33227,71.2176429 182.442701,72.5889566 C185.608347,74.645927 206.953545,49.4314061 211.939451,47.769265 C216.925357,46.1071239 207.589399,66.8951039 221.346101,61.6392558 C235.102803,56.3834078 253.958006,28.7654907 260.010313,31.1450146 C264.045184,32.7313639 255.742681,51.3496924 235.102803,87" id="Path-9"></path>
                <path d="M278.748176,39.1978504 C264.805628,66.5926272 258.889569,80.9756724 261,82.346986 C264.165646,84.4039565 286.953545,49.4314061 291.939451,47.769265 C296.925357,46.1071239 287.743298,75.8166833 301.5,70.5608352 C315.256702,65.3049872 333.958006,28.7654907 340.010313,31.1450146 C344.045184,32.7313639 335.742681,51.3496924 315.102803,87" id="Path-9"></path>
                <path d="M337,59.2673979 C356.527575,57.664834 369.04171,55.5930578 374.542403,53.0520693 C382.793444,49.2405864 387.939735,29.6374061 374.542403,33.5018131 C361.145072,37.3662201 336.972321,69.1246198 343.837357,76.4318622 C348.414048,81.3033571 366.491063,75.581869 398.068403,59.2673979" id="Path-7"></path>
                <path d="M412.880596,35 C395.09351,60.6805499 388.150979,74.0029089 392.053002,74.9670769 C395.013842,75.6986837 399.883825,64.0926824 409.137006,54.5514244 C418.175662,45.2313701 431.60248,37.9933592 434.367807,36.8240742 C439.964092,34.4577522 429.354708,51.9399479 429.591039,55.894652 C429.748593,58.5311215 431.789503,60.42159 435.713769,61.5660576" id="Path-10"></path>
                <path d="M467.440254,51.1240468 C476.520826,36.8766962 476.520826,31.0292494 467.440254,33.5817063 C453.819396,37.4103918 429.243337,68.8752247 436.222912,76.1149207 C440.875962,80.9413848 457.52667,75.2364112 486.175037,59" id="Path-7"></path>
                <path d="M484.507825,60.2452457 C498.363517,56.65745 508.04171,53.5930578 513.542403,51.0520693 C521.793444,47.2405864 526.939735,27.6374061 513.542403,31.5018131 C500.145072,35.3662201 475.972321,67.1246198 482.837357,74.4318622 C487.414048,79.3033571 505.134929,72.8247034 536,54.9959009" id="Path-7"></path>
            </g>
            <path d="M458.758105,121 C513.00365,106.132395 593.000293,95.4322387 698.748033,88.8995309 C804.495773,82.366823 905.499131,82.366823 1001.75811,88.8995309" id="Path-5" stroke="#BFD6C9" stroke-width="7" style="mix-blend-mode: multiply;" stroke-linecap="round"></path>
            <path d="M143.227105,6.7 L120.777105,79 L108.627105,79 L92.8271053,29.6 C92.3941053,28.4 91.9941053,26.9333 91.6271053,25.2 C91.4271053,26.0333 91.2271053,26.8167 91.0271053,27.55 C90.8271053,28.2833 90.6101053,28.9667 90.3771053,29.6 L74.4271053,79 L62.2272053,79 L39.8272053,6.7 L51.0772053,6.7 C52.2439053,6.7 53.2106053,6.98333 53.9772053,7.55 C54.7772053,8.08333 55.3106053,8.81667 55.5772053,9.75 L67.8771053,53 C68.1441053,54.0667 68.3941053,55.2333 68.6271053,56.5 C68.8941053,57.7333 69.1601053,59.0333 69.4271053,60.4 C69.6941053,59 69.9771053,57.6833 70.2771053,56.45 C70.6101053,55.2167 70.9601053,54.0667 71.3271053,53 L85.5271053,9.75 C85.7941053,8.98333 86.3101053,8.28333 87.0771053,7.65 C87.8771053,7.01667 88.8441053,6.7 89.9771053,6.7 L93.9271053,6.7 C95.0941053,6.7 96.0441053,6.98333 96.7771053,7.55 C97.5101053,8.11667 98.0601053,8.85 98.4271053,9.75 L112.577105,53 C113.277105,55.0667 113.910105,57.45 114.477105,60.15 C114.910105,57.5167 115.394105,55.1333 115.927105,53 L128.227105,9.75 C128.427105,8.91667 128.927105,8.2 129.727105,7.6 C130.560105,7 131.544105,6.7 132.677105,6.7 L143.227105,6.7 Z" id="Path" fill="#000000" fill-rule="nonzero"></path>
            <path d="M179.151105,47.45 C179.151105,45.85 178.917105,44.35 178.451105,42.95 C178.017105,41.5167 177.351105,40.2667 176.451105,39.2 C175.551105,38.1333 174.401105,37.3 173.001105,36.7 C171.634105,36.0667 170.034105,35.75 168.201105,35.75 C164.634105,35.75 161.817105,36.7667 159.751105,38.8 C157.717105,40.8333 156.417105,43.7167 155.851105,47.45 L179.151105,47.45 Z M155.601105,54.9 C155.801105,57.5333 156.267105,59.8167 157.001105,61.75 C157.734105,63.65 158.701105,65.2333 159.901105,66.5 C161.101105,67.7333 162.517105,68.6667 164.151105,69.3 C165.817105,69.9 167.651105,70.2 169.651105,70.2 C171.651105,70.2 173.367105,69.9667 174.801105,69.5 C176.267105,69.0333 177.534105,68.5167 178.601105,67.95 C179.701105,67.3833 180.651105,66.8667 181.451105,66.4 C182.284105,65.9333 183.084105,65.7 183.851105,65.7 C184.884105,65.7 185.651105,66.0833 186.151105,66.85 L189.701105,71.35 C188.334105,72.95 186.801105,74.3 185.101105,75.4 C183.401105,76.4667 181.617105,77.3333 179.751105,78 C177.917105,78.6333 176.034105,79.0833 174.101105,79.35 C172.201105,79.6167 170.351105,79.75 168.551105,79.75 C164.984105,79.75 161.667105,79.1667 158.601105,78 C155.534105,76.8 152.867105,75.05 150.601105,72.75 C148.334105,70.4167 146.551105,67.55 145.251105,64.15 C143.951105,60.7167 143.301105,56.75 143.301105,52.25 C143.301105,48.75 143.867105,45.4667 145.001105,42.4 C146.134105,39.3 147.751105,36.6167 149.851105,34.35 C151.984105,32.05 154.567105,30.2333 157.601105,28.9 C160.667105,27.5667 164.117105,26.9 167.951105,26.9 C171.184105,26.9 174.167105,27.4167 176.901105,28.45 C179.634105,29.4833 181.984105,31 183.951105,33 C185.917105,34.9667 187.451105,37.4 188.551105,40.3 C189.684105,43.1667 190.251105,46.45 190.251105,50.15 C190.251105,52.0167 190.051105,53.2833 189.651105,53.95 C189.251105,54.5833 188.484105,54.9 187.351105,54.9 L155.601105,54.9 Z" id="Shape" fill="#000000" fill-rule="nonzero"></path>
            <polygon id="Path" fill="#000000" fill-rule="nonzero" points="290.735105 6.7 290.735105 79 277.235105 79 277.235105 47.4 243.285105 47.4 243.285105 79 229.785105 79 229.785105 6.7 243.285105 6.7 243.285105 37.8 277.235105 37.8 277.235105 6.7"></polygon>
            <path d="M338.373105,47.45 C338.373105,45.85 338.140105,44.35 337.673105,42.95 C337.240105,41.5167 336.573105,40.2667 335.673105,39.2 C334.773105,38.1333 333.623105,37.3 332.223105,36.7 C330.857105,36.0667 329.257105,35.75 327.423105,35.75 C323.857105,35.75 321.040105,36.7667 318.973105,38.8 C316.940105,40.8333 315.640105,43.7167 315.073105,47.45 L338.373105,47.45 Z M314.823105,54.9 C315.023105,57.5333 315.490105,59.8167 316.223105,61.75 C316.957105,63.65 317.923105,65.2333 319.123105,66.5 C320.323105,67.7333 321.740105,68.6667 323.373105,69.3 C325.040105,69.9 326.873105,70.2 328.873105,70.2 C330.873105,70.2 332.590105,69.9667 334.023105,69.5 C335.490105,69.0333 336.757105,68.5167 337.823105,67.95 C338.923105,67.3833 339.873105,66.8667 340.673105,66.4 C341.507105,65.9333 342.307105,65.7 343.073105,65.7 C344.107105,65.7 344.873105,66.0833 345.373105,66.85 L348.923105,71.35 C347.557105,72.95 346.023105,74.3 344.323105,75.4 C342.623105,76.4667 340.840105,77.3333 338.973105,78 C337.140105,78.6333 335.257105,79.0833 333.323105,79.35 C331.423105,79.6167 329.573105,79.75 327.773105,79.75 C324.207105,79.75 320.890105,79.1667 317.823105,78 C314.757105,76.8 312.090105,75.05 309.823105,72.75 C307.557105,70.4167 305.773105,67.55 304.473105,64.15 C303.173105,60.7167 302.523105,56.75 302.523105,52.25 C302.523105,48.75 303.090105,45.4667 304.223105,42.4 C305.357105,39.3 306.973105,36.6167 309.073105,34.35 C311.207105,32.05 313.790105,30.2333 316.823105,28.9 C319.890105,27.5667 323.340105,26.9 327.173105,26.9 C330.407105,26.9 333.390105,27.4167 336.123105,28.45 C338.857105,29.4833 341.207105,31 343.173105,33 C345.140105,34.9667 346.673105,37.4 347.773105,40.3 C348.907105,43.1667 349.473105,46.45 349.473105,50.15 C349.473105,52.0167 349.273105,53.2833 348.873105,53.95 C348.473105,54.5833 347.707105,54.9 346.573105,54.9 L314.823105,54.9 Z" id="Shape" fill="#000000" fill-rule="nonzero"></path>
            <polygon id="Path" fill="#000000" fill-rule="nonzero" points="373.241105 4.7 373.241105 79 360.891105 79 360.891105 4.7"></polygon>
            <path d="M399.896105,65.7 C401.296105,67.4 402.813105,68.6 404.446105,69.3 C406.113105,70 407.913105,70.35 409.846105,70.35 C411.713105,70.35 413.396105,70 414.896105,69.3 C416.396105,68.6 417.663105,67.5333 418.696105,66.1 C419.763105,64.6667 420.579105,62.8667 421.146105,60.7 C421.713105,58.5 421.996105,55.9167 421.996105,52.95 C421.996105,49.95 421.746105,47.4167 421.246105,45.35 C420.779105,43.25 420.096105,41.55 419.196105,40.25 C418.296105,38.95 417.196105,38 415.896105,37.4 C414.629105,36.8 413.179105,36.5 411.546105,36.5 C408.979105,36.5 406.796105,37.05 404.996105,38.15 C403.196105,39.2167 401.496105,40.7333 399.896105,42.7 L399.896105,65.7 Z M399.246105,34.7 C401.346105,32.3333 403.729105,30.4167 406.396105,28.95 C409.063105,27.4833 412.196105,26.75 415.796105,26.75 C418.596105,26.75 421.146105,27.3333 423.446105,28.5 C425.779105,29.6667 427.779105,31.3667 429.446105,33.6 C431.146105,35.8 432.446105,38.5333 433.346105,41.8 C434.279105,45.0333 434.746105,48.75 434.746105,52.95 C434.746105,56.7833 434.229105,60.3333 433.196105,63.6 C432.163105,66.8667 430.679105,69.7 428.746105,72.1 C426.846105,74.5 424.529105,76.3833 421.796105,77.75 C419.096105,79.0833 416.063105,79.75 412.696105,79.75 C409.829105,79.75 407.379105,79.3167 405.346105,78.45 C403.313105,77.55 401.496105,76.3167 399.896105,74.75 L399.896105,95.75 L387.546105,95.75 L387.546105,27.7 L395.096105,27.7 C396.696105,27.7 397.746105,28.45 398.246105,29.95 L399.246105,34.7 Z" id="Shape" fill="#000000" fill-rule="nonzero"></path>
            <path d="M25.8581053,195 C28.0581053,195 29.8581053,194.833 31.2581053,194.5 C32.7248053,194.167 33.9248053,193.567 34.8581053,192.7 C35.8581053,191.767 36.6914053,190.567 37.3581053,189.1 C38.0248053,187.567 38.6581053,185.6 39.2581053,183.2 L50.8581053,139.1 C51.3248053,137.367 51.6581053,135.867 51.8581053,134.6 C52.1248053,133.333 52.2581053,132.233 52.2581053,131.3 C52.2581053,129.1 51.4914053,127.667 49.9581053,127 C48.4248053,126.333 45.8581053,126 42.2581053,126 L43.3581053,122 L97.9581053,122 L97.9581053,142.2 L94.1581053,142.2 C93.2911053,139 92.3251053,136.4 91.2581053,134.4 C90.1911053,132.333 88.9581053,130.733 87.5581053,129.6 C86.2251053,128.4 84.6911053,127.567 82.9581053,127.1 C81.2911053,126.633 79.4251053,126.4 77.3581053,126.4 L64.3581053,126.4 L56.5581053,156.1 L62.8581053,156.1 C64.6581053,156.1 66.1911053,155.933 67.4581053,155.6 C68.7251053,155.267 69.8581053,154.7 70.8581053,153.9 C71.9251053,153.033 72.8911053,151.867 73.7581053,150.4 C74.6911053,148.933 75.6911053,147.033 76.7581053,144.7 L80.4581053,144.7 L74.4581053,174.3 L70.4581053,174.3 C70.6581053,172.3 70.7581053,170.567 70.7581053,169.1 C70.7581053,166.1 70.1911053,163.933 69.0581053,162.6 C67.9251053,161.2 65.8251053,160.5 62.7581053,160.5 L55.2581053,160.5 L49.5581053,182 C48.9581053,184.2 48.6581053,186.067 48.6581053,187.6 C48.6581053,190 49.7248053,191.8 51.8581053,193 C53.9914053,194.133 57.6581053,194.7 62.8581053,194.7 C66.6581053,194.7 69.9581053,194.4 72.7581053,193.8 C75.6251053,193.2 78.0911053,192.267 80.1581053,191 C82.2911053,189.667 84.1251053,187.933 85.6581053,185.8 C87.2581053,183.667 88.7581053,181.033 90.1581053,177.9 L94.8581053,177.9 L87.0581053,199 L24.7581053,199 L25.8581053,195 Z" id="Path" fill="#000000" fill-rule="nonzero"></path>
            <path d="M144.905105,150.2 C143.305105,150.2 141.472105,151.033 139.405105,152.7 C137.405105,154.3 135.338105,156.467 133.205105,159.2 C131.138105,161.867 129.138105,164.933 127.205105,168.4 C125.272105,171.867 123.638105,175.4 122.305105,179 L114.905105,199 L106.105105,199 L113.505105,176.1 C114.705105,172.433 115.705105,169.3 116.505105,166.7 C117.305105,164.1 117.938105,161.933 118.405105,160.2 C118.938105,158.4 119.305105,156.967 119.505105,155.9 C119.705105,154.767 119.805105,153.867 119.805105,153.2 C119.805105,151.4 119.238105,150.5 118.105105,150.5 C117.372105,150.5 116.505105,150.967 115.505105,151.9 C114.505105,152.833 113.472105,154.067 112.405105,155.6 C111.405105,157.067 110.438105,158.767 109.505105,160.7 C108.572105,162.633 107.772105,164.6 107.105105,166.6 L104.105105,165.1 C106.438105,158.233 109.038105,153.167 111.905105,149.9 C114.838105,146.633 118.172105,145 121.905105,145 C124.038105,145 125.538105,145.6 126.405105,146.8 C127.338105,148 127.805105,150.033 127.805105,152.9 C127.805105,156.3 127.238105,159.333 126.105105,162 L126.405105,162.3 C129.805105,156.3 133.238105,151.933 136.705105,149.2 C140.238105,146.4 144.072105,145 148.205105,145 C151.138105,145 153.372105,145.7 154.905105,147.1 C156.438105,148.5 157.205105,150.5 157.205105,153.1 C157.205105,153.967 157.105105,154.933 156.905105,156 C156.772105,157.067 156.505105,158.367 156.105105,159.9 C155.705105,161.367 155.138105,163.133 154.405105,165.2 C153.738105,167.267 152.905105,169.8 151.905105,172.8 C150.372105,177.333 149.105105,181.133 148.105105,184.2 C147.105105,187.267 146.605105,189.433 146.605105,190.7 C146.605105,191.7 146.938105,192.2 147.605105,192.2 C148.538105,192.2 149.905105,191.433 151.705105,189.9 C153.505105,188.367 155.938105,185.9 159.005105,182.5 L161.605105,183.9 C160.538105,185.9 159.138105,187.867 157.405105,189.8 C155.738105,191.667 153.972105,193.367 152.105105,194.9 C150.305105,196.433 148.505105,197.667 146.705105,198.6 C144.905105,199.533 143.338105,200 142.005105,200 C140.338105,200 139.005105,199.267 138.005105,197.8 C137.072105,196.333 136.605105,194.4 136.605105,192 C136.605105,191.067 136.672105,190.133 136.805105,189.2 C137.005105,188.2 137.372105,186.8 137.905105,185 C138.438105,183.2 139.205105,180.8 140.205105,177.8 C141.272105,174.733 142.705105,170.7 144.505105,165.7 C145.105105,163.967 145.605105,162.5 146.005105,161.3 C146.405105,160.1 146.705105,159.067 146.905105,158.2 C147.172105,157.267 147.338105,156.467 147.405105,155.8 C147.538105,155.133 147.605105,154.5 147.605105,153.9 C147.605105,151.433 146.705105,150.2 144.905105,150.2 Z" id="Path" fill="#000000" fill-rule="nonzero"></path>
            <path d="M190.600105,154.3 L182.300105,181.8 C181.167105,185.4 180.567105,188.133 180.500105,190 C180.500105,190.6 180.634105,191.133 180.900105,191.6 C181.234105,192.067 181.767105,192.3 182.500105,192.3 C183.700105,192.3 184.967105,191.867 186.300105,191 C187.634105,190.067 188.900105,189 190.100105,187.8 C191.367105,186.533 192.467105,185.267 193.400105,184 C194.400105,182.667 195.134105,181.633 195.600105,180.9 L198.500105,182.6 C197.367105,184.867 195.934105,187.067 194.200105,189.2 C192.467105,191.267 190.634105,193.1 188.700105,194.7 C186.767105,196.3 184.800105,197.6 182.800105,198.6 C180.867105,199.533 179.100105,200 177.500105,200 C175.167105,200 173.467105,199.5 172.400105,198.5 C171.400105,197.5 170.900105,195.833 170.900105,193.5 C170.900105,192.167 171.134105,190.367 171.600105,188.1 C172.067105,185.833 172.867105,182.733 174.000105,178.8 L181.400105,154.3 L172.800105,154.3 L174.100105,149.7 L182.800105,149.7 L188.000105,132.5 L197.200105,132.5 L192.000105,149.7 L202.900105,149.7 L201.500105,154.3 L190.600105,154.3 Z" id="Path" fill="#000000" fill-rule="nonzero"></path>
            <path d="M207.724105,159.9 C208.457105,158.233 209.557105,156.533 211.024105,154.8 C212.557105,153 214.190105,151.4 215.924105,150 C217.724105,148.533 219.524105,147.333 221.324105,146.4 C223.124105,145.467 224.690105,145 226.024105,145 C227.624105,145 228.790105,145.6 229.524105,146.8 C230.257105,148 230.624105,149.933 230.624105,152.6 C230.624105,153.667 230.557105,154.7 230.424105,155.7 C230.357105,156.7 230.190105,157.867 229.924105,159.2 L230.224105,159.5 C231.024105,157.567 232.157105,155.667 233.624105,153.8 C235.090105,151.933 236.657105,150.3 238.324105,148.9 C240.057105,147.433 241.790105,146.267 243.524105,145.4 C245.324105,144.467 246.990105,144 248.524105,144 C250.457105,144 252.057105,144.633 253.324105,145.9 C254.657105,147.1 255.324105,148.6 255.324105,150.4 C255.324105,152.133 254.757105,153.567 253.624105,154.7 C252.557105,155.833 251.157105,156.4 249.424105,156.4 C248.357105,156.4 247.490105,156.2 246.824105,155.8 C246.224105,155.4 245.690105,155 245.224105,154.6 C244.757105,154.133 244.324105,153.7 243.924105,153.3 C243.524105,152.9 243.024105,152.7 242.424105,152.7 C241.157105,152.7 239.690105,153.567 238.024105,155.3 C236.357105,156.967 234.624105,159.267 232.824105,162.2 C231.024105,165.133 229.224105,168.567 227.424105,172.5 C225.690105,176.433 224.090105,180.667 222.624105,185.2 L218.124105,199 L208.824105,199 L215.324105,178.3 C216.590105,174.3 217.624105,171 218.424105,168.4 C219.290105,165.733 219.957105,163.533 220.424105,161.8 C220.890105,160 221.190105,158.6 221.324105,157.6 C221.524105,156.6 221.624105,155.733 221.624105,155 C221.624105,153.533 221.124105,152.8 220.124105,152.8 C219.457105,152.8 218.624105,153.067 217.624105,153.6 C216.690105,154.133 215.757105,154.8 214.824105,155.6 C213.890105,156.4 212.990105,157.3 212.124105,158.3 C211.324105,159.3 210.724105,160.267 210.324105,161.2 L207.724105,159.9 Z" id="Path" fill="#000000" fill-rule="nonzero"></path>
            <path d="M289.548105,185.7 C283.748105,195.233 276.615105,200 268.148105,200 C263.548105,200 260.015105,198.6 257.548105,195.8 C255.081105,192.933 253.848105,188.9 253.848105,183.7 C253.848105,179.1 254.781105,174.5 256.648105,169.9 C258.581105,165.3 261.081105,161.167 264.148105,157.5 C267.215105,153.767 270.648105,150.767 274.448105,148.5 C278.248105,146.167 282.048105,145 285.848105,145 C289.048105,145 291.648105,145.833 293.648105,147.5 C295.715105,149.1 296.748105,151.167 296.748105,153.7 C296.748105,156.033 295.881105,158.433 294.148105,160.9 C292.414105,163.367 290.048105,165.7 287.048105,167.9 C284.115105,170.1 280.648105,172.1 276.648105,173.9 C272.715105,175.7 268.515105,177.1 264.048105,178.1 C263.915105,179.033 263.815105,179.967 263.748105,180.9 C263.681105,181.767 263.648105,182.667 263.648105,183.6 C263.648105,190.867 266.215105,194.5 271.348105,194.5 C273.815105,194.5 276.348105,193.533 278.948105,191.6 C281.615105,189.667 284.081105,187 286.348105,183.6 L289.548105,185.7 Z M283.848105,149.7 C282.115105,149.7 280.315105,150.367 278.448105,151.7 C276.581105,153.033 274.781105,154.833 273.048105,157.1 C271.381105,159.3 269.848105,161.833 268.448105,164.7 C267.048105,167.567 265.915105,170.533 265.048105,173.6 C268.248105,172.733 271.215105,171.6 273.948105,170.2 C276.681105,168.8 279.015105,167.233 280.948105,165.5 C282.948105,163.7 284.514105,161.833 285.648105,159.9 C286.781105,157.9 287.348105,155.9 287.348105,153.9 C287.348105,151.1 286.181105,149.7 283.848105,149.7 Z" id="Shape" fill="#000000" fill-rule="nonzero"></path>
            <path d="M301.553105,161.5 C304.020105,158.7 306.787105,156.2 309.853105,154 C312.920105,151.733 316.153105,149.9 319.553105,148.5 L324.253105,132.5 L331.853105,132.5 L328.353105,145.8 C329.420105,145.6 330.453105,145.433 331.453105,145.3 C332.520105,145.167 333.587105,145.1 334.653105,145.1 C340.320105,145.1 344.720105,146.633 347.853105,149.7 C350.987105,152.767 352.553105,157.067 352.553105,162.6 C352.553105,167 351.487105,171.167 349.353105,175.1 C347.287105,178.967 344.487105,182.433 340.953105,185.5 C337.487105,188.567 333.453105,191.133 328.853105,193.2 C324.320105,195.2 319.587105,196.533 314.653105,197.2 L310.953105,211.1 C310.620105,212.1 310.387105,212.933 310.253105,213.6 C310.187105,214.267 310.153105,214.867 310.153105,215.4 C310.153105,217.067 310.820105,218.233 312.153105,218.9 C313.553105,219.567 315.987105,219.933 319.453105,220 L318.853105,224 L290.553105,224 L291.153105,220 C293.953105,220 295.987105,219.667 297.253105,219 C298.520105,218.333 299.420105,217.133 299.953105,215.4 L318.053105,153.6 C315.520105,154.933 313.087105,156.533 310.753105,158.4 C308.420105,160.2 306.253105,162.167 304.253105,164.3 L301.553105,161.5 Z M332.053105,150 C331.187105,150 330.320105,150.067 329.453105,150.2 C328.653105,150.267 327.853105,150.367 327.053105,150.5 L315.753105,192.9 C319.087105,192.233 322.320105,191 325.453105,189.2 C328.653105,187.4 331.487105,185.167 333.953105,182.5 C336.420105,179.833 338.387105,176.867 339.853105,173.6 C341.387105,170.267 342.153105,166.8 342.153105,163.2 C342.153105,159.2 341.220105,156 339.353105,153.6 C337.553105,151.2 335.120105,150 332.053105,150 Z" id="Shape" fill="#000000" fill-rule="nonzero"></path>
            <path d="M360.501105,159.9 C361.234105,158.233 362.334105,156.533 363.801105,154.8 C365.334105,153 366.968105,151.4 368.701105,150 C370.501105,148.533 372.301105,147.333 374.101105,146.4 C375.901105,145.467 377.468105,145 378.801105,145 C380.401105,145 381.568105,145.6 382.301105,146.8 C383.034105,148 383.401105,149.933 383.401105,152.6 C383.401105,153.667 383.334105,154.7 383.201105,155.7 C383.134105,156.7 382.968105,157.867 382.701105,159.2 L383.001105,159.5 C383.801105,157.567 384.934105,155.667 386.401105,153.8 C387.868105,151.933 389.434105,150.3 391.101105,148.9 C392.834105,147.433 394.568105,146.267 396.301105,145.4 C398.101105,144.467 399.768105,144 401.301105,144 C403.234105,144 404.834105,144.633 406.101105,145.9 C407.434105,147.1 408.101105,148.6 408.101105,150.4 C408.101105,152.133 407.534105,153.567 406.401105,154.7 C405.334105,155.833 403.934105,156.4 402.201105,156.4 C401.134105,156.4 400.268105,156.2 399.601105,155.8 C399.001105,155.4 398.468105,155 398.001105,154.6 C397.534105,154.133 397.101105,153.7 396.701105,153.3 C396.301105,152.9 395.801105,152.7 395.201105,152.7 C393.934105,152.7 392.468105,153.567 390.801105,155.3 C389.134105,156.967 387.401105,159.267 385.601105,162.2 C383.801105,165.133 382.001105,168.567 380.201105,172.5 C378.468105,176.433 376.868105,180.667 375.401105,185.2 L370.901105,199 L361.601105,199 L368.101105,178.3 C369.368105,174.3 370.401105,171 371.201105,168.4 C372.068105,165.733 372.734105,163.533 373.201105,161.8 C373.668105,160 373.968105,158.6 374.101105,157.6 C374.301105,156.6 374.401105,155.733 374.401105,155 C374.401105,153.533 373.901105,152.8 372.901105,152.8 C372.234105,152.8 371.401105,153.067 370.401105,153.6 C369.468105,154.133 368.534105,154.8 367.601105,155.6 C366.668105,156.4 365.768105,157.3 364.901105,158.3 C364.101105,159.3 363.501105,160.267 363.101105,161.2 L360.501105,159.9 Z" id="Path" fill="#000000" fill-rule="nonzero"></path>
            <path d="M442.325105,185.7 C436.525105,195.233 429.392105,200 420.925105,200 C416.325105,200 412.792105,198.6 410.325105,195.8 C407.859105,192.933 406.625105,188.9 406.625105,183.7 C406.625105,179.1 407.559105,174.5 409.425105,169.9 C411.359105,165.3 413.859105,161.167 416.925105,157.5 C419.992105,153.767 423.425105,150.767 427.225105,148.5 C431.025105,146.167 434.825105,145 438.625105,145 C441.825105,145 444.425105,145.833 446.425105,147.5 C448.492105,149.1 449.525105,151.167 449.525105,153.7 C449.525105,156.033 448.659105,158.433 446.925105,160.9 C445.192105,163.367 442.825105,165.7 439.825105,167.9 C436.892105,170.1 433.425105,172.1 429.425105,173.9 C425.492105,175.7 421.292105,177.1 416.825105,178.1 C416.692105,179.033 416.592105,179.967 416.525105,180.9 C416.459105,181.767 416.425105,182.667 416.425105,183.6 C416.425105,190.867 418.992105,194.5 424.125105,194.5 C426.592105,194.5 429.125105,193.533 431.725105,191.6 C434.392105,189.667 436.859105,187 439.125105,183.6 L442.325105,185.7 Z M436.625105,149.7 C434.892105,149.7 433.092105,150.367 431.225105,151.7 C429.359105,153.033 427.559105,154.833 425.825105,157.1 C424.159105,159.3 422.625105,161.833 421.225105,164.7 C419.825105,167.567 418.692105,170.533 417.825105,173.6 C421.025105,172.733 423.992105,171.6 426.725105,170.2 C429.459105,168.8 431.792105,167.233 433.725105,165.5 C435.725105,163.7 437.292105,161.833 438.425105,159.9 C439.559105,157.9 440.125105,155.9 440.125105,153.9 C440.125105,151.1 438.959105,149.7 436.625105,149.7 Z" id="Shape" fill="#000000" fill-rule="nonzero"></path>
            <path d="M495.331105,150.2 C493.731105,150.2 491.897105,151.033 489.831105,152.7 C487.831105,154.3 485.764105,156.467 483.631105,159.2 C481.564105,161.867 479.564105,164.933 477.631105,168.4 C475.697105,171.867 474.064105,175.4 472.731105,179 L465.331105,199 L456.531105,199 L463.931105,176.1 C465.131105,172.433 466.131105,169.3 466.931105,166.7 C467.731105,164.1 468.364105,161.933 468.831105,160.2 C469.364105,158.4 469.731105,156.967 469.931105,155.9 C470.131105,154.767 470.231105,153.867 470.231105,153.2 C470.231105,151.4 469.664105,150.5 468.531105,150.5 C467.797105,150.5 466.931105,150.967 465.931105,151.9 C464.931105,152.833 463.897105,154.067 462.831105,155.6 C461.831105,157.067 460.864105,158.767 459.931105,160.7 C458.997105,162.633 458.197105,164.6 457.531105,166.6 L454.531105,165.1 C456.864105,158.233 459.464105,153.167 462.331105,149.9 C465.264105,146.633 468.597105,145 472.331105,145 C474.464105,145 475.964105,145.6 476.831105,146.8 C477.764105,148 478.231105,150.033 478.231105,152.9 C478.231105,156.3 477.664105,159.333 476.531105,162 L476.831105,162.3 C480.231105,156.3 483.664105,151.933 487.131105,149.2 C490.664105,146.4 494.497105,145 498.631105,145 C501.564105,145 503.797105,145.7 505.331105,147.1 C506.864105,148.5 507.631105,150.5 507.631105,153.1 C507.631105,153.967 507.531105,154.933 507.331105,156 C507.197105,157.067 506.931105,158.367 506.531105,159.9 C506.131105,161.367 505.564105,163.133 504.831105,165.2 C504.164105,167.267 503.331105,169.8 502.331105,172.8 C500.797105,177.333 499.531105,181.133 498.531105,184.2 C497.531105,187.267 497.031105,189.433 497.031105,190.7 C497.031105,191.7 497.364105,192.2 498.031105,192.2 C498.964105,192.2 500.331105,191.433 502.131105,189.9 C503.931105,188.367 506.364105,185.9 509.431105,182.5 L512.031105,183.9 C510.964105,185.9 509.564105,187.867 507.831105,189.8 C506.164105,191.667 504.397105,193.367 502.531105,194.9 C500.731105,196.433 498.931105,197.667 497.131105,198.6 C495.331105,199.533 493.764105,200 492.431105,200 C490.764105,200 489.431105,199.267 488.431105,197.8 C487.497105,196.333 487.031105,194.4 487.031105,192 C487.031105,191.067 487.097105,190.133 487.231105,189.2 C487.431105,188.2 487.797105,186.8 488.331105,185 C488.864105,183.2 489.631105,180.8 490.631105,177.8 C491.697105,174.733 493.131105,170.7 494.931105,165.7 C495.531105,163.967 496.031105,162.5 496.431105,161.3 C496.831105,160.1 497.131105,159.067 497.331105,158.2 C497.597105,157.267 497.764105,156.467 497.831105,155.8 C497.964105,155.133 498.031105,154.5 498.031105,153.9 C498.031105,151.433 497.131105,150.2 495.331105,150.2 Z" id="Path" fill="#000000" fill-rule="nonzero"></path>
            <path d="M554.626105,185.7 C548.826105,195.233 541.693105,200 533.226105,200 C528.626105,200 525.093105,198.6 522.626105,195.8 C520.159105,192.933 518.926105,188.9 518.926105,183.7 C518.926105,179.1 519.859105,174.5 521.726105,169.9 C523.659105,165.3 526.159105,161.167 529.226105,157.5 C532.293105,153.767 535.726105,150.767 539.526105,148.5 C543.326105,146.167 547.126105,145 550.926105,145 C554.126105,145 556.726105,145.833 558.726105,147.5 C560.793105,149.1 561.826105,151.167 561.826105,153.7 C561.826105,156.033 560.959105,158.433 559.226105,160.9 C557.493105,163.367 555.126105,165.7 552.126105,167.9 C549.193105,170.1 545.726105,172.1 541.726105,173.9 C537.793105,175.7 533.593105,177.1 529.126105,178.1 C528.993105,179.033 528.893105,179.967 528.826105,180.9 C528.759105,181.767 528.726105,182.667 528.726105,183.6 C528.726105,190.867 531.293105,194.5 536.426105,194.5 C538.893105,194.5 541.426105,193.533 544.026105,191.6 C546.693105,189.667 549.159105,187 551.426105,183.6 L554.626105,185.7 Z M548.926105,149.7 C547.193105,149.7 545.393105,150.367 543.526105,151.7 C541.659105,153.033 539.859105,154.833 538.126105,157.1 C536.459105,159.3 534.926105,161.833 533.526105,164.7 C532.126105,167.567 530.993105,170.533 530.126105,173.6 C533.326105,172.733 536.293105,171.6 539.026105,170.2 C541.759105,168.8 544.093105,167.233 546.026105,165.5 C548.026105,163.7 549.593105,161.833 550.726105,159.9 C551.859105,157.9 552.426105,155.9 552.426105,153.9 C552.426105,151.1 551.259105,149.7 548.926105,149.7 Z" id="Shape" fill="#000000" fill-rule="nonzero"></path>
            <path d="M582.031105,192.8 C583.098105,192.8 584.498105,192.067 586.231105,190.6 C587.965105,189.067 589.798105,187.067 591.731105,184.6 C593.665105,182.067 595.531105,179.2 597.331105,176 C599.198105,172.8 600.765105,169.467 602.031105,166 L609.431105,146 L618.731105,146 L611.331105,168.9 C610.265105,172.233 609.365105,175.1 608.631105,177.5 C607.898105,179.833 607.298105,181.833 606.831105,183.5 C606.365105,185.1 606.031105,186.433 605.831105,187.5 C605.631105,188.5 605.531105,189.3 605.531105,189.9 C605.531105,191.633 606.131105,192.5 607.331105,192.5 C607.998105,192.5 608.798105,192.2 609.731105,191.6 C610.665105,190.933 611.598105,190.067 612.531105,189 C613.531105,187.867 614.465105,186.633 615.331105,185.3 C616.265105,183.9 617.065105,182.433 617.731105,180.9 L620.731105,182.4 C619.865105,184.6 618.731105,186.767 617.331105,188.9 C615.931105,190.967 614.398105,192.833 612.731105,194.5 C611.131105,196.167 609.431105,197.5 607.631105,198.5 C605.831105,199.5 604.065105,200 602.331105,200 C600.265105,200 598.865105,199.267 598.131105,197.8 C597.398105,196.333 597.031105,194.233 597.031105,191.5 C597.031105,190.367 597.065105,189.167 597.131105,187.9 C597.265105,186.567 597.465105,185.267 597.731105,184 L597.431105,183.7 C595.631105,186.9 593.865105,189.533 592.131105,191.6 C590.465105,193.667 588.831105,195.333 587.231105,196.6 C585.631105,197.867 584.065105,198.733 582.531105,199.2 C580.998105,199.733 579.498105,200 578.031105,200 C574.898105,200 572.698105,199.133 571.431105,197.4 C570.231105,195.667 569.631105,193.533 569.631105,191 C569.631105,188.2 570.165105,185.133 571.231105,181.8 C572.298105,178.4 573.431105,175.2 574.631105,172.2 C575.831105,169.2 576.831105,166.667 577.631105,164.6 C578.498105,162.533 579.165105,160.8 579.631105,159.4 C580.165105,158 580.531105,156.867 580.731105,156 C580.998105,155.133 581.131105,154.433 581.131105,153.9 C581.131105,153.633 581.065105,153.4 580.931105,153.2 C580.865105,152.933 580.631105,152.8 580.231105,152.8 C579.365105,152.8 578.098105,153.567 576.431105,155.1 C574.831105,156.633 572.631105,159.1 569.831105,162.5 L567.231105,161.1 C568.231105,159.167 569.498105,157.233 571.031105,155.3 C572.565105,153.367 574.198105,151.633 575.931105,150.1 C577.665105,148.567 579.465105,147.333 581.331105,146.4 C583.198105,145.467 584.931105,145 586.531105,145 C589.865105,145 591.531105,146.933 591.531105,150.8 C591.531105,153.133 590.865105,156.167 589.531105,159.9 C588.265105,163.567 586.598105,167.967 584.531105,173.1 C583.198105,176.367 582.098105,179.3 581.231105,181.9 C580.365105,184.5 579.931105,186.867 579.931105,189 C579.931105,190.4 580.131105,191.4 580.531105,192 C580.931105,192.533 581.431105,192.8 582.031105,192.8 Z" id="Path" fill="#000000" fill-rule="nonzero"></path>
            <path d="M628.509105,159.9 C629.242105,158.233 630.342105,156.533 631.809105,154.8 C633.342105,153 634.975105,151.4 636.709105,150 C638.509105,148.533 640.309105,147.333 642.109105,146.4 C643.909105,145.467 645.475105,145 646.809105,145 C648.409105,145 649.575105,145.6 650.309105,146.8 C651.042105,148 651.409105,149.933 651.409105,152.6 C651.409105,153.667 651.342105,154.7 651.209105,155.7 C651.142105,156.7 650.975105,157.867 650.709105,159.2 L651.009105,159.5 C651.809105,157.567 652.942105,155.667 654.409105,153.8 C655.875105,151.933 657.442105,150.3 659.109105,148.9 C660.842105,147.433 662.575105,146.267 664.309105,145.4 C666.109105,144.467 667.775105,144 669.309105,144 C671.242105,144 672.842105,144.633 674.109105,145.9 C675.442105,147.1 676.109105,148.6 676.109105,150.4 C676.109105,152.133 675.542105,153.567 674.409105,154.7 C673.342105,155.833 671.942105,156.4 670.209105,156.4 C669.142105,156.4 668.275105,156.2 667.609105,155.8 C667.009105,155.4 666.475105,155 666.009105,154.6 C665.542105,154.133 665.109105,153.7 664.709105,153.3 C664.309105,152.9 663.809105,152.7 663.209105,152.7 C661.942105,152.7 660.475105,153.567 658.809105,155.3 C657.142105,156.967 655.409105,159.267 653.609105,162.2 C651.809105,165.133 650.009105,168.567 648.209105,172.5 C646.475105,176.433 644.875105,180.667 643.409105,185.2 L638.909105,199 L629.609105,199 L636.109105,178.3 C637.375105,174.3 638.409105,171 639.209105,168.4 C640.075105,165.733 640.742105,163.533 641.209105,161.8 C641.675105,160 641.975105,158.6 642.109105,157.6 C642.309105,156.6 642.409105,155.733 642.409105,155 C642.409105,153.533 641.909105,152.8 640.909105,152.8 C640.242105,152.8 639.409105,153.067 638.409105,153.6 C637.475105,154.133 636.542105,154.8 635.609105,155.6 C634.675105,156.4 633.775105,157.3 632.909105,158.3 C632.109105,159.3 631.509105,160.267 631.109105,161.2 L628.509105,159.9 Z" id="Path" fill="#000000" fill-rule="nonzero"></path>
            <path d="M682.398105,160.3 C682.398105,158.1 682.798105,156.067 683.598105,154.2 C684.465105,152.333 685.631105,150.733 687.098105,149.4 C688.565105,148 690.298105,146.933 692.298105,146.2 C694.365105,145.4 696.598105,145 698.998105,145 C702.198105,145 704.865105,145.8 706.998105,147.4 C709.131105,149 710.198105,151.067 710.198105,153.6 C710.198105,155 709.798105,156.1 708.998105,156.9 C708.265105,157.7 707.231105,158.1 705.898105,158.1 C704.364105,158.1 703.265105,157.667 702.598105,156.8 C701.931105,155.867 701.364105,154.867 700.898105,153.8 C700.431105,152.667 699.931105,151.633 699.398105,150.7 C698.864105,149.767 697.964105,149.3 696.698105,149.3 C695.231105,149.3 693.998105,149.933 692.998105,151.2 C691.998105,152.467 691.498105,154.033 691.498105,155.9 C691.498105,158.1 692.131105,160.167 693.398105,162.1 C694.731105,163.967 696.198105,165.933 697.798105,168 C699.398105,170.067 700.831105,172.333 702.098105,174.8 C703.431105,177.267 704.098105,180.167 704.098105,183.5 C704.098105,185.767 703.598105,187.9 702.598105,189.9 C701.665105,191.9 700.364105,193.667 698.698105,195.2 C697.098105,196.667 695.231105,197.833 693.098105,198.7 C690.965105,199.567 688.765105,200 686.498105,200 C682.498105,200 679.298105,199.133 676.898105,197.4 C674.564105,195.667 673.398105,193.4 673.398105,190.6 C673.398105,188.667 673.831105,187.167 674.698105,186.1 C675.631105,184.967 676.864105,184.4 678.398105,184.4 C681.264105,184.4 682.898105,186.367 683.298105,190.3 C683.498105,192.433 683.831105,193.867 684.298105,194.6 C684.831105,195.267 685.864105,195.6 687.398105,195.6 C689.798105,195.6 691.698105,194.9 693.098105,193.5 C694.498105,192.033 695.198105,190.033 695.198105,187.5 C695.198105,184.833 694.531105,182.467 693.198105,180.4 C691.864105,178.333 690.398105,176.333 688.798105,174.4 C687.198105,172.4 685.731105,170.3 684.398105,168.1 C683.064105,165.9 682.398105,163.3 682.398105,160.3 Z" id="Path" fill="#000000" fill-rule="nonzero"></path>
            <path d="M771.000105,161.1 C773.534105,161.1 775.733105,160.783 777.600105,160.15 C779.500105,159.517 781.050105,158.65 782.250105,157.55 C783.484105,156.417 784.400105,155.083 785.000105,153.55 C785.600105,152.017 785.900105,150.333 785.900105,148.5 C785.900105,144.833 784.684105,142.017 782.250105,140.05 C779.850105,138.083 776.167105,137.1 771.200105,137.1 L762.600105,137.1 L762.600105,161.1 L771.000105,161.1 Z M805.600105,199 L793.450105,199 C791.150105,199 789.484105,198.1 788.450105,196.3 L773.250105,173.15 C772.684105,172.283 772.050105,171.667 771.350105,171.3 C770.683105,170.933 769.683105,170.75 768.350105,170.75 L762.600105,170.75 L762.600105,199 L749.150105,199 L749.150105,126.7 L771.200105,126.7 C776.100105,126.7 780.300105,127.217 783.800105,128.25 C787.334105,129.25 790.217105,130.667 792.450105,132.5 C794.717105,134.333 796.384105,136.533 797.450105,139.1 C798.517105,141.633 799.050105,144.433 799.050105,147.5 C799.050105,149.933 798.684105,152.233 797.950105,154.4 C797.250105,156.567 796.217105,158.533 794.850105,160.3 C793.517105,162.067 791.850105,163.617 789.850105,164.95 C787.883105,166.283 785.633105,167.333 783.100105,168.1 C783.967105,168.6 784.767105,169.2 785.500105,169.9 C786.234105,170.567 786.900105,171.367 787.500105,172.3 L805.600105,199 Z" id="Shape" fill="#000000" fill-rule="nonzero"></path>
            <path d="M843.188105,167.45 C843.188105,165.85 842.954105,164.35 842.488105,162.95 C842.054105,161.517 841.388105,160.267 840.488105,159.2 C839.588105,158.133 838.438105,157.3 837.038105,156.7 C835.671105,156.067 834.071105,155.75 832.238105,155.75 C828.671105,155.75 825.854105,156.767 823.788105,158.8 C821.754105,160.833 820.454105,163.717 819.888105,167.45 L843.188105,167.45 Z M819.638105,174.9 C819.838105,177.533 820.304105,179.817 821.038105,181.75 C821.771105,183.65 822.738105,185.233 823.938105,186.5 C825.138105,187.733 826.554105,188.667 828.188105,189.3 C829.854105,189.9 831.688105,190.2 833.688105,190.2 C835.688105,190.2 837.404105,189.967 838.838105,189.5 C840.304105,189.033 841.571105,188.517 842.638105,187.95 C843.738105,187.383 844.688105,186.867 845.488105,186.4 C846.321105,185.933 847.121105,185.7 847.888105,185.7 C848.921105,185.7 849.688105,186.083 850.188105,186.85 L853.738105,191.35 C852.371105,192.95 850.838105,194.3 849.138105,195.4 C847.438105,196.467 845.654105,197.333 843.788105,198 C841.954105,198.633 840.071105,199.083 838.138105,199.35 C836.238105,199.617 834.388105,199.75 832.588105,199.75 C829.021105,199.75 825.704105,199.167 822.638105,198 C819.571105,196.8 816.904105,195.05 814.638105,192.75 C812.371105,190.417 810.588105,187.55 809.288105,184.15 C807.988105,180.717 807.338105,176.75 807.338105,172.25 C807.338105,168.75 807.904105,165.467 809.038105,162.4 C810.171105,159.3 811.788105,156.617 813.888105,154.35 C816.021105,152.05 818.604105,150.233 821.638105,148.9 C824.704105,147.567 828.154105,146.9 831.988105,146.9 C835.221105,146.9 838.204105,147.417 840.938105,148.45 C843.671105,149.483 846.021105,151 847.988105,153 C849.954105,154.967 851.488105,157.4 852.588105,160.3 C853.721105,163.167 854.288105,166.45 854.288105,170.15 C854.288105,172.017 854.088105,173.283 853.688105,173.95 C853.288105,174.583 852.521105,174.9 851.388105,174.9 L819.638105,174.9 Z" id="Shape" fill="#000000" fill-rule="nonzero"></path>
            <path d="M892.656105,177.1 C889.089105,177.267 886.089105,177.583 883.656105,178.05 C881.222105,178.483 879.272105,179.05 877.806105,179.75 C876.339105,180.45 875.289105,181.267 874.656105,182.2 C874.022105,183.133 873.706105,184.15 873.706105,185.25 C873.706105,187.417 874.339105,188.967 875.606105,189.9 C876.906105,190.833 878.589105,191.3 880.656105,191.3 C883.189105,191.3 885.372105,190.85 887.206105,189.95 C889.072105,189.017 890.889105,187.617 892.656105,185.75 L892.656105,177.1 Z M864.356105,154.85 C870.256105,149.45 877.356105,146.75 885.656105,146.75 C888.656105,146.75 891.339105,147.25 893.706105,148.25 C896.072105,149.217 898.072105,150.583 899.706105,152.35 C901.339105,154.083 902.572105,156.167 903.406105,158.6 C904.272105,161.033 904.706105,163.7 904.706105,166.6 L904.706105,199 L899.106105,199 C897.939105,199 897.039105,198.833 896.406105,198.5 C895.772105,198.133 895.272105,197.417 894.906105,196.35 L893.806105,192.65 C892.506105,193.817 891.239105,194.85 890.006105,195.75 C888.772105,196.617 887.489105,197.35 886.156105,197.95 C884.822105,198.55 883.389105,199 881.856105,199.3 C880.356105,199.633 878.689105,199.8 876.856105,199.8 C874.689105,199.8 872.689105,199.517 870.856105,198.95 C869.022105,198.35 867.439105,197.467 866.106105,196.3 C864.772105,195.133 863.739105,193.683 863.006105,191.95 C862.272105,190.217 861.906105,188.2 861.906105,185.9 C861.906105,184.6 862.122105,183.317 862.556105,182.05 C862.989105,180.75 863.689105,179.517 864.656105,178.35 C865.656105,177.183 866.939105,176.083 868.506105,175.05 C870.072105,174.017 871.989105,173.117 874.256105,172.35 C876.556105,171.583 879.222105,170.967 882.256105,170.5 C885.289105,170 888.756105,169.7 892.656105,169.6 L892.656105,166.6 C892.656105,163.167 891.922105,160.633 890.456105,159 C888.989105,157.333 886.872105,156.5 884.106105,156.5 C882.106105,156.5 880.439105,156.733 879.106105,157.2 C877.806105,157.667 876.656105,158.2 875.656105,158.8 C874.656105,159.367 873.739105,159.883 872.906105,160.35 C872.106105,160.817 871.206105,161.05 870.206105,161.05 C869.339105,161.05 868.606105,160.833 868.006105,160.4 C867.406105,159.933 866.922105,159.4 866.556105,158.8 L864.356105,154.85 Z" id="Shape" fill="#000000" fill-rule="nonzero"></path>
            <path d="M955.087105,158.55 C954.720105,159.017 954.354105,159.383 953.987105,159.65 C953.654105,159.917 953.154105,160.05 952.487105,160.05 C951.854105,160.05 951.237105,159.867 950.637105,159.5 C950.037105,159.1 949.320105,158.667 948.487105,158.2 C947.654105,157.7 946.654105,157.267 945.487105,156.9 C944.354105,156.5 942.937105,156.3 941.237105,156.3 C939.070105,156.3 937.170105,156.7 935.537105,157.5 C933.904105,158.267 932.537105,159.383 931.437105,160.85 C930.370105,162.317 929.570105,164.1 929.037105,166.2 C928.504105,168.267 928.237105,170.617 928.237105,173.25 C928.237105,175.983 928.520105,178.417 929.087105,180.55 C929.687105,182.683 930.537105,184.483 931.637105,185.95 C932.737105,187.383 934.070105,188.483 935.637105,189.25 C937.204105,189.983 938.970105,190.35 940.937105,190.35 C942.904105,190.35 944.487105,190.117 945.687105,189.65 C946.920105,189.15 947.954105,188.617 948.787105,188.05 C949.620105,187.45 950.337105,186.917 950.937105,186.45 C951.570105,185.95 952.270105,185.7 953.037105,185.7 C954.037105,185.7 954.787105,186.083 955.287105,186.85 L958.837105,191.35 C957.470105,192.95 955.987105,194.3 954.387105,195.4 C952.787105,196.467 951.120105,197.333 949.387105,198 C947.687105,198.633 945.920105,199.083 944.087105,199.35 C942.287105,199.617 940.487105,199.75 938.687105,199.75 C935.520105,199.75 932.537105,199.167 929.737105,198 C926.937105,196.8 924.487105,195.067 922.387105,192.8 C920.287105,190.533 918.620105,187.767 917.387105,184.5 C916.187105,181.2 915.587105,177.45 915.587105,173.25 C915.587105,169.483 916.120105,166 917.187105,162.8 C918.287105,159.567 919.887105,156.783 921.987105,154.45 C924.087105,152.083 926.687105,150.233 929.787105,148.9 C932.887105,147.567 936.454105,146.9 940.487105,146.9 C944.320105,146.9 947.670105,147.517 950.537105,148.75 C953.437105,149.983 956.037105,151.75 958.337105,154.05 L955.087105,158.55 Z" id="Path" fill="#000000" fill-rule="nonzero"></path>
            <path d="M980.928105,153.2 C982.928105,151.333 985.128105,149.817 987.528105,148.65 C989.928105,147.483 992.748105,146.9 995.978105,146.9 C998.778105,146.9 1001.25811,147.383 1003.42811,148.35 C1005.59811,149.283 1007.39811,150.617 1008.82811,152.35 C1010.29811,154.05 1011.39811,156.1 1012.12811,158.5 C1012.89811,160.867 1013.27811,163.483 1013.27811,166.35 L1013.27811,199 L1000.92811,199 L1000.92811,166.35 C1000.92811,163.217 1000.20811,160.8 998.778105,159.1 C997.348105,157.367 995.158105,156.5 992.228105,156.5 C990.098105,156.5 988.098105,156.983 986.228105,157.95 C984.358105,158.917 982.598105,160.233 980.928105,161.9 L980.928105,199 L968.578105,199 L968.578105,124.7 L980.928105,124.7 L980.928105,153.2 Z" id="Path" fill="#000000" fill-rule="nonzero"></path>
            <path d="M246.555105,247.7 L246.555105,320 L239.655105,320 C238.589105,320 237.689105,319.833 236.955105,319.5 C236.255105,319.133 235.572105,318.533 234.905105,317.7 L197.155105,269.5 C197.355105,271.7 197.455105,273.733 197.455105,275.6 L197.455105,320 L185.605105,320 L185.605105,247.7 L192.655105,247.7 C193.222105,247.7 193.705105,247.733 194.105105,247.8 C194.539105,247.833 194.905105,247.933 195.205105,248.1 C195.539105,248.233 195.855105,248.45 196.155105,248.75 C196.455105,249.017 196.789105,249.383 197.155105,249.85 L235.055105,298.25 C234.955105,297.083 234.872105,295.933 234.805105,294.8 C234.739105,293.667 234.705105,292.617 234.705105,291.65 L234.705105,247.7 L246.555105,247.7 Z" id="Path" fill="#000000" fill-rule="nonzero"></path>
            <path d="M294.194105,288.45 C294.194105,286.85 293.960105,285.35 293.494105,283.95 C293.060105,282.517 292.394105,281.267 291.494105,280.2 C290.594105,279.133 289.444105,278.3 288.044105,277.7 C286.677105,277.067 285.077105,276.75 283.244105,276.75 C279.677105,276.75 276.860105,277.767 274.794105,279.8 C272.760105,281.833 271.460105,284.717 270.894105,288.45 L294.194105,288.45 Z M270.644105,295.9 C270.844105,298.533 271.310105,300.817 272.044105,302.75 C272.777105,304.65 273.744105,306.233 274.944105,307.5 C276.144105,308.733 277.560105,309.667 279.194105,310.3 C280.860105,310.9 282.694105,311.2 284.694105,311.2 C286.694105,311.2 288.410105,310.967 289.844105,310.5 C291.310105,310.033 292.577105,309.517 293.644105,308.95 C294.744105,308.383 295.694105,307.867 296.494105,307.4 C297.327105,306.933 298.127105,306.7 298.894105,306.7 C299.927105,306.7 300.694105,307.083 301.194105,307.85 L304.744105,312.35 C303.377105,313.95 301.844105,315.3 300.144105,316.4 C298.444105,317.467 296.660105,318.333 294.794105,319 C292.960105,319.633 291.077105,320.083 289.144105,320.35 C287.244105,320.617 285.394105,320.75 283.594105,320.75 C280.027105,320.75 276.710105,320.167 273.644105,319 C270.577105,317.8 267.910105,316.05 265.644105,313.75 C263.377105,311.417 261.594105,308.55 260.294105,305.15 C258.994105,301.717 258.344105,297.75 258.344105,293.25 C258.344105,289.75 258.910105,286.467 260.044105,283.4 C261.177105,280.3 262.794105,277.617 264.894105,275.35 C267.027105,273.05 269.610105,271.233 272.644105,269.9 C275.710105,268.567 279.160105,267.9 282.994105,267.9 C286.227105,267.9 289.210105,268.417 291.944105,269.45 C294.677105,270.483 297.027105,272 298.994105,274 C300.960105,275.967 302.494105,278.4 303.594105,281.3 C304.727105,284.167 305.294105,287.45 305.294105,291.15 C305.294105,293.017 305.094105,294.283 304.694105,294.95 C304.294105,295.583 303.527105,295.9 302.394105,295.9 L270.644105,295.9 Z" id="Shape" fill="#000000" fill-rule="nonzero"></path>
            <path d="M389.128105,268.7 L372.828105,320 L362.928105,320 C361.795105,320 361.011105,319.267 360.578105,317.8 L351.378105,288.15 C351.078105,287.15 350.795105,286.167 350.528105,285.2 C350.295105,284.2 350.095105,283.2 349.928105,282.2 C349.728105,283.2 349.495105,284.217 349.228105,285.25 C348.995105,286.25 348.728105,287.25 348.428105,288.25 L339.078105,317.8 C338.678105,319.267 337.795105,320 336.428105,320 L326.928105,320 L310.678105,268.7 L320.528105,268.7 C321.428105,268.7 322.195105,268.917 322.828105,269.35 C323.461105,269.783 323.878105,270.333 324.078105,271 L331.428105,298.4 C331.795105,299.9 332.111105,301.367 332.378105,302.8 C332.678105,304.233 332.928105,305.667 333.128105,307.1 C333.495105,305.667 333.878105,304.233 334.278105,302.8 C334.711105,301.367 335.161105,299.9 335.628105,298.4 L344.128105,270.9 C344.328105,270.233 344.711105,269.683 345.278105,269.25 C345.878105,268.817 346.595105,268.6 347.428105,268.6 L352.878105,268.6 C353.745105,268.6 354.478105,268.817 355.078105,269.25 C355.711105,269.683 356.128105,270.233 356.328105,270.9 L364.578105,298.4 C365.011105,299.9 365.411105,301.383 365.778105,302.85 C366.178105,304.283 366.561105,305.717 366.928105,307.15 C367.361105,304.317 367.978105,301.4 368.778105,298.4 L376.328105,271 C376.561105,270.333 376.978105,269.783 377.578105,269.35 C378.178105,268.917 378.895105,268.7 379.728105,268.7 L389.128105,268.7 Z" id="Path" fill="#000000" fill-rule="nonzero"></path>
            <polygon id="Path" fill="#000000" fill-rule="nonzero" points="513.684105 247.7 513.684105 320 500.184105 320 500.184105 288.4 466.234105 288.4 466.234105 320 452.734105 320 452.734105 247.7 466.234105 247.7 466.234105 278.8 500.184105 278.8 500.184105 247.7"></polygon>
            <path d="M561.322105,288.45 C561.322105,286.85 561.089105,285.35 560.622105,283.95 C560.189105,282.517 559.522105,281.267 558.622105,280.2 C557.722105,279.133 556.572105,278.3 555.172105,277.7 C553.806105,277.067 552.206105,276.75 550.372105,276.75 C546.806105,276.75 543.989105,277.767 541.922105,279.8 C539.889105,281.833 538.589105,284.717 538.022105,288.45 L561.322105,288.45 Z M537.772105,295.9 C537.972105,298.533 538.439105,300.817 539.172105,302.75 C539.906105,304.65 540.872105,306.233 542.072105,307.5 C543.272105,308.733 544.689105,309.667 546.322105,310.3 C547.989105,310.9 549.822105,311.2 551.822105,311.2 C553.822105,311.2 555.539105,310.967 556.972105,310.5 C558.439105,310.033 559.706105,309.517 560.772105,308.95 C561.872105,308.383 562.822105,307.867 563.622105,307.4 C564.456105,306.933 565.256105,306.7 566.022105,306.7 C567.056105,306.7 567.822105,307.083 568.322105,307.85 L571.872105,312.35 C570.506105,313.95 568.972105,315.3 567.272105,316.4 C565.572105,317.467 563.789105,318.333 561.922105,319 C560.089105,319.633 558.206105,320.083 556.272105,320.35 C554.372105,320.617 552.522105,320.75 550.722105,320.75 C547.156105,320.75 543.839105,320.167 540.772105,319 C537.706105,317.8 535.039105,316.05 532.772105,313.75 C530.506105,311.417 528.722105,308.55 527.422105,305.15 C526.122105,301.717 525.472105,297.75 525.472105,293.25 C525.472105,289.75 526.039105,286.467 527.172105,283.4 C528.306105,280.3 529.922105,277.617 532.022105,275.35 C534.156105,273.05 536.739105,271.233 539.772105,269.9 C542.839105,268.567 546.289105,267.9 550.122105,267.9 C553.356105,267.9 556.339105,268.417 559.072105,269.45 C561.806105,270.483 564.156105,272 566.122105,274 C568.089105,275.967 569.622105,278.4 570.722105,281.3 C571.856105,284.167 572.422105,287.45 572.422105,291.15 C572.422105,293.017 572.222105,294.283 571.822105,294.95 C571.422105,295.583 570.656105,295.9 569.522105,295.9 L537.772105,295.9 Z" id="Shape" fill="#000000" fill-rule="nonzero"></path>
            <path d="M596.490105,268.7 L596.490105,320 L584.090105,320 L584.090105,268.7 L596.490105,268.7 Z M598.190105,253.75 C598.190105,254.817 597.974105,255.817 597.540105,256.75 C597.107105,257.683 596.524105,258.5 595.790105,259.2 C595.090105,259.9 594.257105,260.467 593.290105,260.9 C592.324105,261.3 591.290105,261.5 590.190105,261.5 C589.124105,261.5 588.107105,261.3 587.140105,260.9 C586.207105,260.467 585.390105,259.9 584.690105,259.2 C583.990105,258.5 583.424105,257.683 582.990105,256.75 C582.590105,255.817 582.390105,254.817 582.390105,253.75 C582.390105,252.65 582.590105,251.617 582.990105,250.65 C583.424105,249.683 583.990105,248.85 584.690105,248.15 C585.390105,247.45 586.207105,246.9 587.140105,246.5 C588.107105,246.067 589.124105,245.85 590.190105,245.85 C591.290105,245.85 592.324105,246.067 593.290105,246.5 C594.257105,246.9 595.090105,247.45 595.790105,248.15 C596.524105,248.85 597.107105,249.683 597.540105,250.65 C597.974105,251.617 598.190105,252.65 598.190105,253.75 Z" id="Shape" fill="#000000" fill-rule="nonzero"></path>
            <path d="M629.831105,293.1 C631.364105,293.1 632.698105,292.9 633.831105,292.5 C634.964105,292.067 635.898105,291.483 636.631105,290.75 C637.398105,290.017 637.964105,289.133 638.331105,288.1 C638.731105,287.067 638.931105,285.933 638.931105,284.7 C638.931105,282.167 638.164105,280.167 636.631105,278.7 C635.131105,277.2 632.864105,276.45 629.831105,276.45 C626.798105,276.45 624.514105,277.2 622.981105,278.7 C621.481105,280.167 620.731105,282.167 620.731105,284.7 C620.731105,285.9 620.914105,287.017 621.281105,288.05 C621.681105,289.083 622.248105,289.983 622.981105,290.75 C623.748105,291.483 624.698105,292.067 625.831105,292.5 C626.998105,292.9 628.331105,293.1 629.831105,293.1 Z M643.781105,322.3 C643.781105,321.3 643.481105,320.483 642.881105,319.85 C642.281105,319.217 641.464105,318.733 640.431105,318.4 C639.398105,318.033 638.181105,317.767 636.781105,317.6 C635.414105,317.433 633.948105,317.317 632.381105,317.25 C630.848105,317.15 629.248105,317.067 627.581105,317 C625.948105,316.933 624.348105,316.8 622.781105,316.6 C621.414105,317.367 620.298105,318.267 619.431105,319.3 C618.598105,320.333 618.181105,321.533 618.181105,322.9 C618.181105,323.8 618.398105,324.633 618.831105,325.4 C619.298105,326.2 620.014105,326.883 620.981105,327.45 C621.981105,328.017 623.264105,328.45 624.831105,328.75 C626.398105,329.083 628.314105,329.25 630.581105,329.25 C632.881105,329.25 634.864105,329.067 636.531105,328.7 C638.198105,328.367 639.564105,327.883 640.631105,327.25 C641.731105,326.65 642.531105,325.917 643.031105,325.05 C643.531105,324.217 643.781105,323.3 643.781105,322.3 Z M656.081105,270.45 L656.081105,275.05 C656.081105,276.517 655.198105,277.417 653.431105,277.75 L648.831105,278.6 C649.531105,280.367 649.881105,282.3 649.881105,284.4 C649.881105,286.933 649.364105,289.233 648.331105,291.3 C647.331105,293.333 645.931105,295.067 644.131105,296.5 C642.331105,297.933 640.198105,299.05 637.731105,299.85 C635.298105,300.617 632.664105,301 629.831105,301 C628.831105,301 627.864105,300.95 626.931105,300.85 C625.998105,300.75 625.081105,300.617 624.181105,300.45 C622.581105,301.417 621.781105,302.5 621.781105,303.7 C621.781105,304.733 622.248105,305.5 623.181105,306 C624.148105,306.467 625.414105,306.8 626.981105,307 C628.548105,307.2 630.331105,307.333 632.331105,307.4 C634.331105,307.433 636.381105,307.533 638.481105,307.7 C640.581105,307.867 642.631105,308.167 644.631105,308.6 C646.631105,309 648.414105,309.65 649.981105,310.55 C651.548105,311.45 652.798105,312.683 653.731105,314.25 C654.698105,315.783 655.181105,317.767 655.181105,320.2 C655.181105,322.467 654.614105,324.667 653.481105,326.8 C652.381105,328.933 650.764105,330.833 648.631105,332.5 C646.531105,334.167 643.931105,335.5 640.831105,336.5 C637.764105,337.533 634.264105,338.05 630.331105,338.05 C626.464105,338.05 623.098105,337.667 620.231105,336.9 C617.364105,336.167 614.981105,335.167 613.081105,333.9 C611.181105,332.667 609.764105,331.233 608.831105,329.6 C607.898105,327.967 607.431105,326.267 607.431105,324.5 C607.431105,322.1 608.148105,320.1 609.581105,318.5 C611.048105,316.867 613.048105,315.567 615.581105,314.6 C614.214105,313.9 613.131105,312.967 612.331105,311.8 C611.531105,310.633 611.131105,309.1 611.131105,307.2 C611.131105,306.433 611.264105,305.65 611.531105,304.85 C611.831105,304.017 612.248105,303.2 612.781105,302.4 C613.348105,301.6 614.048105,300.85 614.881105,300.15 C615.714105,299.417 616.698105,298.767 617.831105,298.2 C615.231105,296.8 613.181105,294.933 611.681105,292.6 C610.214105,290.267 609.481105,287.533 609.481105,284.4 C609.481105,281.867 609.981105,279.583 610.981105,277.55 C612.014105,275.483 613.431105,273.733 615.231105,272.3 C617.064105,270.833 619.214105,269.717 621.681105,268.95 C624.181105,268.183 626.898105,267.8 629.831105,267.8 C632.031105,267.8 634.098105,268.033 636.031105,268.5 C637.964105,268.933 639.731105,269.583 641.331105,270.45 L656.081105,270.45 Z" id="Shape" fill="#000000" fill-rule="nonzero"></path>
            <path d="M678.263105,274.2 C680.263105,272.333 682.463105,270.817 684.863105,269.65 C687.263105,268.483 690.080105,267.9 693.313105,267.9 C696.113105,267.9 698.596105,268.383 700.763105,269.35 C702.930105,270.283 704.730105,271.617 706.163105,273.35 C707.630105,275.05 708.730105,277.1 709.463105,279.5 C710.230105,281.867 710.613105,284.483 710.613105,287.35 L710.613105,320 L698.263105,320 L698.263105,287.35 C698.263105,284.217 697.546105,281.8 696.113105,280.1 C694.680105,278.367 692.496105,277.5 689.563105,277.5 C687.430105,277.5 685.430105,277.983 683.563105,278.95 C681.696105,279.917 679.930105,281.233 678.263105,282.9 L678.263105,320 L665.913105,320 L665.913105,245.7 L678.263105,245.7 L678.263105,274.2 Z" id="Path" fill="#000000" fill-rule="nonzero"></path>
            <path d="M740.775105,320.8 C736.308105,320.8 732.875105,319.55 730.475105,317.05 C728.108105,314.517 726.925105,311.033 726.925105,306.6 L726.925105,277.95 L721.675105,277.95 C721.008105,277.95 720.441105,277.733 719.975105,277.3 C719.508105,276.867 719.275105,276.217 719.275105,275.35 L719.275105,270.45 L727.525105,269.1 L730.125105,255.1 C730.291105,254.433 730.608105,253.917 731.075105,253.55 C731.542105,253.183 732.141105,253 732.875105,253 L739.275105,253 L739.275105,269.15 L752.975105,269.15 L752.975105,277.95 L739.275105,277.95 L739.275105,305.75 C739.275105,307.35 739.658105,308.6 740.425105,309.5 C741.225105,310.4 742.308105,310.85 743.675105,310.85 C744.441105,310.85 745.075105,310.767 745.575105,310.6 C746.108105,310.4 746.558105,310.2 746.925105,310 C747.325105,309.8 747.675105,309.617 747.975105,309.45 C748.275105,309.25 748.575105,309.15 748.875105,309.15 C749.241105,309.15 749.542105,309.25 749.775105,309.45 C750.008105,309.617 750.258105,309.883 750.525105,310.25 L754.225105,316.25 C752.425105,317.75 750.358105,318.883 748.025105,319.65 C745.692105,320.417 743.275105,320.8 740.775105,320.8 Z" id="Path" fill="#000000" fill-rule="nonzero"></path>
            <path d="M794.182105,278.7 C793.848105,279.233 793.499105,279.617 793.132105,279.85 C792.765105,280.05 792.299105,280.15 791.732105,280.15 C791.132105,280.15 790.482105,279.983 789.782105,279.65 C789.115105,279.317 788.332105,278.95 787.432105,278.55 C786.532105,278.117 785.499105,277.733 784.332105,277.4 C783.199105,277.067 781.849105,276.9 780.282105,276.9 C777.849105,276.9 775.932105,277.417 774.532105,278.45 C773.165105,279.483 772.482105,280.833 772.482105,282.5 C772.482105,283.6 772.832105,284.533 773.532105,285.3 C774.265105,286.033 775.215105,286.683 776.382105,287.25 C777.582105,287.817 778.932105,288.333 780.432105,288.8 C781.932105,289.233 783.449105,289.717 784.982105,290.25 C786.549105,290.783 788.082105,291.4 789.582105,292.1 C791.082105,292.767 792.415105,293.633 793.582105,294.7 C794.782105,295.733 795.732105,296.983 796.432105,298.45 C797.165105,299.917 797.532105,301.683 797.532105,303.75 C797.532105,306.217 797.082105,308.5 796.182105,310.6 C795.315105,312.667 794.015105,314.467 792.282105,316 C790.549105,317.5 788.399105,318.683 785.832105,319.55 C783.299105,320.383 780.365105,320.8 777.032105,320.8 C775.265105,320.8 773.532105,320.633 771.832105,320.3 C770.165105,320 768.549105,319.567 766.982105,319 C765.449105,318.433 764.015105,317.767 762.682105,317 C761.382105,316.233 760.232105,315.4 759.232105,314.5 L762.082105,309.8 C762.449105,309.233 762.882105,308.8 763.382105,308.5 C763.882105,308.2 764.515105,308.05 765.282105,308.05 C766.049105,308.05 766.765105,308.267 767.432105,308.7 C768.132105,309.133 768.932105,309.6 769.832105,310.1 C770.732105,310.6 771.782105,311.067 772.982105,311.5 C774.215105,311.933 775.765105,312.15 777.632105,312.15 C779.099105,312.15 780.349105,311.983 781.382105,311.65 C782.449105,311.283 783.315105,310.817 783.982105,310.25 C784.682105,309.683 785.182105,309.033 785.482105,308.3 C785.815105,307.533 785.982105,306.75 785.982105,305.95 C785.982105,304.75 785.615105,303.767 784.882105,303 C784.182105,302.233 783.232105,301.567 782.032105,301 C780.865105,300.433 779.515105,299.933 777.982105,299.5 C776.482105,299.033 774.932105,298.533 773.332105,298 C771.765105,297.467 770.215105,296.85 768.682105,296.15 C767.182105,295.417 765.832105,294.5 764.632105,293.4 C763.465105,292.3 762.515105,290.95 761.782105,289.35 C761.082105,287.75 760.732105,285.817 760.732105,283.55 C760.732105,281.45 761.149105,279.45 761.982105,277.55 C762.815105,275.65 764.032105,274 765.632105,272.6 C767.265105,271.167 769.282105,270.033 771.682105,269.2 C774.115105,268.333 776.915105,267.9 780.082105,267.9 C783.615105,267.9 786.832105,268.483 789.732105,269.65 C792.632105,270.817 795.049105,272.35 796.982105,274.25 L794.182105,278.7 Z" id="Path" fill="#000000" fill-rule="nonzero"></path>
            <line x1="158.141105" y1="272" x2="124.641105" y2="281" id="Path" stroke="#A19FA8" stroke-width="3" stroke-linecap="round"></line>
            <line x1="816.141105" y1="285.5" x2="830.141105" y2="278" id="Path" stroke="#130F26" stroke-width="3" opacity="0.4" stroke-linecap="round"></line>
            <line x1="144.141105" y1="244" x2="158.141105" y2="251.5" id="Path" stroke="#A19FA8" stroke-width="3" stroke-linecap="round"></line>
            <line x1="30.0291438" y1="56.3410763" x2="-7.10542736e-15" y2="73.7048468" id="Path" stroke="#A19FA8" stroke-width="3" stroke-linecap="round"></line>
            <line x1="9.25924894" y1="32.9186198" x2="24.7233534" y2="36.5395969" id="Path" stroke="#A19FA8" stroke-width="3" stroke-linecap="round"></line>
            <path d="M807.092105,296.893979 C897.810718,296.485874 969.837132,282.079547 1023.17135,253.675 C1076.50556,225.270453 1113.31782,173.267319 1133.60811,97.6656" id="Path-2" stroke="#000000" stroke-width="3"></path>
            <polyline id="Path-4" stroke="#000000" stroke-width="3" stroke-linecap="round" points="1141.48235 109.271576 1133.60811 97.6656 1120.08784 103.920239"></polyline>
        </g>
    </g>
</svg>