<svg width="101" height="26" viewBox="0 0 101 26" fill="none" xmlns="http://www.w3.org/2000/svg">
<path d="M38.4384 17.0692V11.6052L42.7423 17.0692H43.9354V9H42.497V14.464L38.1931 9H37V17.0692H38.4384ZM49.1424 17.0692C51.2398 17.0692 52.5026 15.8077 52.5026 13.4892V9H51.097V13.4324C51.097 15.069 50.3942 15.7736 49.1534 15.7736C47.9125 15.7736 47.1987 15.069 47.1987 13.4324V9H45.7712V13.4892C45.7712 15.8077 47.034 17.0692 49.1424 17.0692ZM58.1121 17.2816C60.519 17.2816 62.2937 15.5332 62.2937 13.1408C62.2937 10.7483 60.519 9 58.1121 9C55.7052 9 53.9305 10.7598 53.9305 13.1408C53.9305 15.5217 55.7052 17.2816 58.1121 17.2816ZM58.1121 16.0075C56.5337 16.0075 55.3583 14.8072 55.3583 13.1408C55.3583 11.4744 56.5337 10.2741 58.1121 10.2741C59.6905 10.2741 60.8658 11.4744 60.8658 13.1408C60.8658 14.8072 59.6905 16.0075 58.1121 16.0075ZM65.1696 17.0692V14.7407H66.9296C68.9792 14.7407 70.249 13.6456 70.249 11.8703C70.249 10.0836 68.9792 9 66.9296 9H63.7216V17.0692H65.1696ZM66.9752 13.4593H65.3534V10.2741H66.9752C68.1916 10.2741 68.8211 10.8584 68.8211 11.8667C68.8211 12.875 68.1916 13.4593 66.9752 13.4593ZM74.8389 17.0692V10.268H77.3883V9H70.8609V10.268H73.4104V17.0692H74.8389ZM80.0401 17.0692V9H78.6122V17.0692H80.0401ZM83.6377 17.0692V11.7896L86.1489 16.147H86.7821L89.2933 11.7205L89.3042 17.0692H90.6471L90.6362 9H89.468L86.4874 14.3487L83.4521 9H82.2839V17.0692H83.6377ZM93.1436 17.0692L93.9039 15.2018H97.7604L98.5317 17.0692H100.03L96.5484 9H95.138L91.6671 17.0692H93.1436ZM97.1746 13.884H94.3188L95.7412 10.4864L97.1746 13.884Z" fill="black"/>
<path d="M12.7172 25C19.1884 25 24.4343 19.6274 24.4343 13C24.4343 6.37258 19.1884 1 12.7172 1C6.24596 1 1 6.37258 1 13C1 19.6274 6.24596 25 12.7172 25Z" stroke="black"/>
<path d="M12.7172 19.8323C16.3991 19.8323 19.3838 16.7734 19.3838 13C19.3838 9.22662 16.3991 6.16769 12.7172 6.16769C9.03528 6.16769 6.05051 9.22662 6.05051 13C6.05051 16.7734 9.03528 19.8323 12.7172 19.8323Z" fill="black"/>
<path d="M20.596 7.61696C22.158 7.61696 23.4242 6.31923 23.4242 4.71841C23.4242 3.11758 22.158 1.81985 20.596 1.81985C19.0339 1.81985 17.7677 3.11758 17.7677 4.71841C17.7677 6.31923 19.0339 7.61696 20.596 7.61696Z" fill="black"/>
</svg>
