<svg width="90" height="30" viewBox="0 0 90 30" fill="none" xmlns="http://www.w3.org/2000/svg">
<path fill-rule="evenodd" clip-rule="evenodd" d="M29.056 4.85377C28.7331 3.35089 28.009 2.30542 26.8506 1.66762C25.2036 0.760775 22.0974 0.784343 20.288 1.71741C18.9844 2.38965 17.9703 4.27315 17.9703 6.02175V6.91011H22.1341V6.10273C22.1341 4.80191 23.4028 3.93842 24.3935 4.56541C24.8535 4.85655 25.1411 6.17975 25.1411 8.00425V9.67831H24.009C22.3352 9.67831 20.0587 10.4548 19.1588 11.3323C17.731 12.7242 17.4048 13.658 17.3981 16.3681C17.3914 18.9363 17.6135 19.8209 18.5975 21.155C19.357 22.1843 20.3782 22.6584 21.8079 22.6457C23.0298 22.6346 24.1246 22.224 24.6658 21.5737C25.1028 21.0482 25.3722 21.1303 25.3722 21.7891C25.3722 22.3591 25.3956 22.3659 27.3383 22.3659H29.3049V14.1879C29.3049 9.22639 29.2069 5.5553 29.056 4.85377ZM21.3078 15.8331C21.4453 14.3978 21.8146 13.6774 22.6524 13.2135C22.94 13.0544 23.6173 12.9205 24.158 12.9159L25.1411 12.9079L25.1282 14.9263C25.1119 17.3866 24.7861 18.4477 23.9187 18.8618C22.3438 19.6133 21.0861 18.1543 21.3078 15.8331Z" fill="#0C1738"/>
<path d="M65.7102 3.44989C65.0945 2.14304 64.3708 1.48676 63.192 1.16632C61.3768 0.672885 59.6572 1.11257 58.6236 2.33448L57.9873 3.08627V1.37371H53.824V22.3659H58.2023L58.2682 14.0852C58.3303 6.31773 58.3618 5.77444 58.775 5.31933C59.0926 4.96984 59.4934 4.83393 60.2075 4.83393C60.6455 4.83393 60.9718 4.82424 61.2144 4.96021C61.9357 5.3644 61.9199 7.05547 61.9199 14.1127V22.3659H66.3441L66.272 13.4269C66.2022 4.8891 66.1769 4.44131 65.7102 3.44989Z" fill="#0C1738"/>
<path d="M80.3053 6.50639C79.9724 3.6171 79.3414 2.46555 77.6103 1.58481C76.5308 1.03555 74.2356 0.838329 72.8184 1.17324C72.1033 1.34234 71.4833 1.7336 70.7128 2.50199C69.4322 3.77883 68.9593 5.25011 69.1508 7.35783C69.3644 9.70388 70.3488 10.9899 73.7919 13.4213C75.6973 14.7667 76.259 15.6262 76.2604 17.1974C76.2614 18.5656 75.8071 19.1363 74.7176 19.1363C73.715 19.1363 73.1957 18.444 73.0706 16.9413L72.9655 15.676H68.7998L68.9048 17.4908C69.0477 19.9483 69.7441 21.1637 71.501 22.021C72.5428 22.5292 73.0715 22.633 74.6211 22.633C78.8847 22.633 80.9941 20.1884 80.5771 15.7323C80.3297 13.0885 79.393 11.8751 75.6256 9.31706C73.7661 8.05452 73.115 7.08494 73.3476 5.92506C73.5473 4.92967 73.8955 4.60327 74.7577 4.60327C75.7508 4.60327 76.088 5.06051 76.2141 6.57815L76.3187 7.83284H80.4582L80.3053 6.50639Z" fill="#0C1738"/>
<path d="M9.45496 15.0994C9.10579 12.2749 7.58824 2.33448 7.42058 1.77742C7.31597 1.43 6.9945 1.37371 5.11679 1.37371C3.5061 1.37371 2.93481 1.45055 2.93481 1.66691C2.93481 1.8284 3.97565 6.68128 5.24768 12.4514C6.51922 18.2216 7.56006 23.1813 7.56054 23.4731C7.56149 24.1103 7.0437 25.1622 6.51349 25.6012C6.30189 25.7762 5.64462 25.9244 5.05231 25.9303L3.97613 25.9414V29.6323L5.65417 29.7002C8.6372 29.8206 10.2149 28.6409 11.2419 25.5218C11.5003 24.7375 12.7542 19.217 14.0286 13.2539C15.3035 7.29073 16.4021 2.17417 16.4709 1.88398C16.5951 1.35965 16.5817 1.35664 14.4576 1.42261L12.3195 1.48906L11.4411 6.67939C10.9577 9.53413 10.3773 13.1154 10.1509 14.638L9.73965 17.4062L9.45496 15.0994Z" fill="#0C1738"/>
<path d="M36.6093 10.8202C36.2927 8.09882 35.9081 4.8598 35.7548 3.62289L35.4758 1.37371H30.9843L31.5322 4.43027C31.8332 6.11147 32.6786 10.8087 33.4109 14.8686L34.7426 22.2505L38.9642 22.3825L39.4811 19.6636C39.6325 18.8668 39.8637 17.6207 40.1078 16.2877C40.3218 15.1194 40.5458 13.8842 40.7354 12.8262L41.4734 8.70755L43.7829 22.2505L47.931 22.3818L51.642 2.81545L51.9171 1.37371H47.6721L47.3826 3.62289C47.2236 4.8598 46.8462 8.03538 46.5438 10.6795C46.242 13.3233 45.9496 15.5318 45.8942 15.587C45.8388 15.6421 45.729 15.1397 45.6497 14.4705C45.5704 13.8015 45.0659 10.5771 44.5295 7.3055L43.5537 1.35711L39.6163 1.48906L38.5205 8.06349C37.9177 11.6795 37.419 14.9406 37.4123 15.3109C37.386 16.8078 37.1567 15.5247 36.6093 10.8202Z" fill="#0C1738"/>
<path d="M86.2078 18.639C86.2078 16.2682 86.1734 16.0823 85.6399 15.5503C85.2821 15.1932 84.8078 14.984 84.3574 14.984C83.9064 14.984 83.4326 15.1932 83.0743 15.5503C82.5398 16.0835 82.5069 16.2661 82.5069 18.6749C82.5069 21.1158 82.5341 21.2606 83.1021 21.8269C83.5979 22.3216 83.8391 22.3981 84.5475 22.2849C85.9704 22.0579 86.2078 21.5367 86.2078 18.639Z" fill="#0C1738"/>
<path d="M86.2078 18.639C86.2078 16.2682 86.1734 16.0823 85.6399 15.5503C85.2821 15.1932 84.8078 14.984 84.3574 14.984C83.9064 14.984 83.4326 15.1932 83.0743 15.5503C82.5398 16.0835 82.5069 16.2661 82.5069 18.6749C82.5069 21.1158 82.5341 21.2606 83.1021 21.8269C83.5979 22.3216 83.8391 22.3981 84.5475 22.2849C85.9704 22.0579 86.2078 21.5367 86.2078 18.639Z" fill="#0C1738"/>
<path d="M86.2077 18.6389C86.2077 16.2682 86.1733 16.0823 85.6398 15.5503C85.282 15.1932 84.8077 14.984 84.3572 14.984C83.9063 14.984 83.4325 15.1932 83.0742 15.5503C82.5397 16.0834 82.5068 16.2661 82.5068 18.6749C82.5068 21.1158 82.534 21.2606 83.1019 21.8269C83.5978 22.3215 83.839 22.3981 84.5474 22.2849C85.9703 22.0579 86.2077 21.5367 86.2077 18.6389Z" fill="#F0CE57"/>
<path d="M86.2077 18.6389C86.2077 16.2682 86.1733 16.0823 85.6398 15.5503C85.282 15.1932 84.8077 14.984 84.3572 14.984C83.9063 14.984 83.4325 15.1932 83.0742 15.5503C82.5397 16.0834 82.5068 16.2661 82.5068 18.6749C82.5068 21.1158 82.534 21.2606 83.1019 21.8269C83.5978 22.3215 83.839 22.3981 84.5474 22.2849C85.9703 22.0579 86.2077 21.5367 86.2077 18.6389Z" fill="#F0CE57"/>
</svg>
