<svg width="24" height="24" viewBox="0 0 24 24" fill="none" xmlns="http://www.w3.org/2000/svg">
<g clip-path="url(#clip0)">
<path d="M13.5374 11.8277C13.5374 15.5984 10.5069 18.6552 6.76884 18.6552C3.03073 18.6552 0 15.5977 0 11.8277C0 8.05767 3.0305 5 6.76884 5C10.5072 5 13.5374 8.05698 13.5374 11.8277Z" fill="black"/>
<path d="M20.9622 11.8277C20.9622 15.377 19.447 18.2554 17.5778 18.2554C15.7086 18.2554 14.1934 15.377 14.1934 11.8277C14.1934 8.27834 15.7084 5.3999 17.5776 5.3999C19.4467 5.3999 20.962 8.27742 20.962 11.8277" fill="black"/>
<path d="M24.0005 11.8277C24.0005 15.007 23.4677 17.586 22.8102 17.586C22.1527 17.586 21.6201 15.0077 21.6201 11.8277C21.6201 8.6477 22.1529 6.06946 22.8102 6.06946C23.4674 6.06946 24.0005 8.64747 24.0005 11.8277Z" fill="black"/>
</g>
<defs>
<clipPath id="clip0">
<rect width="24" height="24" fill="white"/>
</clipPath>
</defs>
</svg>
